<svg xmlns="http://www.w3.org/2000/svg" viewBox="0 0 852.46 1213.27"><g id="b94ff55f-fb4b-4c8f-9862-f047d261bbff" data-name="Layer 2"><g id="b6705ee6-21a8-4ce8-98ec-b9704107f84d" data-name="Layer 1"><path d="M250.08,1044.41A168.87,168.87,0,1,0,538.35,925c-30.56-30.56-70.16,38.61-116.8,38.61-54.5,0-105.58-62.24-136.46-22.17A168.17,168.17,0,0,0,250.08,1044.41Z" style="fill:#6b6b6b"/><path d="M505.18,632.64c6.85,57.66,19.55,119.24,15.64,175-31.27,7.82-188.36,20.24-201.34,2.28-6.75-9.35-2-89.27,10.75-178.21C349.78,617,503.64,619.65,505.18,632.64Z" style="fill:#704f62;stroke:#704f62;stroke-linecap:round;stroke-linejoin:round;stroke-width:10px"/><path d="M422.11,890.67c45.93-2.94,75-11.41,83.07-14.67,10.6,6.19,217.18,57.94,318.21,82.81,10,2.45,15.33,5.19,18.85,7.67a12.36,12.36,0,0,1,1.86,18.57c-4.54,4.82-12,10.59-27.38,17.65-78.28,36-225.52,85-380,84.42-121-.49-244.22-15.53-358.49-56.8-24.39-8.81-49.63-17.17-69.53-33.74a10.49,10.49,0,0,1,3.56-18c1.6-.51,3.27-1,5-1.41,74.58-17.48,243.43-51.52,315.82-95.27C342.72,884.47,370.41,894,422.11,890.67Z" style="fill:#704f62;stroke:#704f62;stroke-linecap:round;stroke-linejoin:round;stroke-width:10px"/><path d="M335.12,833c0,2.5-.32,26.59,0,33.23,42,8.8,130.21,4.89,169.3-4.89-1.52-7.6-3-27.58-6.08-34.2C442.24,836.71,391.75,835.57,335.12,833Z" style="fill:#704f62;stroke:#704f62;stroke-linecap:round;stroke-linejoin:round;stroke-width:10px"/><line x1="418.95" y1="13" x2="418.95" y2="607.24" style="fill:#704f62;stroke:#704f62;stroke-linecap:round;stroke-linejoin:round;stroke-width:26px"/></g></g></svg>