<?xml version="1.0" encoding="utf-8"?>
<!-- Generator: Adobe Illustrator 26.0.1, SVG Export Plug-In . SVG Version: 6.00 Build 0)  -->
<svg version="1.1" id="Layer_1" xmlns="http://www.w3.org/2000/svg" xmlns:xlink="http://www.w3.org/1999/xlink" x="0px" y="0px"
	 viewBox="0 0 1298 5389.1" style="enable-background:new 0 0 1298 5389.1;" xml:space="preserve">
<style type="text/css">
	.st0{fill-rule:evenodd;clip-rule:evenodd;fill:#020202;enable-background:new    ;}
	.st1{fill:#414754;}
	.st2{fill-rule:evenodd;clip-rule:evenodd;fill:#2C2F35;}
	.st3{fill:#685C56;}
	.st4{fill:#999999;}
	.st5{fill-rule:evenodd;clip-rule:evenodd;fill:#937363;}
</style>
<g id="af945bff-9619-4d70-8d9f-1bd325f76b64">
	<path class="st0" d="M801.8,0v3772.9c72.5,1.4,133.1,20.9,154,47.2h10c12.4,5,23.8,11.8,33.3,21.4c19.8,19.9,31.7,52,43.2,68
		c2.9,4.3,6.6,8,10.8,11.1h5.1c3,0,5.4,11.2,5.4,25.1s-2.4,25.1-5.4,25.1h-14.7v29.7h14.7c3,0,5.4,11.2,5.4,25.1s-2.4,25.1-5.4,25.1
		h-14.7v29.7h14.7c3,0,5.4,11.2,5.4,25.1c0,13.8-2.4,25.1-5.4,25.1h-14.7v29.7h14.7c3,0,5.4,11.2,5.4,25.1s-2.4,25.1-5.4,25.1h-14.7
		v29.7h14.7c3,0,5.4,11.2,5.4,25.1s-2.4,25.1-5.4,25.1h-5.4c3.6,15,11,38.5,30.1,72.8c24.7,44.2,68.8,106.2,90.8,137.2l22.1,31l0,0
		c64,89.7,102.1,201.5,102.1,322.7c0,295.7-226,535.3-504.8,535.3s-504.9-239.7-504.9-535.3c0-121.2,38-233,102.1-322.7l0,0l22.1-31
		c22.1-31,66.2-93,90.9-137.2c19.1-34.3,26.6-57.8,30.1-72.8h-5.4c-3,0-5.4-11.2-5.4-25.1s2.4-25.1,5.4-25.1h14.7v-29.7h-14.7
		c-3,0-5.4-11.2-5.4-25.1s2.4-25.1,5.4-25.1h14.7v-29.7h-14.7c-3,0-5.4-11.2-5.4-25.1s2.4-25.1,5.4-25.1h14.7v-29.7h-14.7
		c-3,0-5.4-11.2-5.4-25.1s2.4-25.1,5.4-25.1h14.7v-29.7h-14.7c-3,0-5.4-11.2-5.4-25.1s2.4-25.1,5.4-25.1h5.1
		c4.2-3,7.8-6.8,10.8-11.1c11.5-16.1,23.4-48.2,43.2-68c9.6-9.6,21-16.4,33.3-21.4h10c20.7-26.1,80.1-45.3,151.4-47.2V0H801.8z"/>
	<rect x="493.5" y="0.7" class="st1" width="20.1" height="3556.8"/>
	<path class="st2" d="M504.9,5097.3C226,5097.3,0,4857.6,0,4562c0-121.2,38-233,102.1-322.7l0,0l22.1-31c22.1-31,66.2-93,90.8-137.2
		s29.9-70.5,32.5-83.6s2.6-13.1,17-14.9s43.1-5.2,66.1-6.9s40.1-1.7,76-0.2c27.9,1.2,67.1,3.4,98.4,17.6
		c31.3-14.2,70.5-16.3,98.4-17.6c35.9-1.6,53.1-1.6,76,0.2s51.7,5.2,66,6.9s14.4,1.7,17,14.9s7.8,39.4,32.5,83.6
		c24.7,44.2,68.8,106.2,90.8,137.2l22.1,31l0,0c64,89.7,102.1,201.5,102.1,322.7C1009.7,4857.6,783.7,5097.3,504.9,5097.3z"/>
	<rect x="254.4" y="3636.5" class="st3" width="501" height="327.4"/>
	<ellipse class="st4" cx="504.9" cy="3548.8" rx="170.6" ry="67.8"/>
	<path class="st5" d="M239.6,3628.8h5.1c4.2-3,7.8-6.8,10.8-11.1c11.5-16.1,23.4-48.2,43.2-68c9.6-9.6,21-16.4,33.3-21.4h345.6
		c12.4,5,23.8,11.8,33.3,21.4c19.8,19.9,31.7,52,43.2,68c2.9,4.3,6.6,8,10.8,11.1h5.1c3,0,5.4,11.2,5.4,25.1s-2.4,25.1-5.4,25.1
		H239.6c-3,0-5.4-11.2-5.4-25.1S236.7,3628.8,239.6,3628.8z M770.1,3948.1H239.6c-3,0-5.4,11.2-5.4,25.1s2.4,25.1,5.4,25.1h530.4
		c3,0,5.4-11.2,5.4-25.1S773,3948.1,770.1,3948.1z M770.1,3868.3H239.6c-3,0-5.4,11.2-5.4,25.1s2.4,25.1,5.4,25.1h530.4
		c3,0,5.4-11.2,5.4-25.1S773,3868.3,770.1,3868.3z M770.1,3788.5H239.6c-3,0-5.4,11.2-5.4,25.1s2.4,25.1,5.4,25.1h530.4
		c3,0,5.4-11.2,5.4-25.1S773,3788.5,770.1,3788.5z M770.1,3708.6H239.6c-3,0-5.4,11.2-5.4,25.1s2.4,25.1,5.4,25.1h530.4
		c3,0,5.4-11.2,5.4-25.1S773,3708.6,770.1,3708.6z"/>
</g>
</svg>
