<svg xmlns="http://www.w3.org/2000/svg" viewBox="0 0 1297.98 5389.1"><g id="ad51eb84-4060-432e-897a-8029dcb660d7" data-name="Layer 2"><g id="af945bff-9619-4d70-8d9f-1bd325f76b64" data-name="Layer 1"><path d="M801.83,0V3772.87c72.5,1.44,133.06,20.86,154,47.25h10c12.36,5,23.76,11.78,33.33,21.39,19.78,19.86,31.73,52,43.2,68a45.14,45.14,0,0,0,10.77,11.06h5.12c3,0,5.38,11.22,5.38,25.06s-2.41,25.07-5.38,25.07h-14.72v29.7h14.72c3,0,5.38,11.22,5.38,25.07s-2.41,25.06-5.38,25.06h-14.72v29.71h14.72c3,0,5.38,11.22,5.38,25.06s-2.41,25.06-5.38,25.06h-14.72v29.71h14.72c3,0,5.38,11.22,5.38,25.06s-2.41,25.07-5.38,25.07h-14.72v29.7h14.72c3,0,5.38,11.22,5.38,25.06s-2.41,25.07-5.38,25.07h-5.42c3.57,15,11,38.47,30.13,72.76,24.66,44.16,68.78,106.18,90.84,137.19l22.06,31h0c64,89.74,102.06,201.52,102.06,322.74,0,295.66-226,535.33-504.85,535.33s-504.85-239.67-504.85-535.33c0-121.22,38-233,102.07-322.74h0l22.06-31c22.07-31,66.19-93,90.85-137.19,19.14-34.29,26.56-57.8,30.13-72.76h-5.42c-3,0-5.38-11.22-5.38-25.07s2.41-25.06,5.38-25.06h14.71v-29.7H527.93c-3,0-5.38-11.23-5.38-25.07s2.41-25.06,5.38-25.06h14.71V4130.4H527.93c-3,0-5.38-11.22-5.38-25.06s2.41-25.06,5.38-25.06h14.71v-29.71H527.93c-3,0-5.38-11.22-5.38-25.06s2.41-25.07,5.38-25.07h14.71v-29.7H527.93c-3,0-5.38-11.22-5.38-25.07s2.41-25.06,5.38-25.06H533a45.16,45.16,0,0,0,10.78-11.06c11.47-16.06,23.42-48.18,43.2-68,9.57-9.61,21-16.35,33.33-21.39h10c20.73-26.06,80.07-45.32,151.37-47.19V0Z" style="fill:#414754;fill-rule:evenodd;opacity:0.8"/><rect x="493.48" y="0.73" width="20.07" height="3556.83" style="fill:#414754"/><path d="M504.85,5097.3C226,5097.3,0,4857.63,0,4562c0-121.22,38-233,102.06-322.74h0l22.06-31c22.06-31,66.18-93,90.84-137.19s29.86-70.47,32.46-83.62,2.6-13.15,17-14.87,43.12-5.17,66.06-6.89,40.06-1.73,76-.16c27.89,1.22,67.11,3.39,98.43,17.55,31.32-14.16,70.54-16.33,98.43-17.55,35.93-1.57,53.06-1.57,76,.16s51.68,5.17,66.05,6.89,14.38,1.72,17,14.87,7.79,39.45,32.45,83.62,68.79,106.18,90.85,137.19l22.06,31h0c64,89.74,102.07,201.52,102.07,322.74C1009.7,4857.63,783.67,5097.3,504.85,5097.3Z" style="fill:#3f444f;fill-rule:evenodd"/><rect x="254.36" y="3636.47" width="500.98" height="327.45" style="fill:#685c56"/><ellipse cx="504.85" cy="3548.75" rx="170.64" ry="67.77" style="fill:#999"/><path d="M239.64,3628.81h5.12a45.16,45.16,0,0,0,10.78-11.06c11.47-16.06,23.42-48.18,43.19-68,9.57-9.61,21-16.35,33.33-21.39H677.63c12.37,5,23.77,11.78,33.34,21.39,19.77,19.86,31.72,52,43.19,68a45.16,45.16,0,0,0,10.78,11.06h5.12c3,0,5.37,11.22,5.37,25.06s-2.4,25.07-5.37,25.07H239.64c-3,0-5.38-11.22-5.38-25.07s2.41-25.06,5.38-25.06Zm530.42,319.33H239.64c-3,0-5.38,11.22-5.38,25.07s2.41,25.06,5.38,25.06H770.06c3,0,5.37-11.22,5.37-25.06s-2.4-25.07-5.37-25.07Zm0-79.83H239.64c-3,0-5.38,11.22-5.38,25.06s2.41,25.07,5.38,25.07H770.06c3,0,5.37-11.22,5.37-25.07s-2.4-25.06-5.37-25.06Zm0-79.83H239.64c-3,0-5.38,11.22-5.38,25.06s2.41,25.06,5.38,25.06H770.06c3,0,5.37-11.22,5.37-25.06s-2.4-25.06-5.37-25.06Zm0-79.84H239.64c-3,0-5.38,11.22-5.38,25.07s2.41,25.06,5.38,25.06H770.06c3,0,5.37-11.22,5.37-25.06S773,3708.64,770.06,3708.64Z" style="fill:#937363;fill-rule:evenodd"/></g></g></svg>