<svg xmlns="http://www.w3.org/2000/svg" viewBox="0 0 1297.98 5389.1"><g id="ac8f2f6a-ae19-4f67-821f-9ba31ea22f05" data-name="Layer 2"><g id="f6e72b08-a31e-43a7-83ea-a51b42c09ec2" data-name="Layer 1"><path d="M801.83,0V3772.87c72.5,1.44,133.06,20.86,154,47.25h10c12.36,5,23.76,11.78,33.33,21.39,19.78,19.86,31.73,52,43.2,68a45.14,45.14,0,0,0,10.77,11.06h5.12c3,0,5.38,11.22,5.38,25.06s-2.41,25.07-5.38,25.07h-14.72v29.7h14.72c3,0,5.38,11.22,5.38,25.07s-2.41,25.06-5.38,25.06h-14.72v29.71h14.72c3,0,5.38,11.22,5.38,25.06s-2.41,25.06-5.38,25.06h-14.72v29.71h14.72c3,0,5.38,11.22,5.38,25.06s-2.41,25.07-5.38,25.07h-14.72v29.7h14.72c3,0,5.38,11.22,5.38,25.06s-2.41,25.07-5.38,25.07h-5.42c3.57,15,11,38.47,30.13,72.76,24.66,44.16,68.78,106.18,90.84,137.19l22.06,31h0c64,89.74,102.06,201.52,102.06,322.74,0,295.66-226,535.33-504.85,535.33s-504.85-239.67-504.85-535.33c0-121.22,38-233,102.07-322.74h0l22.06-31c22.07-31,66.19-93,90.85-137.19,19.14-34.29,26.56-57.8,30.13-72.76h-5.42c-3,0-5.38-11.22-5.38-25.07s2.41-25.06,5.38-25.06h14.71v-29.7H527.93c-3,0-5.38-11.23-5.38-25.07s2.41-25.06,5.38-25.06h14.71V4130.4H527.93c-3,0-5.38-11.22-5.38-25.06s2.41-25.06,5.38-25.06h14.71v-29.71H527.93c-3,0-5.38-11.22-5.38-25.06s2.41-25.07,5.38-25.07h14.71v-29.7H527.93c-3,0-5.38-11.22-5.38-25.07s2.41-25.06,5.38-25.06H533a45.16,45.16,0,0,0,10.78-11.06c11.47-16.06,23.42-48.18,43.2-68,9.57-9.61,21-16.35,33.33-21.39h10c20.73-26.06,80.07-45.32,151.37-47.19V0Z" style="fill:#414754;fill-rule:evenodd;opacity:0.8"/><rect x="493.48" y="0.73" width="20.07" height="3556.83" style="fill:#414754"/><path d="M504.85,5097.3C226,5097.3,0,4857.63,0,4562c0-121.22,38-233,102.06-322.74h0l22.06-31c22.06-31,66.18-93,90.84-137.19s29.86-70.47,32.46-83.62,2.6-13.15,17-14.87,43.12-5.17,66.06-6.89,40.06-1.73,76-.16c27.89,1.22,67.11,3.39,98.43,17.55,31.32-14.16,70.54-16.33,98.43-17.55,35.93-1.57,53.06-1.57,76,.16s51.68,5.17,66.05,6.89,14.38,1.72,17,14.87,7.79,39.45,32.45,83.62,68.79,106.18,90.85,137.19l22.06,31h0c64,89.74,102.07,201.52,102.07,322.74C1009.7,4857.63,783.67,5097.3,504.85,5097.3Z" style="fill:#fceca9;fill-rule:evenodd"/><path d="M551.25,4343.28a24.07,24.07,0,0,1,7.39,2.93,35,35,0,0,1,7.65,6.33c5.45,6.07,8.78,12.06,12.11,19.46,8.37,20,11.81,38.8,13,60.35.74,24.88-1.76,45.07-12.69,67.72a93.76,93.76,0,0,1-18.3,24.6c1.35,1.37,2.79,2.74,4.33,4.13a75.14,75.14,0,0,0,24.78,14.77c9.31,3.1,16.73,4.08,26.51,3.05,10.23-1.46,17.37-4.46,25.86-10.33,10.44-7.78,16.94-16,23.85-26.92,9.05-15.13,14.52-29.1,19.75-45.9,14.57-50.86,17.62-98.52,18-151.19-1.78-138.56-23.21-280.75-43.24-417.81-1.32-9.43-10.35-71.73-2.39-77.4,9.32,3.12,18.75,65.35,20.21,74.78l4.29,29.32c18.93,129.59,37.46,259.95,39.14,391.11-.42,54.69-3.67,103.6-18.8,156.41-5.73,18.41-11.72,33.52-21.64,50.1-8.32,13.2-16.12,22.77-28.7,32.13-11.19,7.73-20.66,11.66-34.14,13.58-12.79,1.35-22.5.12-34.68-3.93-12.23-4.49-20.88-9.79-30.74-18.26-.55-.49-1.08-1-1.61-1.47v-32.55a76,76,0,0,0,11.48-16.47c9.38-19.45,11.34-37.35,10.7-58.69-1.08-19.06-4.11-36.21-11.52-53.87-2.39-5.31-4.91-10.11-8.83-14.47a20.23,20.23,0,0,0-1.83-1.77ZM432.87,4356.9a44.06,44.06,0,0,1,12.39,5.25c7.87,5,13,10.48,18.38,18a98.44,98.44,0,0,1,12.72,26c6.9,23,7.22,41.92.68,65.08-5.43,16.09-12.68,29.15-22.53,41a103.49,103.49,0,0,0,17,12.37,60.05,60.05,0,0,0,26,7.27,63.15,63.15,0,0,0,25.62-4.26,76.09,76.09,0,0,0,11.75-5.81c-1.89-2.82-3.71-5.82-5.54-9.08-13-25.3-17.14-48.45-18.39-76.6-.45-22.93,1.18-44.9,8.52-66.76,2.83-7.6,5.78-13.75,11.51-19.62a24.89,24.89,0,0,1,8.4-5.54,20.31,20.31,0,0,1,9.94-1.26c.65.09,1.27.19,1.86.31V4363a14.5,14.5,0,0,0-1.81-1.32,6,6,0,0,0-2.19-.85,2.48,2.48,0,0,0-1.29.18,7.27,7.27,0,0,0-2.33,1.63c-3.44,3.53-5.45,8.27-7.14,12.82-6.5,19.35-7.87,39.81-7.46,60.09,1.1,25,4.68,46.12,16.19,68.56,1.28,2.28,2.56,4.41,3.87,6.43.75-.76,1.47-1.51,2.16-2.27v32.55c-1.75-1.63-3.39-3.25-5-4.87a92.76,92.76,0,0,1-16.66,8.49,81.1,81.1,0,0,1-32.87,5.44c-12.88-.79-22.29-3.49-33.76-9.4a125.55,125.55,0,0,1-20.92-15.18c-1.87,1.74-3.81,3.48-5.83,5.2-1.15.92-2.27,1.8-3.39,2.64v-46.08c2.88,4.19,5.88,8.23,9.08,12.08a106,106,0,0,0,17.89-33.2c5.44-19.27,5.11-35.09-.63-54.22a80.7,80.7,0,0,0-10.33-21.24c-3.82-5.32-7.51-9.45-13.06-13-1-.59-2-1.12-2.95-1.57Zm-91.76-364.3-4.1,27.66c-17,114.72-35.55,240.07-33.37,356,2,41.64,6.26,82,24.9,119.86,6,11.21,11.91,19.77,21.74,28,7.65,5.93,14.14,9.1,23.74,10.59,9.39,1,16.55-.17,25.43-3.25,9.91-3.76,17.15-8.24,25.4-14.85q2.43-2.07,4.69-4.17a215,215,0,0,1-20.73-29.61c-12.81-22.84-22.18-45.4-24.62-71.69-.57-10.44.13-18.65,3.67-28.54,3.29-8.24,7.09-13.9,14.09-19.43a35.66,35.66,0,0,1,21.07-7.33,42.15,42.15,0,0,1,9.85,1.09v19a21.31,21.31,0,0,0-9.47-2.1,17.84,17.84,0,0,0-10.6,3.7c-4.05,3.2-6.19,6.66-8.09,11.43-2.57,7.17-3,13.39-2.55,20.95,2.15,23.08,11,43.83,22.24,63.88,2.73,4.57,5.53,9,8.47,13.3v46.08a103,103,0,0,1-27.27,15.21c-11.88,4.11-21.41,5.58-34,4.16-13.14-2-22.18-6.29-32.65-14.41-12-10-19.08-20-26.42-33.67-20.09-40.81-24.81-82.63-26.93-127.55-2.36-125.6,19.2-262.6,37.66-387,1.5-9.59,11.32-73.33,20.7-76.53C351.93,3919.2,342.48,3983,341.11,3992.6Z" style="fill:#414754"/><rect x="254.36" y="3636.47" width="500.98" height="327.45" style="fill:#685c56"/><ellipse cx="504.85" cy="3548.75" rx="170.64" ry="67.77" style="fill:#ccc"/><path d="M239.64,3628.81h5.12a45.16,45.16,0,0,0,10.78-11.06c11.47-16.06,23.42-48.18,43.19-68,9.57-9.61,21-16.35,33.33-21.39H677.63c12.37,5,23.77,11.78,33.34,21.39,19.77,19.86,31.72,52,43.19,68a45.16,45.16,0,0,0,10.78,11.06h5.12c3,0,5.37,11.22,5.37,25.06s-2.4,25.07-5.37,25.07H239.64c-3,0-5.38-11.22-5.38-25.07s2.41-25.06,5.38-25.06Zm530.42,319.33H239.64c-3,0-5.38,11.22-5.38,25.07s2.41,25.06,5.38,25.06H770.06c3,0,5.37-11.22,5.37-25.06s-2.4-25.07-5.37-25.07Zm0-79.83H239.64c-3,0-5.38,11.22-5.38,25.06s2.41,25.07,5.38,25.07H770.06c3,0,5.37-11.22,5.37-25.07s-2.4-25.06-5.37-25.06Zm0-79.83H239.64c-3,0-5.38,11.22-5.38,25.06s2.41,25.06,5.38,25.06H770.06c3,0,5.37-11.22,5.37-25.06s-2.4-25.06-5.37-25.06Zm0-79.84H239.64c-3,0-5.38,11.22-5.38,25.07s2.41,25.06,5.38,25.06H770.06c3,0,5.37-11.22,5.37-25.06S773,3708.64,770.06,3708.64Z" style="fill:#e5bca5;fill-rule:evenodd"/><path d="M334.37,3528.32H677.63c12.37,5,23.77,11.78,33.34,21.39,19.77,19.86,31.72,52,43.19,68a45.16,45.16,0,0,0,10.78,11.06h5.12c3,0,5.37,11.22,5.37,25.06s-2.4,25.07-5.37,25.07H551.21c-42.16-82-106.09-118.34-175.22-139.63-13.74-4.23-27.69-7.87-41.62-11ZM564.7,3708.64c.76,1.89,1.5,3.8,2.24,5.73,5.26,13.84,10,28.75,14.31,44.4H770.06c3,0,5.37-11.22,5.37-25.06s-2.4-25.07-5.37-25.07H564.7Zm24,79.84c3.71,16.27,7,33.09,10,50.12H770.06c3,0,5.37-11.22,5.37-25.06s-2.4-25.06-5.37-25.06H588.69Zm14.72,79.83c2.48,16.76,4.65,33.57,6.55,50.13h160.1c3,0,5.37-11.22,5.37-25.07s-2.4-25.06-5.37-25.06H603.41Zm9.73,79.83c1.71,17.32,3.16,34.14,4.4,50.13H770.06c3,0,5.37-11.22,5.37-25.06s-2.4-25.07-5.37-25.07H613.14Z" style="fill:#ad836c;fill-rule:evenodd"/><path d="M212.56,4883.11A508.21,508.21,0,0,1,155.31,4786a1.56,1.56,0,0,1,.55-1.93l62.36-41.8a1.53,1.53,0,0,1,2.21.55,514.19,514.19,0,0,0,55.66,83.32,1.53,1.53,0,0,1-.19,2.14l-63.34,54.86ZM127,4726.61a1.55,1.55,0,0,1-2.25-.85,528.52,528.52,0,0,1-26.88-167.11c0-113.74,35.67-218.64,95.77-302.84h0a1.55,1.55,0,0,1,2.66,1.56h0c-44.71,93.29-61.78,202.76-42.2,314.81a531.87,531.87,0,0,0,34.6,117.07,1.54,1.54,0,0,1-.64,1.94Z" style="fill:#fff;stroke:#fff;stroke-linecap:round;stroke-linejoin:round;stroke-width:33px;fill-rule:evenodd"/></g></g></svg>