<svg xmlns="http://www.w3.org/2000/svg" viewBox="0 0 185.97 193.66"><g id="a94a26ea-f454-4c48-b581-4d1608d87d5c" data-name="Layer 2"><g id="a67fa966-b4fc-43d5-ac57-20ee84728afb" data-name="Layer 1"><path d="M62.28,48.92c5.45,3.12,18.41,1,28.18,3.59,18.53,4.94,30,.48,30,.48,8.31,22.81,9.78,45.45,8.64,72.33C110.5,107.73,85.9,105.77,68,121.08c-22.05-12.71-41.1-16.82-56.69-1-16.95,19.64-12.45,37.64-1.95,53.1,12.84,14.13,32.11,14.95,55.06,12.71,0,0,60.6,22.15,121.19-8.47,3.59-44.31-19.22-102.47-36.81-131a108.15,108.15,0,0,0-7.17-9.14c-2.57-2.92-5.42-5.47-8.72-8.71a123,123,0,0,0-14-11.87c-2.9-2.2-9.94-6.89-12.82-9.12A39,39,0,0,0,91,.25c-8-1.69-13,5.47-18,10.39-4.53,4-10.37,8-10.78,14.56-.25,4,1.72,7.46,3.61,10.85,0,0-4.72,1.79-6.35,4.4S57.72,46.32,62.28,48.92Z" style="fill:#bdefea"/><path d="M76.33,128.79a7.35,7.35,0,0,1,3.86-4.8,37.12,37.12,0,0,1,17.37-3.9,35.51,35.51,0,0,1,14.5,3.26c2.71,1.35,7,3.42,8.26,6.4,1.51,3.52-2.4,7.46-5.82,7.61-2.65.11-5.13-1.38-7.64-2a31.81,31.81,0,0,0-8.16-1.24c-5.87.11-11.84,3.19-17.79,1.77C77,134.93,75.62,131.75,76.33,128.79Z" style="fill:#e4f4f2"/><path d="M19,128.15A18.46,18.46,0,0,1,25,123.9a31.18,31.18,0,0,1,21.45-1.68c2.62.75,5.29,2,6.82,4.22s1.41,5.83-1,7.44c-3,2-7.58.64-10.92,1.05A32.64,32.64,0,0,0,29.07,139c-2.15,1.25-4.33,2.79-6.81,2.71a6.58,6.58,0,0,1-5.82-5.12,9.5,9.5,0,0,1,2-7.81C18.6,128.59,18.79,128.37,19,128.15Z" style="fill:#e4f4f2"/></g></g></svg>