<svg xmlns="http://www.w3.org/2000/svg" viewBox="0 0 3433.86 480.3"><g id="b0e01bed-5dbc-494c-9c80-b3f6e73f4e03" data-name="Layer 2"><g id="b4dafe81-affc-4476-919d-8dc99bc202c5" data-name="Layer 1"><path d="M2721.08,218a72.38,72.38,0,0,0,57.52-28.39,180.76,180.76,0,0,0-114.57.6A72.35,72.35,0,0,0,2721.08,218Z" style="fill:#bdefea"/><polygon points="2682.77 36.77 2806.59 68.63 2812.59 25.63 2736.6 16.27 2699.88 0 2682.77 36.77" style="fill:#f28fc3"/><path d="M2657,72.19,2812.54,112l-.85-8.11q-.39-3.67-.79-7.35-.78-7.17-1.57-14.32-.93-8.52-1.86-17L2683.82,33.63Z" style="fill:#c981aa"/><path d="M2656.6,72.67c-.45,1.77,6.9,5.35,19.29,9.8a72.61,72.61,0,0,1,11.16-7.67C2669,71.52,2657.15,70.53,2656.6,72.67Z" style="fill:#6b495c"/><path d="M2783.58,99.34a72.23,72.23,0,0,1,6.23,12.24c13.46,2.14,22,2.56,22.41.76C2812.78,110.16,2801.52,105.23,2783.58,99.34Z" style="fill:#6b495c"/><path d="M2797.2,101.16c.24,10.91,4.92,22.54,11.09,31.54,11.29,16.51,2.6,23.9-1.74,36.06" style="fill:none;stroke:#c981aa;stroke-linecap:round;stroke-miterlimit:10;stroke-width:9px"/><path d="M2648.26,344.86a6.11,6.11,0,0,0-3.26.16c-1.92.44-3.78,1.15-5.72,1.5a41.59,41.59,0,0,1-5.89.53c-14.39.49-27.26-2.22-41.51-6.86a128.92,128.92,0,0,1-26.35-12.14,68.69,68.69,0,0,0-17.62-7.78c-2.5-.67-14.6-3.8-14.38,1.59.08,2,1.86,3.68,3.79,4.36a23.24,23.24,0,0,0,6.07.79c8.85.65,17,5.07,24.35,10s14.36,10.61,22.46,14.25c16.63,7.49,38.71,5.73,53.13.52,2.05-.74,5.57-2.24,6-4.75a2.32,2.32,0,0,0-.1-1.25A1.67,1.67,0,0,0,2648.26,344.86Z" style="fill:#86bab3"/><path d="M2775.16,354.1a4,4,0,0,0,1.57,2c1.16.79,5,.3,6.43.38,5,.28,9.92.4,14.92.27,8.51-.23,17-.37,25.5-1.37,3.43-.4,24.67-2.8,25.11-7.05.34-3.27-13.16.65-15,1-8,1.66-16.15,3.28-24.37,3.46a192.91,192.91,0,0,1-28.62-1.89,8.17,8.17,0,0,0-3.65.08C2775.24,351.61,2774.79,352.89,2775.16,354.1Z" style="fill:#86bab3"/><path d="M3424.56,269.52c-20.78-4.68-88.63-12.74-209.43,39-79.5,34.08-123.51-11.65-199.43,11.16-11,3.22-25.6-5.42-33.76-10.88-14.8-9.9-26.58-19.06-45-21.56-9.29-1.27-19-1-27.63-4.59-19-7.94-17.61-27.77-30.84-39.13-6.93-5.95-35-3.64-35.43-15.39-.09-2.28-3.27-2.77-7.42-2.8-12.73-.1-21.43-22.82-25.16-35-4.86-15.85-11.11-28.48-15.66-50.55,0-.56,0-1.12,0-1.68a72.18,72.18,0,0,0-11.26-38.79c-13-4.26-29.41-9-47.44-13.62-18.44-4.7-35.51-8.46-49.09-10.92a72.61,72.61,0,0,0-11.16,7.67h0c-13.81,11.54-20.07,52.72-21.49,78a8.78,8.78,0,0,0-6.46,6.59c-4.71,20-8.29,25.75-20.43,36.07a9,9,0,0,1-2.48,1.51c-9.42,3.71-15.77,10.3-20.3,19.17s-17.7,26.34-28.84,30.38c-25,9.06-8.41,38.25-32.58,49.52-20.17,9.39-46.1-7.78-61.25,9.12-5.28,5.89-40,6-45.61,11.58-12,11.95-29.18,8.36-44.25,8.28-15.86-.09-32.1,1.3-47.95,2.36-31.08,2.09-62,5.69-92.9,9.86-72.28,9.75-144.25,21.16-216.88,28.11-185.33,17.73-466-29.76-731.73-21.58C1136,356.6,840.06,375.89,560.59,392.6,305,407.88,64.25,378.68,12.79,371.83A8.92,8.92,0,0,0,2.7,380.68v84.56c0,4.93,4-41.08,8.92,12.92h3411c4.93-54,8.92-8,8.92-12.92v-187A8.9,8.9,0,0,0,3424.56,269.52ZM2721.08,218c-5.4,0-11.3-2.91-17.35-7.57,5.84.16,12.07.16,18.61.16a72.71,72.71,0,0,0,16.67-1.95C2732.62,214.43,2726.5,218,2721.08,218Z" style="fill:#bdefea"/><path d="M3425,268.07c-32.49-7.12-67.35-3.14-99.56,3.33-33.71,6.77-66.55,17.6-98.36,30.55-35.74,14.55-67.63,20.8-106.07,15.82-28.15-3.64-55.87-8.74-84.3-4.37-7.16,1.1-14.26,4.06-21.37,4.85-12.62,1.41-22.6-4.24-32.6-10.73-12.78-8.29-24.9-17.32-40-20.77-19.59-4.46-37.5-1.25-48.8-21.43-4.59-8.2-7.68-19.27-16.44-24.24-9.42-5.34-20.58-2.35-29-9.74-.54-.47-4.36-5.39-5.63-6.22-.92-.6-2.21-.6-3.18-1-8.58-3.67-10.72-1.69-16.42-9.36-8.8-11.81-12.09-27.69-17-41.41-5.55-15.66-8.2-30.34-10.75-46.64-1.15-7.37-4.57-23.86-11.11-28.66-4.43-3.25-14.48-4.59-19.54-6.07q-14.06-4.11-28.26-7.7c-9.66-2.46-19.36-4.78-29.1-6.9-5.72-1.24-14.55-5-20.19-4.05-4.56.78-10.15,5.71-13.42,9.06-15.53,15.89-17.85,44.94-20,65.81-.94,9.31-5.91,14.87-8.64,23.62-5.94,19.07-14.12,25-29.4,36.21-8.7,6.38-12.34,16.26-18.49,24.73a68.51,68.51,0,0,1-22.21,20.17c-4,2.32-7.28,3.38-10.35,7-7.82,9.25-5.62,22.46-11.4,32.62-12.09,21.22-37.58,8.65-56.08,11.25-9.92,1.4-15,8.43-24.21,11.12-10.91,3.2-23,2.09-33.68,6.21-3.39,1.31-6.57,3.87-9.68,5.59-9.35,5.18-17.94,5.13-28.29,4.81-19.13-.58-38.11.69-57.19,2.05-41.15,2.95-82,8.27-122.85,14-79,11-158.21,24.36-238,27.24-147.86,5.32-296.15-12.7-443.63-20.6-142.43-7.62-283.8-3.35-426.09,4.18-158.52,8.38-317,18.44-475.39,28C481,396,324.73,398,167.45,386c-46-3.5-92-7.88-137.76-13.54-11-1.35-25.56-6.44-28.49,8.19-2.7,13.47,0,30.31,0,44s-.75,27.38,0,40.93a1.52,1.52,0,0,0,2.8.76c1.35-2.3,1-6.15,1.65-8.7.81-3,.43-3.65,1-3.2,3.52,2.57,3.11,20.53,3.42,23.7a1.54,1.54,0,0,0,1.5,1.5H3284.34c44.1,0,88.47,1.43,132.55,0,1.89-.06,3.8,0,5.69,0a1.54,1.54,0,0,0,1.5-1.5c.64-6.5-.24-16.94,3.15-22.7,1.42-2.41.3-1.45,1.3,2.2.71,2.58.3,6.39,1.66,8.7a1.51,1.51,0,0,0,2.79-.76c2-34.47,0-69.6,0-104.11V296.8c0-10.11,3.1-23.39-7.68-28.58-1.73-.83-3.26,1.76-1.52,2.59,8.26,4,6.2,13.86,6.2,21v157c0,3-1.83,13.72,0,16.15,2,2.6,2.87-10.19,0-12.81-2.63-2.39-2.31-2.07-4.85.19-6.34,5.66,1.5,21.2-4.28,24.37-1.59.88-6.2,0-8,0H26.41c-2.07,0-13.13,1.56-14.71,0-1-.94,1.1-35.84-8-23.18-2.42,3.36-2.13,16.61.53,9,3.27-9.35,0-26.28,0-36.11,0-12.78-1-26,0-38.76S13,373.4,24.49,374.85c27.08,3.41,54.23,6.32,81.41,8.91q140.94,13.42,282.74,14.64c116.93.8,233.5-8,350.14-15.09,197.25-12,395.06-27.8,592.71-31,113.41-1.84,226.7,5.45,339.78,13.16,99.73,6.8,199.9,15.18,300,12.7,109.7-2.71,217.67-25.62,326.5-37.43,27.38-3,55-5.44,82.53-6.33,17.83-.58,37.26,3.81,53.37-5.64,14.54-8.54,30.21-6.31,45.59-12.5,8-3.21,13.12-9.36,22.45-9.73,10.92-.44,21.77,2.93,32.7,1.28,12.13-1.83,20.68-8.95,24.37-20.63,3-9.57,2.64-19,10.27-26.41,6.42-6.24,15.08-8.8,21.63-15.41a97.83,97.83,0,0,0,13.81-17.89c6.75-11,13.68-16,24-23.13A48.53,48.53,0,0,0,2641,190.91c4.6-7.27,6.62-25.72,14.2-29.12a1.5,1.5,0,0,0,.74-1.29c1.41-22.15,3.8-85.62,37.85-82.91,19.61,1.57,40.49,9,59.42,14.2,8,2.2,18.28,3.55,25.56,7.56,13.56,7.45,12.63,26.66,14.59,39.62,2.27,15,8,29.12,12.92,43.39,4.32,12.59,7.68,27.53,17,37.64,5.37,5.85,14.14,8.77,20.28,13.15,8.63,6.15,18,5.3,27.7,8.93,14.29,5.33,15.87,20.57,24.27,31.54,11.77,15.34,29.46,12.23,46.42,16,17.95,4,30.86,16.21,46.48,24.92,16.93,9.45,25.81,6,43.92,2.61,36-6.8,70.73,3,106.54,5.48,41.39,2.89,74.5-13,112.51-26.88,52.84-19.26,116.16-37.24,172.83-24.81C3426,271.38,3426.85,268.49,3425,268.07Z" style="fill:#bdefea"/><path d="M2721.08,216.54c-6.2-.08-11.83-3.73-16.59-7.37l-.76,2.8c11.88.32,24,.86,35.68-1.84l-1.46-2.51c-4.58,4.09-10.4,8.83-16.87,8.92a1.5,1.5,0,0,0,0,3c7.32-.1,13.79-5.14,19-9.8,1.17-1.05-.08-2.83-1.46-2.51a76.83,76.83,0,0,1-17.49,1.9c-5.8,0-11.59,0-17.39-.16-1.63-.05-1.84,2-.75,2.79,5.2,4,11.35,7.7,18.1,7.78A1.5,1.5,0,0,0,2721.08,216.54Z" style="fill:#bdefea"/><path d="M2676.07,72.89c-1.65,9.49-3.39,19.07-7.24,27.9s-23,52.33-20,73.62" style="fill:none;stroke:#c981aa;stroke-linecap:round;stroke-miterlimit:10;stroke-width:9px"/><path d="M2689.39,154.08a2.68,2.68,0,0,0,2.71,3.93l20.38-2.67c5-.65,10.49-1.54,13.82-5.33,3.76-4.27,3.36-11.16.11-15.82-2.26-3.25-7.59-7.75-11.8-7.91-5-.2-8.25,4.5-11.33,7.74C2697.51,140.09,2693.33,146.76,2689.39,154.08Z" style="fill:#e0a57e"/><path d="M2695.78,194.6c3.26-18.89,43.66-28,54.73,2.61" style="fill:none;stroke:#6b495c;stroke-linecap:round;stroke-linejoin:round;stroke-width:4px"/><path d="M2688.59,113.13c0,4.14,3.48,3.94,7.62,3.94s7.38.2,7.38-3.94a7.5,7.5,0,0,0-15,0Z" style="fill:#6b495c"/><path d="M2734.59,120.13c0,4.14,3.53,4.32,7.67,4.32s7.33-.18,7.33-4.32a7.5,7.5,0,0,0-15,0Z" style="fill:#6b495c"/><path d="M2700.54,141.4a7.78,7.78,0,0,1,6.93,5" style="fill:none;stroke:#b77149;stroke-linecap:round;stroke-linejoin:round;stroke-width:3px"/><path d="M2706.86,133.54a10.62,10.62,0,0,1,10.83,6.33" style="fill:none;stroke:#b77149;stroke-linecap:round;stroke-linejoin:round;stroke-width:3px"/></g></g></svg>