<svg xmlns="http://www.w3.org/2000/svg" viewBox="0 0 3428.8 608.16"><g id="f951d140-72a6-41ae-abf9-7a5234d9a288" data-name="Layer 2"><g id="b0d9e7f4-5d75-4b2a-a276-d57b1073af21" data-name="Layer 1"><path d="M2775.9,189.65a72.46,72.46,0,0,1-114.57.6,180,180,0,1,0,114.57-.6Z" style="fill:#bdefea"/><path d="M2718.38,218a72.38,72.38,0,0,0,57.52-28.39,180.76,180.76,0,0,0-114.57.6A72.35,72.35,0,0,0,2718.38,218Z" style="fill:#86bab3"/><polygon points="2680.07 36.77 2803.89 68.63 2809.89 25.63 2733.9 16.27 2697.17 0 2680.07 36.77" style="fill:#f28fc3"/><path d="M2654.27,72.19,2809.84,112l-.85-8.11q-.39-3.67-.79-7.35-.78-7.17-1.57-14.32-.93-8.52-1.86-17L2681.12,33.63Z" style="fill:#c981aa"/><path d="M2653.9,72.67c-.45,1.77,6.9,5.35,19.29,9.8a72.61,72.61,0,0,1,11.16-7.67C2666.3,71.52,2654.45,70.53,2653.9,72.67Z" style="fill:#6b495c"/><path d="M2780.88,99.34a73,73,0,0,1,6.23,12.24c13.46,2.14,21.95,2.56,22.41.76C2810.08,110.16,2798.82,105.23,2780.88,99.34Z" style="fill:#6b495c"/><path d="M2673.37,72.89c-1.65,9.49-3.39,19.07-7.25,27.9s-10,17-18.65,21.31-19.76,4.27-27.29-1.74" style="fill:none;stroke:#c981aa;stroke-linecap:round;stroke-miterlimit:10;stroke-width:9px"/><path d="M2794.5,101.16c.24,10.91,8,20.1,15.89,27.62s16.74,14.91,20.37,25.2" style="fill:none;stroke:#c981aa;stroke-linecap:round;stroke-miterlimit:10;stroke-width:9px"/><path d="M2707.08,244.56l15.74,22.08" style="fill:none;stroke:#6b495c;stroke-linecap:round;stroke-linejoin:round;stroke-width:4px"/><path d="M2701.08,263.76,2728,244.84" style="fill:none;stroke:#6b495c;stroke-linecap:round;stroke-linejoin:round;stroke-width:4px"/><path d="M2685.79,149.09a2.68,2.68,0,0,0,2.07,4.3l20.55.54c5.05.13,10.6.1,14.48-3.13,4.37-3.63,5.05-10.49,2.57-15.61-1.73-3.55-6.29-8.83-10.43-9.65-4.88-1-8.85,3.17-12.39,5.89C2696,136.53,2690.82,142.47,2685.79,149.09Z" style="fill:#e0a57e"/><path d="M2687.81,172.68A82.71,82.71,0,0,0,2755.28,157" style="fill:none;stroke:#6b495c;stroke-linecap:round;stroke-linejoin:round;stroke-width:4px"/><circle cx="2579.51" cy="229.63" r="42.51" style="fill:#bdefea"/><circle cx="2853.61" cy="225.61" r="42.51" style="fill:#bdefea"/><path d="M2664.16,348.52l4.12,51.28c.7,8.63,1.28,17.83-2.89,25.42-4,7.34-11.75,11.75-19.09,15.8-6,3.32-13.58,6.62-19.35,2.88-5.36-3.48-5.86-11-5.8-17.38l.28-28c.08-8.42-1.87-19.84.25-27.93,1.83-7,10.59-8.3,17.07-11.1C2641.17,358.46,2664.27,349.9,2664.16,348.52Z" style="fill:#e0a57e"/><path d="M2768.3,350.52l-4.12,51.28c-.7,8.63-1.28,17.83,2.89,25.42,4,7.34,11.75,11.75,19.09,15.8,6,3.32,13.59,6.62,19.35,2.88,5.36-3.48,5.86-11,5.8-17.38l-.28-28c-.08-8.42,1.87-19.84-.25-27.93-1.83-7-10.59-8.3-17.07-11.1C2791.29,360.46,2768.19,351.9,2768.3,350.52Z" style="fill:#e0a57e"/><circle cx="2693.39" cy="113.13" r="7.5" style="fill:#6b495c"/><circle cx="2739.39" cy="120.13" r="7.5" style="fill:#6b495c"/><path d="M2705.57,287.72l16.93,21.19" style="fill:none;stroke:#6b495c;stroke-linecap:round;stroke-linejoin:round;stroke-width:4px"/><path d="M2700.63,307.22l25.82-20.36" style="fill:none;stroke:#6b495c;stroke-linecap:round;stroke-linejoin:round;stroke-width:4px"/><path d="M2621.24,378.4l43-10.68" style="fill:none;stroke:#b77149;stroke-linecap:round;stroke-linejoin:round;stroke-width:3px"/><path d="M2766.67,368.49a272.06,272.06,0,0,1,44.11,15.38" style="fill:none;stroke:#b77149;stroke-linecap:round;stroke-linejoin:round;stroke-width:3px"/><path d="M2626.58,376.63l1.07-11.72" style="fill:none;stroke:#b77149;stroke-linecap:round;stroke-linejoin:round;stroke-width:3px"/><path d="M2638.21,374.34l-.22-13.69" style="fill:none;stroke:#b77149;stroke-linecap:round;stroke-linejoin:round;stroke-width:3px"/><path d="M2650,371.71l-2.24-14.62" style="fill:none;stroke:#b77149;stroke-linecap:round;stroke-linejoin:round;stroke-width:3px"/><path d="M2660.12,368.46l-1.06-16.61" style="fill:none;stroke:#b77149;stroke-linecap:round;stroke-linejoin:round;stroke-width:3px"/><path d="M2664.86,367.17V348.93" style="fill:none;stroke:#b77149;stroke-linecap:round;stroke-linejoin:round;stroke-width:3px"/><path d="M2765,367.46l2.55-16.57" style="fill:none;stroke:#b77149;stroke-linecap:round;stroke-linejoin:round;stroke-width:3px"/><path d="M2775.63,370.75V354.46" style="fill:none;stroke:#b77149;stroke-linecap:round;stroke-linejoin:round;stroke-width:3px"/><path d="M2785.92,374.66l.56-16" style="fill:none;stroke:#b77149;stroke-linecap:round;stroke-linejoin:round;stroke-width:3px"/><path d="M2796.72,378.24l1.17-14" style="fill:none;stroke:#b77149;stroke-linecap:round;stroke-linejoin:round;stroke-width:3px"/><path d="M2767.59,350.3l43.58,18" style="fill:none;stroke:#b77149;stroke-linecap:round;stroke-linejoin:round;stroke-width:3px"/><path d="M2621.61,371.42a7.74,7.74,0,0,1,3-6.16,22.68,22.68,0,0,1,6.24-3.37l31.94-13.15" style="fill:none;stroke:#b77149;stroke-linecap:round;stroke-linejoin:round;stroke-width:3px"/><path d="M2629.89,399.42l-.27,19.41c0,3.21.09,6.85,2.49,9a5.79,5.79,0,0,0,7.38,0" style="fill:none;stroke:#b77149;stroke-linecap:round;stroke-linejoin:round;stroke-width:3px"/><path d="M2804.13,397.14l-1,27.25a16.06,16.06,0,0,1-1,6,5.45,5.45,0,0,1-4.66,3.46" style="fill:none;stroke:#b77149;stroke-linecap:round;stroke-linejoin:round;stroke-width:3px"/><path d="M2698.77,138.3a7.78,7.78,0,0,1,6.08,6" style="fill:none;stroke:#b77149;stroke-linecap:round;stroke-linejoin:round;stroke-width:3px"/><path d="M2706.24,131.51a10.62,10.62,0,0,1,9.72,7.94" style="fill:none;stroke:#b77149;stroke-linecap:round;stroke-linejoin:round;stroke-width:3px"/><path d="M2550.43,214.18a29.75,29.75,0,0,1,46.66-9" style="fill:none;stroke:#d9f4f1;stroke-linecap:round;stroke-linejoin:round;stroke-width:4px"/><path d="M2770.1,509.32c54.12-20,95.25-71.49,102.73-128.69" style="fill:none;stroke:#d9f4f1;stroke-linecap:round;stroke-linejoin:round;stroke-width:4px"/><path d="M3428.8,401.44s-68.54-26.25-216.37,37.1c-109.46,46.92-150.51-41.05-368.14,46.27-120.18,48.21-209.28,1.83-267.15-7.17-234.57-36.49-320.58,3.91-545.37,25.41-185.33,17.73-466-29.76-731.73-21.58-166.75,5.13-462.68,24.42-742.15,41.13C269.48,539.84,0,500.44,0,500.44V608.16H3428.8Z" style="fill:#bdefea"/></g></g></svg>