<svg xmlns="http://www.w3.org/2000/svg" viewBox="0 0 3431.8 610.3"><g id="b70231d3-e1c2-4b0b-85b4-76a99893bff9" data-name="Layer 2"><g id="f10c6557-17af-4054-9a3a-9daab7494998" data-name="Layer 1"><polygon points="2681.57 36.77 2805.39 68.63 2811.39 25.63 2735.4 16.27 2698.67 0 2681.57 36.77" style="fill:#f28fc3"/><path d="M2777.4,189.65a72.46,72.46,0,0,1-114.57.6,180,180,0,1,0,114.57-.6Z" style="fill:#bdefea"/><path d="M2719.88,218a72.38,72.38,0,0,0,57.52-28.39,180.76,180.76,0,0,0-114.57.6A72.35,72.35,0,0,0,2719.88,218Z" style="fill:#86bab3"/><path d="M2655.77,72.19,2811.34,112l-.85-8.11q-.39-3.67-.79-7.35-.78-7.17-1.57-14.32-.93-8.52-1.86-17L2682.62,33.63Z" style="fill:#c981aa"/><path d="M2655.4,72.67c-.45,1.77,6.9,5.35,19.29,9.8a72.61,72.61,0,0,1,11.16-7.67C2667.8,71.52,2655.94,70.53,2655.4,72.67Z" style="fill:#6b495c"/><path d="M2782.38,99.34a73,73,0,0,1,6.23,12.24c13.46,2.14,21.95,2.56,22.41.76C2811.58,110.16,2800.32,105.23,2782.38,99.34Z" style="fill:#6b495c"/><path d="M2674.87,72.89c-1.65,9.49-3.39,19.07-7.25,27.9s-23,52.33-20,73.62" style="fill:none;stroke:#c981aa;stroke-linecap:round;stroke-miterlimit:10;stroke-width:9px"/><path d="M2796,101.16c.24,10.91,4.92,22.54,11.08,31.54,11.3,16.51,2.61,23.9-1.73,36.06" style="fill:none;stroke:#c981aa;stroke-linecap:round;stroke-miterlimit:10;stroke-width:9px"/><path d="M2708.58,244.56l15.74,22.08" style="fill:none;stroke:#6b495c;stroke-linecap:round;stroke-linejoin:round;stroke-width:4px"/><path d="M2702.58,263.76l26.89-18.92" style="fill:none;stroke:#6b495c;stroke-linecap:round;stroke-linejoin:round;stroke-width:4px"/><path d="M2688.18,154.08a2.69,2.69,0,0,0,2.72,3.93l20.38-2.67c5-.65,10.48-1.54,13.82-5.33,3.75-4.27,3.36-11.16.11-15.82-2.26-3.25-7.59-7.75-11.8-7.91-5-.2-8.25,4.5-11.33,7.74C2696.31,140.09,2692.13,146.76,2688.18,154.08Z" style="fill:#e0a57e"/><path d="M2690.67,180.92c13-14.77,45.61-23,67.33-.87" style="fill:none;stroke:#6b495c;stroke-linecap:round;stroke-linejoin:round;stroke-width:4px"/><circle cx="2584.05" cy="265.69" r="42.51" style="fill:#bdefea"/><circle cx="2854.49" cy="274.31" r="42.51" style="fill:#bdefea"/><path d="M2687.39,113.13c0,4.14,3.48,3.94,7.62,3.94s7.38.2,7.38-3.94a7.5,7.5,0,0,0-15,0Z" style="fill:#6b495c"/><path d="M2733.39,120.13c0,4.14,3.53,4.32,7.67,4.32s7.33-.18,7.33-4.32a7.5,7.5,0,0,0-15,0Z" style="fill:#6b495c"/><path d="M2707.07,287.72,2724,308.91" style="fill:none;stroke:#6b495c;stroke-linecap:round;stroke-linejoin:round;stroke-width:4px"/><path d="M2702.13,307.22,2728,286.86" style="fill:none;stroke:#6b495c;stroke-linecap:round;stroke-linejoin:round;stroke-width:4px"/><path d="M2699.33,141.4a7.79,7.79,0,0,1,6.94,5" style="fill:none;stroke:#b77149;stroke-linecap:round;stroke-linejoin:round;stroke-width:3px"/><path d="M2705.65,133.54a10.62,10.62,0,0,1,10.84,6.33" style="fill:none;stroke:#b77149;stroke-linecap:round;stroke-linejoin:round;stroke-width:3px"/><path d="M2549.31,381.2c-2.53.15-5.38.4-6.88,1.62-1.29,1.05-1.14,2.47-.93,3.77A2.43,2.43,0,0,0,2542,388c.81.9,2.74,1.23,4.46,1.24a13.5,13.5,0,0,0,5.85-1.12c1.6-.8,2.55-2.1,2.11-3.32s-2.44-2.21-4.52-2.09" style="fill:#bdefea"/><path d="M2549.31,379.7c-2.6.15-5.68.26-7.81,2a4.49,4.49,0,0,0-1.64,3.55A5.73,5.73,0,0,0,2541,389a5.81,5.81,0,0,0,3.45,1.51,16.55,16.55,0,0,0,4.39,0c2.66-.33,6.16-1.29,7.09-4.18,1.12-3.48-3.22-5.32-6-5.21a1.54,1.54,0,0,0-1.5,1.5,1.5,1.5,0,0,0,1.5,1.5,4.55,4.55,0,0,1,2.53.56,1.28,1.28,0,0,1,.33.24s.3.32.17.17c.14.16.09.13.05,0s.07.25,0,.11a.69.69,0,0,1,0,.24c-.09.24.09-.16,0,.09l-.13.22s-.23.24-.31.32a4.37,4.37,0,0,1-1.16.73,9.73,9.73,0,0,1-2.59.69,14.81,14.81,0,0,1-3.26.1,4.93,4.93,0,0,1-2.29-.6c.14.09-.14-.13-.17-.17s-.07-.29-.08-.35a4.82,4.82,0,0,1-.14-1,1.66,1.66,0,0,1,.6-1.66A6.5,6.5,0,0,1,2546,383a28.66,28.66,0,0,1,3.33-.33,1.54,1.54,0,0,0,1.5-1.5,1.51,1.51,0,0,0-1.5-1.5Z" style="fill:#bdefea"/><path d="M2897,376.63c1.9,2.68,5.5,4.39,6.95,7.38,2.13,4.39-1.32,9-5.94,7.34a6.82,6.82,0,0,1-3-10.63" style="fill:#bdefea"/><path d="M3213.93,438.54c-80.88,34.67-124.42-4.3-229.45,8.21a13.1,13.1,0,0,0-5-10.39c-4.26-3.17-9.71-3.09-15.2-3,.25-.66.47-1.34.67-2,3.07-10.94-3-24.34-14-27.2-3.55-.92-7.95-1.16-9.71-4.38-1.43-2.63-.26-5.83,0-8.82A14.73,14.73,0,0,0,2929,375.56c-3.24-.44-7.26-.08-9-2.84-.88-1.39-.84-3.14-.83-4.78,0-5.26-.79-11-4.71-14.54-2.2-2-5.12-2.95-7.34-4.87-4.8-4.16-5.16-11.29-6.44-17.51-1.12-5.39-4.45-11.4-9.43-12.52,3.31-5.86,5.79-11.92,3.63-19-1.37-4.47-3.95-8.46-6.67-12.26a9.77,9.77,0,0,1-2.13-4.37c-.16-1.54.44-3,.74-4.57,1.25-6.4-3.53-10.94-3.84-16.9-.25-4.68-8.83,16.47-6.42,12.87,3.82-5.7-5.89-1.41-5.22-8.25l-2.17-7.82c-1.2-3-4.63.59-7.82.87s-15.19,11.62-17.81,13.47c-9.71,6.88,11.16-26.12,6.92-15-1.66,4.35-2.83,9-2.39,13.63a26.18,26.18,0,0,0,6.46,14.13,36.3,36.3,0,0,0,19.7,11.86c3.32.73-.46,43.4,2.76,42.29,4.47-1.55,8.67-11.51,10.86-15.22.37-.64.75-1.27,1.13-1.91l.25,6.91c-3.81,7.58-3.58,16.48-3.27,25a268.08,268.08,0,0,0,2.07,28.48,136.39,136.39,0,0,0,5.14,22.22h0l-3.9,8.12a7,7,0,0,0-3.83,1.46,18.71,18.71,0,0,0-4.05,4.91A278,278,0,0,1,2860.69,447c-5.33,6.25-11,12.3-15.15,19.37-3.71,6.28-6.2,13.55-5.77,20.78-100.9,38.17-179.48,10.11-235.7-4.07,1.19-18.25,1.38-36.6-3.37-54.16-4.45-16.47-14.16-32.31-28-41.78.56-1.09,1.11-2.19,1.66-3.29,3.13-6.25,6.16-12.73,6.89-19.68s-1.2-14.55-6.58-19c-6.59-5.49-16.15-4.92-24.69-4.06v-2.62a19.18,19.18,0,0,0-14.24,17.73c-.05,2.62.43,5.39-.69,7.76-1.32,2.77-4.42,4.18-6.4,6.52-5.29,6.24-1.68,17.6-8.21,22.52-3.71,2.8-8.87,2-13.48,2.54a21.88,21.88,0,0,0-18.06,15.67c-1,3.62-1.12,7.76-3.71,10.47-2,2.11-5.05,2.83-7.92,3.3-6.58,1.06-13.32,1.32-19.67,3.31s-12.5,6.17-14.69,12.45c-1.39,4-1.18,8.65-3.76,12-3.79,4.87-11.59,4.45-16.14,8.63a9.87,9.87,0,0,0-1.48,1.76c-131.21-2.33-221.6,24-388.28,39.94-185.33,17.73-466-29.76-731.73-21.58-166.75,5.13-462.68,24.42-742.15,41.13C271,539.84,1.5,500.44,1.5,500.44V608.16H3430.3V401.44S3361.76,375.19,3213.93,438.54Z" style="fill:#bdefea"/><path d="M3213.53,437.1c-45.15,18.71-87.78,14.12-134.92,8.82-27.59-3.11-54.32-1.05-81.81-1.93a12.67,12.67,0,0,1-11.49-1.6c-.56-1.33-1.15-2.63-1.79-3.92-4.88-3.79-1.27-3.12-7.88-5.61,1.94.73-9.62-1.58-9.23-1.12,1.13,1.37.53-10.44.68-9.05a24.41,24.41,0,0,0-8.12-15.91c-3.36-2.81-8.3-2.58-11.32-4.9-12.44-9.57-1.72-7.95-5.26-15.6s-6.81-7.69-12.95-12.17c-9.08-6.6-8.16-12.22-12.69-20.27-3.47-6.15-8.84-4.86-12.69-13.69-1.91-4.38-1.25-9.54-3.3-14,.53,1.13-5.75-9-5.3-7.31-1.68-6.35.85-2.69,1.19-9.42.6-12.25-6.7-19.12-8.35-30.72-.92-6.41-1.56-12.6-4.3-18.73a1.52,1.52,0,0,0-2.36-.31c-3.46,2.84-6.18,10.18-6.91,14.6a1.51,1.51,0,0,0,2.51,1.46c3.4-3.18,1-3.59,0-6.05-.19-.46-3.71-3-4.37-4-1.09-1.69-.46-5.17-1.83-6.59-1.71-1.77.26-2.35-3.24-3.43-5.34-1.64-14.49,6.88-17.92,9.71-4.34,3.59-8.64,9.39-4.68.9.64-1.37,1.71-2.59,2.3-4,.72-1.18,1.48-2.34,2.27-3.47q3.48-3-.68-1.63c-3.91,10.53-2.85,20.43,4.46,29.23,4.61,5.54,10.15,6.77,15.51,10.77,6.57,4.9,2.65-1,5,5.26,1,2.65.2,7.15.2,10,0,6.2-5.17,32.95,6.48,26.32,4.22-2.41,6-9.86,8.45-13.7l-1.62-1.59.17,4.75a50.74,50.74,0,0,0-2.82,10.5c-2.88,18.31,1.16,37.56,3.82,55.63,1.43,9.75,2,12.26-4.32,19.13-4.16,4.49-7.24,9.71-10.81,14.69-12.65,17.62-26,30.76-34.5,50.53-7,16.34-37.54,19.16-54.12,22.05a287.74,287.74,0,0,1-64.81,3.71c-34.52-1.86-67.9-10.19-101.17-19-2.32-.61-7.24-.95-9.18-2.42-5.65-4.26-3.54-11.43-3.53-18.17a147.2,147.2,0,0,0-2.73-30.43,88.36,88.36,0,0,0-9.34-25.33c-4.19-7.4-12.65-13-16.4-20-5.13-9.55,8.9-24.76,3.19-37.73a19.74,19.74,0,0,0-9.82-10.14c-3.86-1.87-19.68-2-19.68-2.77a1.51,1.51,0,0,0-1.9-1.45c-5.15,2.06-9.34,4.26-12.33,9.21-3.54,5.84-1,3.27-2.95,9.57-3.57,11.44-3.59,6.91-6.71,13.62-2.41,5.17-2.3,11.79-4.74,16.54-5,9.78-20.2,6.84-28,13.43-4.08,3.45-4.86,7.09-7.39,11.42-5.79,9.91-8.79,12.1-20.1,14-3.4.57-6.87.92-10.15,2.07-17.3,6-17.69,27.31-34.94,33.21-16.29,5.56-39.6,1.53-56.92,2.28-20.91.92-41.78,2.56-62.59,4.72-37.54,3.89-74.89,9.44-112.24,14.84-91,13.17-181.66,24.71-273.78,23.51C1822,504.17,1727.47,496.24,1633,490c-106-7-212.36-12.91-318.68-10.34-79.17,1.91-158.32,6.35-237.39,10.67-99.18,5.42-198.33,11.44-297.47,17.47-108.82,6.62-217.8,15.55-326.83,17.34C302.69,527.56,150.45,520.63,1.9,499A1.52,1.52,0,0,0,0,500.44V608.16a1.52,1.52,0,0,0,1.5,1.5H3291.12c44.36,0,89,1.44,133.35,0,1.94-.06,3.89,0,5.83,0a1.52,1.52,0,0,0,1.5-1.5V401.44a1.54,1.54,0,0,0-1.1-1.44c-16.76-6.29-37.17-6-54.66-5.2-56.38,2.44-111.32,20.63-162.86,42.45-1.78.75-.25,3.33,1.51,2.59,61.48-26,139-54,207.14-39.12,1.58.34,8.25,2.46,7.5,1.48-.44-.59-.53,10.36-.53,12.42v160.6c0,8.84-.48,17.82,0,26.64.19,3.49-1.39,6.45,1.39,4.8-2.86,1.7-11.94,0-15.13,0H8.51c-1.52,0-4.9.67-6.3,0-1.82-.86,1.57,2.33.79,1-2.84-5,0-20.4,0-25.91,0-25.39,2.42-52.05,0-77.32-.4-4.16-3.21-3.18,2-1.95,5.83,1.38,12.2,1.64,18.12,2.39,179.52,22.65,362.1,29.65,542.71,18.88,215.09-12.82,430.13-27.47,645.39-37.22,100.74-4.56,201.09-5.43,301.86-.58,109.36,5.25,218.45,15.08,327.82,20.12a1613.83,1613.83,0,0,0,291-12.88c89.34-11.94,178.32-28.2,268.74-28.67,14.15-.07,27.25,1.21,38.27-9.52,1.79-1.74,2.13-3.53,3.55-5.54,5.58-7.95,10.1-17.54,20.41-20.89,7.13-2.32,17.35.06,23.28-5.67,6.67-6.45,4.61-16.89,13.69-23.33,6.77-4.8,16.94-.48,23-6.94,2-2.14,1.83-2.56,3-5.83,2.4-6.8,3.79-11.53,7.42-18.32.81-1.52,2.46-2.57,3.33-4.08,3-5.3,12-23.37,12-23.27a1.51,1.51,0,0,0,1.5,1.5c14-1.17,28.07,4,29.13,19.94.58,8.74-3.89,16.33-7.71,23.85a1.55,1.55,0,0,0,.54,2.05c30.18,22.73,32.63,59.88,30.6,94.65a1.52,1.52,0,0,0,1.1,1.45c33.59,8.56,66.87,18.21,101.49,21.72,46.16,4.67,91.5-1.71,135-17.65a1.58,1.58,0,0,0,1.11-1.45c.86-23.27,22.07-39.64,34.91-57.5,4.23-5.88,9.79-10,14-15.43,1.48-1.9,4.1-6.48,4.44-8.9.46-3.32-2.27-8.49-3-11.8-2.53-11-3.4-22.3-3.9-33.58-.58-13.12,3.26-24.86,2.8-37.58a1.51,1.51,0,0,0-2.79-.76c-1.47,2.47-9,17-10,16.49s-.55-9.66-.56-10.91c-.06-7.84,2-18.21-.16-25.79-.68-2.38-.5-3.74-2.12-5.56-2-2.26-9.42-3.68-12.27-5.65-7.7-5.35-9.72-9.45-10.93-18.82-1-8,.24-9.55.92-16a1.51,1.51,0,0,0-1.1-1.44c-4.09-1.27-20.38,25.52-6.12,19.14,6.4-2.87,16.15-18.6,23.14-11.88,2.65,2.55,1.08,7.3,4.23,10.13,4.41,4,4,2,6.5-.91,3.38-3.93,1.49-9.59,4.07-2.32,1.77,5,.08,10.42,1.47,15.38,4,14.33,15.3,14.53,5.24,34.25a1.54,1.54,0,0,0,.54,2.06c10.18,5,9.73,23.14,17.71,31.23,4.42,4.48,7.27,7.22,9.06,13.14.22.71.36,5.41.88,6.56,1.61,3.54,1.13,1.84,3.5,5.15.59.83,2.81.23,3.58.81,1.09.82,13.16,16.93,13.92,18.41.69,1.33-.37,4.25.79,5.43,1.62,1.65,3.71,2.3,5.15,3.64,4.34,4.05,5.47,1.45,11.84,8.17,6.08,6.42,8.87,11.6,5.91,20.63a1.51,1.51,0,0,0,1.44,1.9L2983,447.15a1.49,1.49,0,0,0,1.44,1.1c42.62-4.72,83.5-.14,125.82,4.43,36.34,3.92,70,1.42,104-12.69C3216.09,439.26,3215.32,436.36,3213.53,437.1Z" style="fill:#bdefea"/><path d="M2556.88,272.38c.47,5-3.48,9.54-3.71,14.56a13,13,0,0,0,19.23,12c4.73-2.59,7.35-7.78,9.45-12.76,3.92-9.33,7-19.23,6.79-29.35a7.76,7.76,0,0,0-.91-4.09,8.26,8.26,0,0,0-3.67-2.67,95.28,95.28,0,0,0-25.58-7.64l-11.25,10.72C2550.88,268.5,2556.71,270.58,2556.88,272.38Z" style="fill:#bdefea"/><path d="M2555.38,272.38c.24,3.36-1.43,6.39-2.56,9.45a15.12,15.12,0,0,0-.67,9.37,14.57,14.57,0,0,0,14.22,10.8c6.9-.11,11.76-5,14.77-10.74a86.8,86.8,0,0,0,7.53-20.85,58,58,0,0,0,1.47-11.51c.08-3.43-.07-6.78-3.12-8.92a25.75,25.75,0,0,0-4.95-2.41q-2.62-1.12-5.3-2.08a93.48,93.48,0,0,0-11.08-3.22c-2-.45-3.92-.82-5.9-1.14-1-.16-1.74-.31-2.53.39-1,.88-1.91,1.82-2.86,2.73l-7.76,7.4a3.28,3.28,0,0,0-.7.74c-.44.77,0,1.74.18,2.52s.49,1.81.77,2.7a44,44,0,0,0,3.26,7.95,30.19,30.19,0,0,0,3.1,4.58c.39.47.79.92,1.2,1.37.17.18.34.36.5.55s.44.52.31.34.11.18.16.26-.09-.2-.05-.13.08.45,0-.15c.23,1.89,3.24,1.91,3,0s-2.41-3.54-3.55-5.05c-3.2-4.27-4.91-9.45-6.15-14.58l-.39,1.46,11.25-10.71-1.46.38a94.15,94.15,0,0,1,24.59,7.2c1.52.69,3.46,1.4,4.11,3.1s.41,4,.33,5.87a58.84,58.84,0,0,1-2.11,12.69,101.61,101.61,0,0,1-4.16,12,36.82,36.82,0,0,1-5,9.33,12.49,12.49,0,0,1-9.06,4.94,11.46,11.46,0,0,1-11.56-14.88c1.18-3.9,3.47-7.51,3.17-11.73C2558.24,270.46,2555.24,270.45,2555.38,272.38Z" style="fill:#bdefea"/><path d="M2647.06,474.86a6.11,6.11,0,0,0-3.26.16c-1.93.44-3.78,1.15-5.72,1.5a41.59,41.59,0,0,1-5.89.53c-14.39.49-27.26-2.22-41.51-6.86a128.92,128.92,0,0,1-26.35-12.14,68.69,68.69,0,0,0-17.62-7.78c-2.5-.67-14.6-3.8-14.38,1.59.08,2,1.86,3.68,3.79,4.36a23.18,23.18,0,0,0,6.07.79c8.85.65,17,5.07,24.35,10s14.36,10.61,22.46,14.25c16.63,7.49,38.71,5.73,53.13.52,2-.74,5.57-2.24,6-4.75a2.32,2.32,0,0,0-.1-1.25A1.67,1.67,0,0,0,2647.06,474.86Z" style="fill:#86bab3"/><path d="M2774,484.1a4,4,0,0,0,1.57,2c1.15.79,5,.3,6.43.38,5,.28,9.92.4,14.92.27,8.51-.23,17-.37,25.5-1.37,3.43-.4,24.67-2.8,25.11-7.05.34-3.27-13.16.65-15,1-8,1.66-16.16,3.28-24.37,3.46a192.82,192.82,0,0,1-28.62-1.89,8.17,8.17,0,0,0-3.65.08C2774,481.61,2773.59,482.89,2774,484.1Z" style="fill:#86bab3"/><path d="M2894.45,319l-.61-1.2a27.09,27.09,0,0,0-9.89,5.8,11.32,11.32,0,0,1-3.65,2.72c-2.12.76-5,.18-6.2,2.1-1,1.73.48,4,2.37,4.76s4,.51,6,.84c2.15.35,4.19,1.36,6.37,1.4a7.5,7.5,0,0,0,6.47-3.56C2897.59,328,2896.05,323.11,2894.45,319Z" style="fill:#86bab3"/><path d="M2530.5,388c3.21.9,5,4.28,6,7.46s1.67,6.65,4,9.05,5.95,3.36,7.64,6.21a6.56,6.56,0,0,1-1.36,8,7.35,7.35,0,0,1-8.19.81,39.24,39.24,0,0,1-3.81-2.88c-3.57-2.57-8.24-3.05-12.63-2.8-2.47.14-5.23.39-7.13-1.18s-2.17-4.25-1.62-6.56c1.18-4.94,5.48-8.43,9.51-11.52l7.76-6" style="fill:#86bab3"/><path d="M2629.09,209c-4.84,9.25-16.29,12.7-26.67,13.86-7.06.78-22.42-1-27.73,3.69-6.61,5.87.74,18.31-4.13,25.68a21.86,21.86,0,0,1-17.82,9.63c-2,0-4-.25-5.88.49-3.25,1.3-4.62,5.18-4.9,8.66a26.81,26.81,0,0,0,5.12,18,3.78,3.78,0,0,1,.82,1.54c.19,1.11-.68,2.08-1.44,2.91a36.92,36.92,0,0,0-9.73,23.39c-.31,7.64,1.54,16.18-3.06,22.29-2.25,3-5.87,5.06-6.92,8.63-1.41,4.84,2.57,9.43,6.22,12.91a7.45,7.45,0,0,0,3.8,2.36c2.46.36,4.53-1.72,6.13-3.62,8-9.51,15.85-19.31,21.76-30.27,5-9.21,8.54-19.15,13.67-28.28,5.51-9.81,12.73-18.52,19.91-27.18a31.77,31.77,0,0,1,5-5.15,41.9,41.9,0,0,1,6.85-3.87c14.95-7.59,27.56-22.1,28-38.86a11,11,0,0,0-.6-4.46,6.86,6.86,0,0,0-10.09-2.69" style="fill:#bdefea"/><path d="M2627.79,208.23c-5.92,11.06-20.67,13.29-32,13.35-5.73,0-11.8-.22-17.35,1.42a11.16,11.16,0,0,0-6.13,4,13.1,13.1,0,0,0-2,7.82c0,5.39,2.13,12-1.1,16.84a20.07,20.07,0,0,1-7.93,6.74,22.31,22.31,0,0,1-10.41,1.95c-3.55-.05-6.62,1-8.49,4.18-1.73,2.91-2.08,6.51-1.93,9.82a28.93,28.93,0,0,0,2.73,11A33,33,0,0,0,2546,290c.56.8.4,1.2-.21,1.92s-1.27,1.4-1.86,2.13a38.84,38.84,0,0,0-8.53,20.5,96.1,96.1,0,0,0-.06,11c.05,3.41,0,7-1.42,10.17s-4.27,5.11-6.42,7.73a9.59,9.59,0,0,0-2,9.52c1.21,3.44,3.79,6.25,6.39,8.72a9.1,9.1,0,0,0,4.47,2.75,6.24,6.24,0,0,0,4.69-1.23,21.64,21.64,0,0,0,3.77-3.82q2.05-2.45,4.07-4.92c2.58-3.16,5.09-6.37,7.5-9.67a132.54,132.54,0,0,0,12.87-21.55c3.58-7.58,6.71-15.39,10.91-22.66a157.14,157.14,0,0,1,14.61-20.43c2.59-3.19,5.09-6.64,8.1-9.45,2.82-2.65,6.54-4,9.88-5.84a58.38,58.38,0,0,0,16-13,45,45,0,0,0,9.51-17.54c1.52-5.71,3.09-14.82-3.67-17.71a8.2,8.2,0,0,0-8,.69c-1.54,1.14-.05,3.74,1.51,2.59a5.46,5.46,0,0,1,6.84.41c2.36,2.18,1.69,6.43,1.27,9.29a39.65,39.65,0,0,1-7.47,17.53,53.5,53.5,0,0,1-14.41,13.32c-3,1.91-6.24,3.33-9.33,5.07-3.51,2-6,4.87-8.55,7.94-5.07,6.12-10.14,12.28-14.6,18.87a139.71,139.71,0,0,0-11.42,21.21c-3.32,7.35-6.66,14.65-11,21.48a187.63,187.63,0,0,1-14.26,19.27c-1.23,1.49-2.45,3-3.73,4.45-1,1.13-2.34,2.69-4,2.79s-3-1.48-4.05-2.52a26.84,26.84,0,0,1-3.54-4.06c-2-2.88-2.74-6.14-.51-9.11,1.91-2.55,4.64-4.34,6.31-7.11,3.62-6,2.47-13.35,2.48-20a36.06,36.06,0,0,1,6.24-20.43,42.68,42.68,0,0,1,3.35-4.14c1.08-1.23,2-2.73,1.48-4.43s-1.88-2.92-2.69-4.35a25.54,25.54,0,0,1-2.16-5.18,23.44,23.44,0,0,1-.81-10.39c.51-3,2-6.1,5.3-6.5,1.78-.21,3.59.06,5.37-.09a23.48,23.48,0,0,0,4.91-.91,23.88,23.88,0,0,0,8.79-4.92,16.66,16.66,0,0,0,5.27-7.55,23.51,23.51,0,0,0,.47-8.28c-.34-4.46-1.89-11.37,2.54-14.4a15.66,15.66,0,0,1,6.72-2.1,69.9,69.9,0,0,1,8.44-.5c5.46-.07,10.78,0,16.18-1,6.15-1.13,12.29-3.21,17.22-7.15a21.82,21.82,0,0,0,5.57-6.7c.91-1.7-1.68-3.22-2.59-1.51Z" style="fill:#bdefea"/><path d="M2820.62,216.05c6.93,6.51,19,3.95,26.32,10,2.38,1.95,4.12,4.7,6.82,6.17s5.93,1.41,9,1.87a25.83,25.83,0,0,1,15.65,8.74c3.5,4.13,5.73,9.41,10.06,12.67,3.24,2.44,7.53,3.63,9.91,6.92a16.61,16.61,0,0,1,2.34,6.35c1.55,7.31,2.27,16-3,21.24-1.9,1.88-4.39,3.09-6.23,5-3.67,3.87-4.22,10-8.05,13.73s-9.89,3.93-14.73,1.93-8.66-5.87-12.09-9.84c-9.38-10.88-16.91-23.22-24.38-35.49-3.83-6.28-7.7-12.68-9.49-19.8s-1.2-15.23,3.3-21.05" style="fill:#bdefea"/><path d="M2819.56,217.11c5.69,5.22,13.68,5,20.66,7.15a18.55,18.55,0,0,1,4.73,2.15,26.67,26.67,0,0,1,4.35,4.08,14.52,14.52,0,0,0,5,3.59,25,25,0,0,0,6.54,1.24,25.52,25.52,0,0,1,11.76,4.26c3.6,2.47,6,5.9,8.41,9.48s4.84,6.74,8.52,8.93c3.46,2.06,7.34,3.52,8.78,7.63a38.47,38.47,0,0,1,2,12.27c0,3.7-.68,7.66-3.23,10.5a40.58,40.58,0,0,1-5.16,4.15,15.43,15.43,0,0,0-3.9,4.64c-1.86,3.34-2.76,7.41-5.47,10.23s-6.86,3.45-10.53,2.71c-4.27-.87-7.85-3.53-10.89-6.54-6.75-6.68-12.28-14.74-17.47-22.66-2.68-4.09-5.26-8.26-7.82-12.43s-5-8.1-7.27-12.3c-4.11-7.73-7.06-16.79-4.21-25.47a18.76,18.76,0,0,1,2.91-5.48c1.16-1.54-1.44-3-2.59-1.51-5.53,7.3-5.33,17.32-2.42,25.63a74.21,74.21,0,0,0,6.62,13.44c2.61,4.39,5.29,8.74,8,13.06a215.16,215.16,0,0,0,17.72,25c5.61,6.65,12.89,13.66,22.35,12.41a13.17,13.17,0,0,0,9.8-6.45c2.06-3.46,2.91-7.75,5.73-10.72,1.6-1.69,3.69-2.82,5.45-4.32a14.29,14.29,0,0,0,3.64-4.8,23.9,23.9,0,0,0,1.58-12.27,58.05,58.05,0,0,0-1-6.16,18.77,18.77,0,0,0-2.29-6.53c-2.36-3.62-6.49-5-9.93-7.28-3.7-2.49-5.84-6.58-8.35-10.14a28.87,28.87,0,0,0-9.68-8.94,28.06,28.06,0,0,0-6.07-2.45,53.5,53.5,0,0,0-6.9-1.07,11.2,11.2,0,0,1-6.29-2.54c-1.58-1.41-2.88-3.12-4.51-4.48-6.19-5.2-14.64-4.53-21.84-7.29a14.45,14.45,0,0,1-4.63-2.81c-1.42-1.3-3.55.82-2.12,2.12Z" style="fill:#bdefea"/></g></g></svg>