<svg xmlns="http://www.w3.org/2000/svg" viewBox="0 0 3428.8 608.16"><g id="b6adf80a-2eff-4104-a636-9985eb88d10b" data-name="Layer 2"><g id="a3fd8f34-e351-4742-8865-4047b808ecab" data-name="Layer 1"><path d="M2775.9,189.65a72.46,72.46,0,0,1-114.57.6,180,180,0,1,0,114.57-.6Z" style="fill:#bdefea"/><path d="M2718.38,218a72.38,72.38,0,0,0,57.52-28.39,180.76,180.76,0,0,0-114.57.6A72.35,72.35,0,0,0,2718.38,218Z" style="fill:#86bab3"/><polygon points="2680.07 36.77 2803.89 68.63 2809.89 25.63 2733.9 16.27 2697.17 0 2680.07 36.77" style="fill:#f28fc3"/><path d="M2654.27,72.19,2809.84,112l-.85-8.11q-.39-3.67-.79-7.35-.78-7.17-1.57-14.32-.93-8.52-1.86-17L2681.12,33.63Z" style="fill:#c981aa"/><path d="M2653.9,72.67c-.45,1.77,6.9,5.35,19.29,9.8a72.61,72.61,0,0,1,11.16-7.67C2666.3,71.52,2654.45,70.53,2653.9,72.67Z" style="fill:#6b495c"/><path d="M2780.88,99.34a73,73,0,0,1,6.23,12.24c13.46,2.14,21.95,2.56,22.41.76C2810.08,110.16,2798.82,105.23,2780.88,99.34Z" style="fill:#6b495c"/><path d="M2673.37,72.89c-1.65,9.49-3.39,19.07-7.25,27.9s-10,17-18.65,21.31-19.76,4.27-27.29-1.74" style="fill:none;stroke:#c981aa;stroke-linecap:round;stroke-miterlimit:10;stroke-width:9px"/><path d="M2794.5,101.16c.24,10.91,8,20.1,15.89,27.62s16.74,14.91,20.37,25.2" style="fill:none;stroke:#c981aa;stroke-linecap:round;stroke-miterlimit:10;stroke-width:9px"/><path d="M2707.08,244.56l15.74,22.08" style="fill:none;stroke:#6b495c;stroke-linecap:round;stroke-linejoin:round;stroke-width:4px"/><path d="M2701.08,263.76,2728,244.84" style="fill:none;stroke:#6b495c;stroke-linecap:round;stroke-linejoin:round;stroke-width:4px"/><path d="M2685.79,149.09a2.68,2.68,0,0,0,2.07,4.3l20.55.54c5.05.13,10.6.1,14.48-3.13,4.37-3.63,5.05-10.49,2.57-15.61-1.73-3.55-6.29-8.83-10.43-9.65-4.88-1-8.85,3.17-12.39,5.89C2696,136.53,2690.82,142.47,2685.79,149.09Z" style="fill:#e0a57e"/><path d="M2687.81,172.68c19.6.33,42.08-7.49,68.47-2.6" style="fill:none;stroke:#6b495c;stroke-linecap:round;stroke-linejoin:round;stroke-width:4px"/><circle cx="2579.51" cy="229.63" r="42.51" style="fill:#bdefea"/><circle cx="2853.61" cy="225.61" r="42.51" style="fill:#bdefea"/><path d="M2664.16,348.52l4.12,51.28c.7,8.63,1.28,17.83-2.89,25.42-4,7.34-11.75,11.75-19.09,15.8-6,3.32-13.58,6.62-19.35,2.88-5.36-3.48-5.86-11-5.8-17.38l.28-28c.08-8.42-1.87-19.84.25-27.93,1.83-7,10.59-8.3,17.07-11.1C2641.17,358.46,2664.27,349.9,2664.16,348.52Z" style="fill:#e0a57e"/><path d="M2768.3,350.52l-4.12,51.28c-.7,8.63-1.28,17.83,2.89,25.42,4,7.34,11.75,11.75,19.09,15.8,6,3.32,13.59,6.62,19.35,2.88,5.36-3.48,5.86-11,5.8-17.38l-.28-28c-.08-8.42,1.87-19.84-.25-27.93-1.83-7-10.59-8.3-17.07-11.1C2791.29,360.46,2768.19,351.9,2768.3,350.52Z" style="fill:#e0a57e"/><circle cx="2693.39" cy="113.13" r="7.5" style="fill:#6b495c"/><circle cx="2739.39" cy="120.13" r="7.5" style="fill:#6b495c"/><path d="M2705.57,287.72l16.93,21.19" style="fill:none;stroke:#6b495c;stroke-linecap:round;stroke-linejoin:round;stroke-width:4px"/><path d="M2700.63,307.22l25.82-20.36" style="fill:none;stroke:#6b495c;stroke-linecap:round;stroke-linejoin:round;stroke-width:4px"/><path d="M2621.24,378.4l43-10.68" style="fill:none;stroke:#b77149;stroke-linecap:round;stroke-linejoin:round;stroke-width:3px"/><path d="M2766.67,368.49a272.06,272.06,0,0,1,44.11,15.38" style="fill:none;stroke:#b77149;stroke-linecap:round;stroke-linejoin:round;stroke-width:3px"/><path d="M2626.58,376.63l1.07-11.72" style="fill:none;stroke:#b77149;stroke-linecap:round;stroke-linejoin:round;stroke-width:3px"/><path d="M2638.21,374.34l-.22-13.69" style="fill:none;stroke:#b77149;stroke-linecap:round;stroke-linejoin:round;stroke-width:3px"/><path d="M2650,371.71l-2.24-14.62" style="fill:none;stroke:#b77149;stroke-linecap:round;stroke-linejoin:round;stroke-width:3px"/><path d="M2660.12,368.46l-1.06-16.61" style="fill:none;stroke:#b77149;stroke-linecap:round;stroke-linejoin:round;stroke-width:3px"/><path d="M2664.86,367.17V348.93" style="fill:none;stroke:#b77149;stroke-linecap:round;stroke-linejoin:round;stroke-width:3px"/><path d="M2765,367.46l2.55-16.57" style="fill:none;stroke:#b77149;stroke-linecap:round;stroke-linejoin:round;stroke-width:3px"/><path d="M2775.63,370.75V354.46" style="fill:none;stroke:#b77149;stroke-linecap:round;stroke-linejoin:round;stroke-width:3px"/><path d="M2785.92,374.66l.56-16" style="fill:none;stroke:#b77149;stroke-linecap:round;stroke-linejoin:round;stroke-width:3px"/><path d="M2796.72,378.24l1.17-14" style="fill:none;stroke:#b77149;stroke-linecap:round;stroke-linejoin:round;stroke-width:3px"/><path d="M2767.59,350.3l43.58,18" style="fill:none;stroke:#b77149;stroke-linecap:round;stroke-linejoin:round;stroke-width:3px"/><path d="M2621.61,371.42a7.74,7.74,0,0,1,3-6.16,22.68,22.68,0,0,1,6.24-3.37l31.94-13.15" style="fill:none;stroke:#b77149;stroke-linecap:round;stroke-linejoin:round;stroke-width:3px"/><path d="M2629.89,399.42l-.27,19.41c0,3.21.09,6.85,2.49,9a5.79,5.79,0,0,0,7.38,0" style="fill:none;stroke:#b77149;stroke-linecap:round;stroke-linejoin:round;stroke-width:3px"/><path d="M2804.13,397.14l-1,27.25a16.06,16.06,0,0,1-1,6,5.45,5.45,0,0,1-4.66,3.46" style="fill:none;stroke:#b77149;stroke-linecap:round;stroke-linejoin:round;stroke-width:3px"/><path d="M2698.77,138.3a7.78,7.78,0,0,1,6.08,6" style="fill:none;stroke:#b77149;stroke-linecap:round;stroke-linejoin:round;stroke-width:3px"/><path d="M2706.24,131.51a10.62,10.62,0,0,1,9.72,7.94" style="fill:none;stroke:#b77149;stroke-linecap:round;stroke-linejoin:round;stroke-width:3px"/><path d="M2550.43,214.18a29.75,29.75,0,0,1,46.66-9" style="fill:none;stroke:#d9f4f1;stroke-linecap:round;stroke-linejoin:round;stroke-width:4px"/><path d="M2845.23,450.55a158.35,158.35,0,0,0,27.6-69.92" style="fill:none;stroke:#d9f4f1;stroke-linecap:round;stroke-linejoin:round;stroke-width:4px"/><path d="M3212.43,438.54c-92.26,39.55-135.92-16.73-277.67,16.89-.13-.19-.26-.37-.4-.55-3.2-4.07-10.83-6.84-15.94-7.66-7.39-1.2-13.93,2.16-14.55,1.95-.89-.29-.76-4.34-7.93-8.25a18.54,18.54,0,0,0-10-2.39c-1.62-.22-.77-1.22-.12-2.72,3.82-8.82,8.94-32.79,8.94-45.82L2890,413.42a6.14,6.14,0,0,0-6,1.09,18.71,18.71,0,0,0-4.05,4.91A278,278,0,0,1,2859.19,447c-5.33,6.25-11,12.3-15.15,19.37-3.71,6.28-6.2,13.55-5.77,20.78-101.59,38.44-180.57,9.72-236.86-4.36,0-.37.09-.74.12-1.11,1.3-13.37-1.33-27.47-9.29-38.29-3-4.15-7.09-7.89-12.11-9-4.08-.93-8.34,0-12.43.86l2.56,2c-6.47-.18-13.69-6.19-23.06,3.88-3.43,3.69-3.78,9.27-3.43,14.3-15.22-3.2-27.6,2.67-30.76,13.72-188.36-20.34-278.19,14.5-481.24,33.92-185.33,17.73-466-29.76-731.73-21.58-166.75,5.13-462.68,24.42-742.15,41.13C269.48,539.84,0,500.44,0,500.44V608.16H3428.8V401.44S3360.26,375.19,3212.43,438.54Z" style="fill:#bdefea"/><path d="M2543.54,386.08c-6.84,6.51-10.1,6.51-14.33,16.29-3.56,8.2-.55,16.05-8.48,20.2-6.65,3.47-15.77,2.4-21.71,7-3.2,2.46-4.9,6.37-7.61,9.37-4.76,5.26-12.11,7.22-19.07,8.61s-14.3,2.58-19.94,6.89-8.72,13-4.51,18.68c2.47,3.34,6.67,4.84,10.61,6.15l84.76,28.2c14.56,4.85,30.12,9.74,45,6,4.23-1.07,8.54-3,10.85-6.75,1.84-2.94,2.17-6.56,2.45-10,1.81-22.63,3.57-45.8-2.36-67.72s-21.16-42.73-43-48.9" style="fill:#bdefea"/><path d="M2542.48,385c-3.84,3.62-8.49,6.42-11.51,10.84a31.29,31.29,0,0,0-4.21,8.94c-.84,3-1,6.07-1.66,9.09-.57,2.78-1.68,5.25-4.15,6.82-2.88,1.83-6.38,2.48-9.68,3.1a43.92,43.92,0,0,0-9.91,2.63,18.74,18.74,0,0,0-7.63,6.85c-2,2.91-4,5.69-7,7.66a33.1,33.1,0,0,1-9.82,4c-7.18,1.86-14.75,2.43-21.47,5.81-5.9,3-10.52,8.5-11,15.28a12.15,12.15,0,0,0,2.84,8.69c2.26,2.66,5.6,4.12,8.82,5.27,8.4,3,17,5.66,25.42,8.47l25.8,8.59,26,8.67c8.4,2.79,16.78,5.81,25.38,8,8.17,2,16.68,3.24,25.09,2.08,7-1,14.9-3.55,17.71-10.76,1.42-3.67,1.44-7.83,1.75-11.7.33-4.26.65-8.53.91-12.8a233.55,233.55,0,0,0,.32-26.06c-.79-15.36-3.85-30.7-11.24-44.31-6.31-11.63-15.65-22.05-27.6-28a52.2,52.2,0,0,0-9.13-3.56,1.5,1.5,0,0,0-.79,2.89c12.43,3.56,22.78,12,30.16,22.51,8.14,11.55,12.63,25,14.55,38.95,2.27,16.55,1.16,33.36-.14,49.94-.3,3.75-.26,7.84-1.69,11.38-1.29,3.2-4.1,5.29-7.21,6.57-7.32,3-15.88,2.91-23.57,1.72-8.21-1.27-16.15-3.84-24-6.45l-25.08-8.35L2468.6,481c-3.89-1.29-7.82-2.52-11.69-3.91-3-1.08-6.32-2.52-8.11-5.34-3.32-5.24-.21-12.26,4.12-15.86,5.57-4.64,13.34-5.64,20.2-7,6.55-1.33,13.44-3.21,18.41-8,2.52-2.41,4.09-5.54,6.33-8.18a15.58,15.58,0,0,1,8.29-4.83c6.08-1.6,13.55-1.57,18.34-6.23,4.27-4.15,3.66-10.6,5.11-15.93a25.92,25.92,0,0,1,8.78-13.37c2.11-1.71,4.24-3.4,6.22-5.27,1.41-1.33-.72-3.45-2.12-2.12Z" style="fill:#bdefea"/><path d="M2896.12,368.49a150.52,150.52,0,0,0,.54,22.67c5-2.7,11.58-1.22,15.91,2.5s6.69,9.27,7.86,14.86c.51,2.46,1,5.3,3.22,6.54,1.78,1,4,.55,6,.74,8.21.77,11.56,11.27,18.74,15.34,8.85,5,21.41-.86,29.58,5.22,6.68,5,6.26,15.79,1.16,22.37s-13.34,9.8-21.32,12.15c-14.2,4.19-29.19,6.59-43.85,4.5s-29-9.08-37.88-20.92c-1.83-2.44-3.47-5.27-3.32-8.31a15.48,15.48,0,0,1,1.88-5.77q12.72-26.5,25.46-53" style="fill:#bdefea"/><path d="M2894.62,368.49a156,156,0,0,0,.54,22.67,1.53,1.53,0,0,0,2.26,1.3c4.25-2.2,9.44-1.11,13.21,1.58,4.06,2.89,6.43,7.67,7.74,12.35,1.17,4.21,1.43,9.87,6.78,10.72,2.26.35,4.52-.12,6.7.73a12.93,12.93,0,0,1,4.33,3.06c2.8,2.77,5,6.11,7.87,8.81a19,19,0,0,0,11.58,5c7.92.78,19.77-2.38,24.41,6.29,1.87,3.5,1.8,7.8.66,11.51a20.07,20.07,0,0,1-8.21,10.39,49.09,49.09,0,0,1-13.37,6,138.1,138.1,0,0,1-16.88,4.15c-20.71,3.68-44,1.22-59.92-13.89a45,45,0,0,1-4.8-5.33c-1.55-2-3.16-4.44-3.24-7.08-.08-2.8,1.59-5.44,2.76-7.88l4.1-8.54,16.29-33.92,4-8.31c.84-1.73-1.75-3.26-2.59-1.51q-8.62,18-17.26,35.94c-2.86,5.95-5.79,11.88-8.57,17.86-1.23,2.63-2.08,5.27-1.5,8.18a17.64,17.64,0,0,0,3.67,7.09c13.73,17.9,37.49,23.63,59,21.51a123.84,123.84,0,0,0,18.32-3.29,94,94,0,0,0,15.69-5.19,31.49,31.49,0,0,0,12.24-9.23,20.29,20.29,0,0,0,4-12.38,15.09,15.09,0,0,0-4.93-11.41c-3.74-3.12-8.58-3.8-13.3-3.85s-9.83.57-14.49-.87c-4.22-1.31-7-4.7-9.76-8-2.57-3.11-5.25-6.41-9.11-7.95-2.3-.92-4.56-.57-6.95-.85-2.72-.31-3.37-2.75-3.87-5.06-1.12-5.11-2.76-10-6.12-14.13A18,18,0,0,0,2903,388.3a14,14,0,0,0-7.13,1.57l2.25,1.29a156,156,0,0,1-.54-22.67c.1-1.93-2.9-1.93-3,0Z" style="fill:#bdefea"/><path d="M2547.81,381.2c-2.53.15-5.38.4-6.88,1.62-1.29,1.05-1.14,2.47-.93,3.77a2.43,2.43,0,0,0,.53,1.38c.82.9,2.74,1.23,4.46,1.24a13.47,13.47,0,0,0,5.85-1.12c1.6-.8,2.55-2.1,2.11-3.32s-2.44-2.21-4.52-2.09" style="fill:#bdefea"/><path d="M2547.81,379.7c-2.6.15-5.68.26-7.81,2a4.49,4.49,0,0,0-1.64,3.55,5.73,5.73,0,0,0,1.11,3.82,5.81,5.81,0,0,0,3.45,1.51,16.55,16.55,0,0,0,4.39,0c2.66-.33,6.16-1.29,7.09-4.18,1.12-3.48-3.22-5.32-6-5.21a1.54,1.54,0,0,0-1.5,1.5,1.5,1.5,0,0,0,1.5,1.5,4.55,4.55,0,0,1,2.53.56,1.28,1.28,0,0,1,.33.24s.3.32.17.17c.14.16.09.13.05,0s.07.25,0,.11a.69.69,0,0,1,0,.24c-.09.24.09-.16,0,.09l-.13.22-.31.32a4.37,4.37,0,0,1-1.16.73,9.73,9.73,0,0,1-2.59.69,14.81,14.81,0,0,1-3.26.1,4.93,4.93,0,0,1-2.29-.6c.14.09-.14-.13-.17-.17s-.07-.29-.08-.35a4.82,4.82,0,0,1-.14-1,1.66,1.66,0,0,1,.6-1.66,6.56,6.56,0,0,1,2.51-.87,28.66,28.66,0,0,1,3.33-.33,1.54,1.54,0,0,0,1.5-1.5,1.51,1.51,0,0,0-1.5-1.5Z" style="fill:#bdefea"/><path d="M2895.5,376.63c1.9,2.68,5.5,4.39,6.95,7.38,2.13,4.39-1.32,9-5.94,7.34a6.82,6.82,0,0,1-3-10.63" style="fill:#bdefea"/><path d="M2772.46,484.1a4,4,0,0,0,1.57,2c1.15.79,5,.3,6.43.38,5,.28,9.92.4,14.92.27,8.51-.23,17-.37,25.5-1.37,3.43-.4,24.67-2.8,25.11-7.05.34-3.27-13.16.65-15,1-8,1.66-16.16,3.28-24.37,3.46a192.82,192.82,0,0,1-28.62-1.89,8.17,8.17,0,0,0-3.65.08C2772.54,481.61,2772.09,482.89,2772.46,484.1Z" style="fill:#86bab3"/><path d="M2645.56,474.86a6.11,6.11,0,0,0-3.26.16c-1.93.44-3.78,1.15-5.72,1.5a41.59,41.59,0,0,1-5.89.53c-14.39.49-27.26-2.22-41.51-6.86a128.92,128.92,0,0,1-26.35-12.14,68.69,68.69,0,0,0-17.62-7.78c-2.5-.67-14.6-3.8-14.38,1.59.08,2,1.86,3.68,3.79,4.36a23.18,23.18,0,0,0,6.07.79c8.85.65,17,5.07,24.35,10s14.36,10.61,22.46,14.25c16.63,7.49,38.71,5.73,53.13.52,2-.74,5.57-2.24,6-4.75a2.32,2.32,0,0,0-.1-1.25A1.67,1.67,0,0,0,2645.56,474.86Z" style="fill:#86bab3"/></g></g></svg>