<svg xmlns="http://www.w3.org/2000/svg" viewBox="0 0 1538.61 1509.28"><g id="fbc5a967-e57d-4080-9da8-a9de0cb9b2df" data-name="Layer 2"><g id="a8fd7f9d-a922-45e9-a73e-5589da147972" data-name="Layer 1"><rect x="63.42" y="34.09" width="1475.19" height="1475.19" rx="130.52" style="fill:#414754;opacity:0.8"/><rect width="1475.19" height="1475.19" rx="130.52" style="fill:#d1d9e5"/><rect x="557.83" y="286.79" width="359.53" height="901.6" style="fill:#616b84"/><polygon points="569.81 298.78 905.38 298.78 905.38 737.6 905.38 1176.41 569.81 1176.41 569.81 737.6 569.81 298.78" style="fill:#858ea0;fill-rule:evenodd"/><polygon points="569.81 737.59 905.38 737.59 905.38 957 905.38 1176.41 569.81 1176.41 569.81 957 569.81 737.59" style="fill:#fff;fill-rule:evenodd"/><path d="M637.73,1274.16a54.87,54.87,0,0,1,21.53,4.16,49.93,49.93,0,0,1,17,11.66,53.53,53.53,0,0,1,11.16,18.18,70.89,70.89,0,0,1,0,47,54.38,54.38,0,0,1-11.08,18.21,49.83,49.83,0,0,1-16.94,11.83,54.27,54.27,0,0,1-21.7,4.24v-18.53a32.1,32.1,0,0,0,13-2.65,29.2,29.2,0,0,0,10.33-7.71,36,36,0,0,0,6.72-12.29,52.91,52.91,0,0,0,2.4-16.51,50.89,50.89,0,0,0-2.46-16.5A35.87,35.87,0,0,0,661,1303a28.75,28.75,0,0,0-10.22-7.56,32.25,32.25,0,0,0-12.87-2.57h-.17v-18.7Zm153.55,21.07H734.2v25.68h49.64V1340H734.2v47.59H713.42V1276h77.86v19.19Zm99.85,0H834.05v25.68h49.64V1340H834.05v47.59H813.27V1276h77.86Zm-253.4,94.19a55.15,55.15,0,0,1-21.67-4.18,49.49,49.49,0,0,1-17-11.81A53.73,53.73,0,0,1,588,1355.2a71.33,71.33,0,0,1,0-47.13,53.13,53.13,0,0,1,11.19-18.18,50,50,0,0,1,17-11.63,55.64,55.64,0,0,1,21.47-4.1v18.7a31.6,31.6,0,0,0-12.87,2.63,28.86,28.86,0,0,0-10.33,7.64,36.63,36.63,0,0,0-6.81,12.27,51.12,51.12,0,0,0-2.46,16.33,52,52,0,0,0,2.43,16.51,35.53,35.53,0,0,0,6.72,12.29,28.94,28.94,0,0,0,10.28,7.71,31.51,31.51,0,0,0,12.95,2.65h.09Z" style="fill:#4d4d4d"/><path d="M1337.62,58.55a71.12,71.12,0,0,1,52.63,118.94l-52.63-62.72V58.55Zm0,142.23a70.89,70.89,0,0,0,38-11l-38-45.24Zm-38-131.25a70.92,70.92,0,0,1,38-11v56.22l-38-45.24Zm38,75L1285,81.84a71.12,71.12,0,0,0,52.64,118.94Z" style="fill:#414754;fill-rule:evenodd"/><path d="M137.57,200.79a71.17,71.17,0,0,0,70.72-78.71l-70.72,17.45v61.26Zm0-81V58.54a71.16,71.16,0,0,1,66.13,45Zm-66.13,36a71.18,71.18,0,0,0,66.13,44.95V139.53L71.44,155.84Zm66.13-97.3v61.27L66.86,137.25a71.16,71.16,0,0,1,70.71-78.71Z" style="fill:#414754;fill-rule:evenodd"/><path d="M1347.12,1416a71.12,71.12,0,0,0,.14-141l-.14,141Zm-19-141a71.12,71.12,0,0,0-.15,141Z" style="fill:#414754;fill-rule:evenodd"/><path d="M137.57,1274.41a71,71,0,0,1,43.64,14.95l-43.64,42.76v-57.71Zm0,142.22a71.11,71.11,0,0,0,57-113.59l-57,55.89Zm-57-28.62a71.12,71.12,0,0,1,57-113.6v57.71l-57,55.89Zm57-29.08-43.63,42.75a70.88,70.88,0,0,0,43.63,15Z" style="fill:#414754;fill-rule:evenodd"/><path d="M137.81,197.26a71.17,71.17,0,0,0,70.72-78.71L137.81,136v61.27Zm0-81V55a71.18,71.18,0,0,1,66.13,45Zm-66.13,36a71.2,71.2,0,0,0,66.13,45V136L71.68,152.3ZM137.81,55v61.27L67.1,133.71a71.13,71.13,0,0,1,53.68-76.63A71.93,71.93,0,0,1,137.81,55Z" style="fill:#414754;fill-rule:evenodd"/></g></g></svg>