<svg xmlns="http://www.w3.org/2000/svg" viewBox="0 0 386.58 181.47"><g id="a54b9073-6ab4-4232-93aa-c7142360dceb" data-name="Layer 2"><g id="a1298274-0cb9-4e14-925e-a58ad4b45fa5" data-name="Layer 1"><path d="M209.33,28.45,196.53,3a.08.08,0,0,0,0,0l0-.1,0-.06v0l-.09-.13,0-.07-.06-.08-.11-.15,0,0L196,2.22l-.13-.14,0,0a.27.27,0,0,0-.08-.07.86.86,0,0,0-.14-.13l-.05,0-.08-.06-.14-.1-.07,0-.08-.05h0l-.13-.07-.11-.06h0l0,0,0,0-.09-.05-.13-.05-.09,0h0l-.07,0-.14,0-.12,0-.09,0-.13,0-.13,0h-1l-.13,0-.13,0-.09,0-.12,0-.14,0-.07,0h0l-.09,0-.13.05-.09.05,0,0-.05,0h0l-.1.06-.13.07h0l-.08.05-.07,0-.14.1L191,1.8l-.05,0a.86.86,0,0,0-.14.13.27.27,0,0,0-.08.07l0,0-.13.14-.07.08,0,0-.11.15-.06.08,0,.07-.09.13v0l0,.06s0,.07-.05.1l0,0-12.8,25.45a3.62,3.62,0,0,0,1.61,4.87h0a3.63,3.63,0,0,0,4.87-1.61l5.93-11.78v98.4a3.63,3.63,0,1,0,7.26,0V19.93l5.93,11.78a3.63,3.63,0,1,0,6.48-3.26Z" style="fill:#bdefea;stroke:#bdefea;stroke-miterlimit:10;stroke-width:2px"/><path d="M252.24,37.92l-6.07-27.83s0,0,0-.05l0-.1a.14.14,0,0,0,0-.07v0c0-.05,0-.1,0-.15l0-.08,0-.09a.87.87,0,0,0-.07-.17l0-.06-.06-.09a1.3,1.3,0,0,0-.08-.17l0,0-.06-.1-.1-.15,0-.05-.07-.08a.76.76,0,0,0-.11-.14l-.06-.06-.06-.07h0l-.1-.1L245,8.15l0,0,0,0,0,0L244.86,8l-.12-.08-.08-.06h0l-.07,0-.12-.07-.11-.06-.08,0-.12-.06L244,7.51l-.09,0-.11,0-.13,0-.11,0h-.11l-.11,0-.13,0-.12,0H243l-.13,0h-.7l-.14,0-.09,0h-.13l-.11,0-.15,0h0l-.1,0-.08,0-.16.07-.1,0-.06,0-.16.09-.1,0,0,0-.16.1-.09.06,0,0-.14.11-.08.07-.06,0a.57.57,0,0,0-.11.11l0,0-.06,0-.07.08,0,0L221.16,29.94a3.63,3.63,0,0,0,.35,5.12h0a3.63,3.63,0,0,0,5.12-.35l8.67-9.94-24.47,95.32a3.63,3.63,0,1,0,7,1.81l24.48-95.32,2.81,12.89a3.63,3.63,0,0,0,7.09-1.55Z" style="fill:#bdefea;stroke:#bdefea;stroke-miterlimit:10;stroke-width:2px"/><path d="M291.44,57.77l1-28.47V29a.92.92,0,0,0,0-.16V28.8s0-.07,0-.1,0-.12,0-.18v-.06l0-.1c0-.07,0-.13,0-.19l0-.05,0-.1a1.34,1.34,0,0,0-.07-.18.14.14,0,0,0,0-.06l0-.09c0-.05-.05-.11-.08-.16a.3.3,0,0,0,0-.08.59.59,0,0,1,0-.08h0s-.05-.08-.07-.13l-.07-.09v0l0,0,0,0-.06-.08-.09-.1-.06-.08,0,0-.06-.06-.09-.1-.1-.09-.06-.06-.1-.09-.11-.08-.08-.06-.1-.06a.41.41,0,0,0-.11-.07.21.21,0,0,0-.1-.06l0,0-.05,0-.1-.05-.12-.06-.11,0-.09,0-.13,0-.12,0-.09,0-.12,0-.14,0h-.21l-.14,0h-.68l-.17,0h-.17l-.18,0-.1,0-.06,0-.17.06-.11,0-.05,0-.17.07-.09,0-.07,0L287,26h0l-.06,0-.09.06,0,0L263.32,42.31a3.63,3.63,0,0,0-.93,5h0a3.62,3.62,0,0,0,5,.93l10.88-7.47L230.9,127.06a3.63,3.63,0,1,0,6.36,3.5l47.41-86.24-.48,13.18a3.63,3.63,0,0,0,7.25.27Z" style="fill:#bdefea;stroke:#bdefea;stroke-miterlimit:10;stroke-width:2px"/><path d="M324.48,86.74l8.08-27.31,0,0a.36.36,0,0,0,0-.1s0-.05,0-.08v0l0-.16s0-.05,0-.08a.34.34,0,0,0,0-.1,1.1,1.1,0,0,0,0-.18v-.41s0-.08,0-.11,0-.13,0-.19a.13.13,0,0,1,0-.06.36.36,0,0,1,0-.1l0-.17a.29.29,0,0,1,0-.09l0-.09h0s0-.1,0-.14,0-.08,0-.12v0a.08.08,0,0,0,0,0l0,0,0-.1-.06-.12,0-.09,0,0,0-.08-.08-.12-.06-.11-.05-.07-.08-.11a.76.76,0,0,0-.08-.11l-.06-.07-.08-.09-.09-.1-.08-.08s0,0,0,0l0,0-.09-.08a.39.39,0,0,1-.1-.08l-.1-.07-.08-.06-.11-.07-.11-.07-.08-.05-.11-.06-.13-.06-.07,0h0l-.09,0L330.3,55l-.09,0,0,0-.06,0h0l-.12,0a.58.58,0,0,0-.14,0h0l-.09,0h-.09l-.17,0h-.88l-.17,0-.11,0-.07,0-.16,0h0l-.08,0-.1,0-.05,0-26.75,9.78a3.64,3.64,0,0,0-2.16,4.66h0a3.64,3.64,0,0,0,4.66,2.16L316,67.06,248.6,138.8a3.63,3.63,0,1,0,5.29,5L321.26,72l-3.75,12.65a3.63,3.63,0,0,0,7,2.06Z" style="fill:#bdefea;stroke:#bdefea;stroke-miterlimit:10;stroke-width:2px"/><path d="M349.27,123l14.62-24.45,0,0a.41.41,0,0,1,.05-.09l0-.07,0,0a1,1,0,0,1,.07-.15l0-.07a.42.42,0,0,1,0-.1l.06-.17,0,0,0-.11a1.21,1.21,0,0,1,.05-.18v0s0-.08,0-.11l0-.18v-.07a.34.34,0,0,0,0-.1c0-.06,0-.12,0-.18v-.18h0s0-.1,0-.15a.37.37,0,0,0,0-.11v0s0,0,0-.06v0a.34.34,0,0,1,0-.1l0-.13s0-.07,0-.1v0s0,0,0-.08a.65.65,0,0,1,0-.13.56.56,0,0,1,0-.12l0-.09a.61.61,0,0,0-.05-.12,1.12,1.12,0,0,0-.05-.13l0-.09L364,95l-.06-.12-.06-.1,0,0,0,0-.06-.1a.76.76,0,0,1-.08-.11l-.08-.09-.06-.08-.09-.1-.09-.09-.06-.06-.1-.09-.1-.09-.07,0,0,0-.08-.06-.11-.08-.08,0,0,0-.05,0h0l-.1-.06-.14-.06h0l-.08,0-.08,0-.16-.06-.1,0-.06,0-.18,0-.11,0h-.05l-.18,0-.11,0h-.84l-28.35,2.82a3.64,3.64,0,0,0-3.25,4h0a3.63,3.63,0,0,0,4,3.25l13.13-1.31-83.09,52.73a3.63,3.63,0,1,0,3.89,6.13L349.81,108,343,119.29a3.63,3.63,0,0,0,6.23,3.73Z" style="fill:#bdefea;stroke:#bdefea;stroke-miterlimit:10;stroke-width:2px"/><path d="M364.26,164.32l20.24-20,0,0,.07-.08.05-.06,0,0,.1-.12.05-.06.06-.09.11-.15,0,0,.05-.09c0-.06.07-.11.1-.16l0-.05.05-.1c0-.06.05-.11.07-.17a.14.14,0,0,0,0-.06.42.42,0,0,0,0-.1,1.42,1.42,0,0,0,.05-.16l0-.09a.29.29,0,0,1,0-.09h0l0-.15a.43.43,0,0,0,0-.11v-.13s0-.06,0-.1a.57.57,0,0,0,0-.13.41.41,0,0,1,0-.11v-.25a.49.49,0,0,1,0-.12.28.28,0,0,0,0-.09s0-.09,0-.13a.69.69,0,0,1,0-.13s0-.07,0-.1l0-.12,0-.12,0-.12,0,0a.08.08,0,0,0,0-.05.36.36,0,0,0,0-.11.5.5,0,0,0,0-.13s0-.07,0-.11a.56.56,0,0,0-.05-.08l-.06-.12-.06-.12-.05-.08a.61.61,0,0,0-.07-.1.83.83,0,0,0-.08-.12l-.05-.06v0a.27.27,0,0,0-.07-.08l-.08-.11a.46.46,0,0,1-.07-.07l0,0,0,0,0,0-.08-.08-.12-.1h0l-.08-.06-.06-.06-.15-.1-.08-.06-.06,0-.16-.09-.09-.06-.05,0-.17-.08-.1,0-.06,0-.17-.05-.1,0-.07,0-.16,0h0l-.08,0-.1,0h-.05l-28.16-4.31a3.64,3.64,0,0,0-4.14,3h0a3.64,3.64,0,0,0,3,4.14l13,2-93.59,30.41a3.63,3.63,0,0,0,2.24,6.91l93.6-30.41-9.38,9.28a3.63,3.63,0,1,0,5.11,5.16Z" style="fill:#bdefea;stroke:#bdefea;stroke-miterlimit:10;stroke-width:2px"/><path d="M32.24,133.8,4.08,138.11H4l-.1,0-.08,0h0l-.16,0-.07,0-.1,0-.17.05-.06,0-.1,0-.17.08,0,0-.09.06-.16.09-.06,0a.27.27,0,0,0-.08.07l-.15.09-.06.06-.08.06h0l-.12.1-.08.08,0,0,0,0,0,0a.46.46,0,0,1-.07.07l-.08.11a.27.27,0,0,0-.07.08v0l-.05.06a.83.83,0,0,0-.08.12.61.61,0,0,0-.07.1l-.05.08-.06.12-.06.12a.56.56,0,0,0,0,.08s0,.08,0,.11a.5.5,0,0,0-.05.13.36.36,0,0,0,0,.11.08.08,0,0,0,0,.05l0,0,0,.12,0,.12,0,.12s0,.06,0,.1a.69.69,0,0,1,0,.13s0,.09,0,.13a.28.28,0,0,0,0,.09.49.49,0,0,1,0,.12v.25a.41.41,0,0,1,0,.11.57.57,0,0,0,0,.13s0,.07,0,.1v.13a.43.43,0,0,0,0,.11l0,.15h0a.29.29,0,0,1,0,.09l0,.09a1.42,1.42,0,0,0,.05.16.42.42,0,0,0,0,.1.14.14,0,0,0,0,.06c0,.06.05.11.07.17l0,.1,0,.05s.07.1.1.16l.05.09,0,0,.11.15.06.09.05.06.1.12,0,0,.05.06.07.08,0,0,20.24,20a3.63,3.63,0,0,0,5.14,0h0a3.63,3.63,0,0,0,0-5.13l-9.38-9.28,93.6,30.41a3.63,3.63,0,0,0,2.24-6.91L20.3,143l13-2a3.63,3.63,0,1,0-1.1-7.18Z" style="fill:#bdefea;stroke:#bdefea;stroke-miterlimit:10;stroke-width:2px"/><path d="M54.51,95.92,26.16,93.1h-.84l-.11,0-.18,0H25l-.11,0-.18,0-.06,0-.1,0-.16.06-.08,0-.08,0h0l-.14.06-.1.06h0l-.05,0,0,0-.08,0-.11.08-.08.06,0,0-.07,0-.1.09-.1.09-.06.06-.09.09-.09.1-.07.08-.07.09a.76.76,0,0,1-.08.11l-.06.1,0,0,0,0-.06.1a.75.75,0,0,1-.07.12.47.47,0,0,1,0,.1l0,.09a1.12,1.12,0,0,0,0,.13.61.61,0,0,0-.05.12l0,.09a.36.36,0,0,1,0,.11.57.57,0,0,1,0,.14s0,.06,0,.08v0s0,.06,0,.1l0,.13a.34.34,0,0,1,0,.1v0s0,0,0,.06v0a.37.37,0,0,0,0,.11c0,.05,0,.1,0,.15h0v.18c0,.06,0,.12,0,.18v.1a.17.17,0,0,1,0,.07l0,.18s0,.07,0,.11v0c0,.06,0,.12,0,.18l0,.11,0,0,.06.17a.42.42,0,0,1,0,.1l0,.07a1,1,0,0,1,.07.15l0,0,0,.07a.41.41,0,0,1,.05.09l0,0L37.31,123a3.63,3.63,0,0,0,5,1.25h0a3.63,3.63,0,0,0,1.25-5L36.77,108l83.09,52.73a3.63,3.63,0,1,0,3.89-6.13L40.66,101.84l13.13,1.31a3.63,3.63,0,0,0,.72-7.23Z" style="fill:#bdefea;stroke:#bdefea;stroke-miterlimit:10;stroke-width:2px"/><path d="M85.5,64.77,58.75,55l0,0-.1,0-.08,0h0l-.16,0-.07,0-.11,0-.17,0h-.88l-.17,0h-.09l-.09,0h0a.58.58,0,0,0-.14,0l-.12,0h0l-.06,0,0,0-.09,0-.13.05-.09,0h0l-.07,0-.13.06-.11.06-.08.05-.11.07-.11.07-.08.06-.1.07a.39.39,0,0,1-.1.08l-.09.08,0,0s0,0,0,0l-.08.08-.09.1-.08.09-.06.07a.76.76,0,0,0-.08.11l-.08.11,0,.07-.06.11-.08.12,0,.08,0,0,0,.09-.06.12,0,.1,0,0a.08.08,0,0,0,0,0v0s0,.08,0,.12,0,.09,0,.14h0l0,.09a.29.29,0,0,1,0,.09l0,.17a.36.36,0,0,1,0,.1.13.13,0,0,1,0,.06c0,.06,0,.13,0,.19s0,.07,0,.11v.41a1.1,1.1,0,0,0,0,.18.34.34,0,0,0,0,.1s0,.05,0,.08l0,.16v0s0,0,0,.08a.36.36,0,0,0,0,.1l0,0L62.1,86.74a3.64,3.64,0,0,0,4.52,2.45h0a3.63,3.63,0,0,0,2.45-4.51L65.32,72l67.37,71.74a3.63,3.63,0,0,0,5.29-5L70.61,67.06,83,71.59a3.63,3.63,0,1,0,2.5-6.82Z" style="fill:#bdefea;stroke:#bdefea;stroke-miterlimit:10;stroke-width:2px"/><path d="M123.26,42.31,99.78,26.18l0,0-.09-.06-.06,0h0L99.42,26l-.07,0-.09,0-.17-.07,0,0-.11,0-.17-.06-.06,0-.1,0-.18,0h-.17l-.17,0H97.4l-.14,0h-.21l-.14,0-.12,0-.09,0-.12,0-.13,0-.09,0-.11,0-.12.06L96,26l0,0,0,0a.21.21,0,0,0-.1.06.41.41,0,0,0-.11.07l-.1.06-.08.06-.11.08-.1.09-.06.06-.1.09-.09.1-.06.06,0,0-.06.08-.09.1-.06.08,0,0,0,0v0l-.07.09c0,.05-.05.09-.07.13h0a.59.59,0,0,1,0,.08l0,.08a1.11,1.11,0,0,1-.07.16l0,.09,0,.06-.06.18,0,.1,0,.05c0,.06,0,.12,0,.19l0,.1v.06c0,.06,0,.12,0,.18s0,.07,0,.1v.08a.92.92,0,0,0,0,.16v.26l1,28.47a3.62,3.62,0,0,0,3.76,3.49h0a3.62,3.62,0,0,0,3.49-3.76l-.48-13.18,47.41,86.24a3.63,3.63,0,1,0,6.36-3.5L108.27,40.82l10.88,7.47a3.63,3.63,0,0,0,4.11-6Z" style="fill:#bdefea;stroke:#bdefea;stroke-miterlimit:10;stroke-width:2px"/><path d="M165.42,29.94,146.69,8.48l0,0-.07-.08-.06,0,0,0-.11-.11-.06,0-.08-.07L146.12,8l-.05,0L146,7.85l-.16-.1,0,0-.1,0-.16-.09-.06,0-.1,0-.16-.07-.08,0-.1,0h0l-.15,0-.11,0h-.13l-.09,0-.14,0h-.7l-.13,0h-.1l-.12,0-.13,0-.11,0H143l-.11,0-.13,0-.11,0-.09,0-.12.06-.12.06-.08,0-.11.06L142,7.8l-.07,0h0l-.08.06-.12.08a.46.46,0,0,0-.07.07l0,0-.05,0,0,0-.09.08-.1.1h0l-.06.07-.06.06a.76.76,0,0,0-.11.14l-.07.08,0,.05-.1.15-.06.1,0,0a1.3,1.3,0,0,0-.08.17l-.06.09,0,.06a.87.87,0,0,0-.07.17l0,.09,0,.08c0,.05,0,.1,0,.15v0a.14.14,0,0,0,0,.07l0,.1s0,0,0,.05l-6.07,27.83a3.63,3.63,0,0,0,2.77,4.32h0a3.62,3.62,0,0,0,4.32-2.77l2.81-12.89,24.48,95.32a3.63,3.63,0,0,0,7-1.81L151.28,24.77,160,34.71a3.63,3.63,0,1,0,5.47-4.77Z" style="fill:#bdefea;stroke:#bdefea;stroke-miterlimit:10;stroke-width:2px"/><path d="M209.33,28.45,196.53,3a.08.08,0,0,0,0,0l0-.1,0-.06v0l-.09-.13,0-.07-.06-.08-.11-.15,0,0L196,2.22l-.13-.14,0,0a.27.27,0,0,0-.08-.07.86.86,0,0,0-.14-.13l-.05,0-.08-.06-.14-.1-.07,0-.08-.05h0l-.13-.07-.11-.06h0l0,0,0,0-.09-.05-.13-.05-.09,0h0l-.07,0-.14,0-.12,0-.09,0-.13,0-.13,0h-1l-.13,0-.13,0-.09,0-.12,0-.14,0-.07,0h0l-.09,0-.13.05-.09.05,0,0-.05,0h0l-.1.06-.13.07h0l-.08.05-.07,0-.14.1L191,1.8l-.05,0a.86.86,0,0,0-.14.13.27.27,0,0,0-.08.07l0,0-.13.14-.07.08,0,0-.11.15-.06.08,0,.07-.09.13v0l0,.06s0,.07-.05.1l0,0-12.8,25.45a3.62,3.62,0,0,0,1.61,4.87h0a3.63,3.63,0,0,0,4.87-1.61l5.93-11.78v98.4a3.63,3.63,0,1,0,7.26,0V19.93l5.93,11.78a3.63,3.63,0,1,0,6.48-3.26Z" style="fill:#bdefea;stroke:#bdefea;stroke-miterlimit:10;stroke-width:2px"/></g></g></svg>