<svg xmlns="http://www.w3.org/2000/svg" viewBox="0 0 1297.92 5389.05"><g id="e1b8676e-227a-4c99-ad94-8139a721dc32" data-name="Layer 2"><g id="ba9b0f9e-c4bf-4cb5-b494-f3f86c4cbf86" data-name="Layer 1"><path d="M2572.48-8218.13v3772.87c72.5,1.44,133.06,20.86,154,47.25h10c12.36,5,23.76,11.78,33.33,21.39,19.78,19.86,31.73,52,43.2,68a45.09,45.09,0,0,0,10.77,11.06h5.12c3,0,5.38,11.22,5.38,25.06s-2.41,25.07-5.38,25.07h-14.72v29.7h14.72c3,0,5.38,11.22,5.38,25.07s-2.41,25.06-5.38,25.06h-14.72v29.71h14.72c3,0,5.38,11.22,5.38,25.06s-2.41,25.06-5.38,25.06h-14.72v29.71h14.72c3,0,5.38,11.22,5.38,25.06s-2.41,25.07-5.38,25.07h-14.72v29.7h14.72c3,0,5.38,11.22,5.38,25.06s-2.41,25.07-5.38,25.07h-5.42c3.57,15,11,38.47,30.13,72.76,24.66,44.16,68.78,106.18,90.84,137.19l22.06,31h0c64,89.74,102.06,201.52,102.06,322.74,0,295.66-226,535.33-504.85,535.33s-504.85-239.67-504.85-535.33c0-121.22,38-233,102.07-322.74h0l22.06-31c22.07-31,66.19-93,90.85-137.19,19.14-34.29,26.56-57.8,30.13-72.76h-5.42c-3,0-5.38-11.22-5.38-25.07s2.41-25.06,5.38-25.06h14.71v-29.7h-14.69c-3,0-5.38-11.23-5.38-25.07s2.41-25.06,5.38-25.06h14.71v-29.67h-14.71c-3,0-5.38-11.22-5.38-25.06s2.41-25.06,5.38-25.06h14.71v-29.71h-14.71c-3,0-5.38-11.22-5.38-25.06s2.41-25.07,5.38-25.07h14.71v-29.7h-14.71c-3,0-5.38-11.22-5.38-25.07s2.41-25.06,5.38-25.06h5.07a45.13,45.13,0,0,0,10.78-11.06c11.47-16.06,23.42-48.18,43.2-68,9.57-9.61,21-16.35,33.33-21.39h10c20.73-26.06,80.07-45.32,151.37-47.19v-3773Z" transform="translate(-1770.65 8218.13)" style="fill:#414754;fill-rule:evenodd;isolation:isolate;opacity:0.800000011920929"/><rect x="493.48" y="0.73" width="20.07" height="3556.83" style="fill:#414754"/><path d="M2275.5-3120.83c-278.85,0-504.85-239.67-504.85-535.3,0-121.22,38-233,102.06-322.74h0l22.06-31c22.06-31,66.18-93,90.84-137.19s29.86-70.47,32.46-83.62,2.6-13.15,17-14.87,43.12-5.17,66.06-6.89,40.06-1.73,76-.16c27.89,1.22,67.11,3.39,98.43,17.55,31.32-14.16,70.54-16.33,98.43-17.55,35.93-1.57,53.06-1.57,76,.16s51.68,5.17,66.05,6.89,14.38,1.72,17,14.87,7.79,39.45,32.45,83.62,68.79,106.18,90.85,137.19l22.06,31h0c64,89.74,102.07,201.52,102.07,322.74C2780.35-3360.5,2554.32-3120.83,2275.5-3120.83Z" transform="translate(-1770.65 8218.13)" style="fill:#2c2f35;fill-rule:evenodd"/><rect x="254.36" y="3636.47" width="500.98" height="327.45" style="fill:#685c56"/><ellipse cx="504.85" cy="3548.75" rx="170.64" ry="67.77" style="fill:#999"/><path d="M2010.29-4589.32h5.12a45.13,45.13,0,0,0,10.78-11.06c11.47-16.06,23.42-48.18,43.19-68,9.57-9.61,21-16.35,33.33-21.39h345.57c12.37,5,23.77,11.78,33.34,21.39,19.77,19.86,31.72,52,43.19,68a45.13,45.13,0,0,0,10.78,11.06h5.12c3,0,5.37,11.22,5.37,25.06s-2.4,25.07-5.37,25.07H2010.29c-3,0-5.38-11.22-5.38-25.07S2007.32-4589.32,2010.29-4589.32ZM2540.71-4270H2010.29c-3,0-5.38,11.22-5.38,25.07s2.41,25.06,5.38,25.06h530.42c3,0,5.37-11.22,5.37-25.06S2543.68-4270,2540.71-4270Zm0-79.83H2010.29c-3,0-5.38,11.22-5.38,25.06s2.41,25.07,5.38,25.07h530.42c3,0,5.37-11.22,5.37-25.07S2543.68-4349.82,2540.71-4349.82Zm0-79.83H2010.29c-3,0-5.38,11.22-5.38,25.06s2.41,25.06,5.38,25.06h530.42c3,0,5.37-11.22,5.37-25.06S2543.68-4429.65,2540.71-4429.65Zm0-79.84H2010.29c-3,0-5.38,11.22-5.38,25.07s2.41,25.06,5.38,25.06h530.42c3,0,5.37-11.22,5.37-25.06S2543.65-4509.49,2540.71-4509.49Z" transform="translate(-1770.65 8218.13)" style="fill:#937363;fill-rule:evenodd"/><polyline points="39.27 4753.52 72.52 4728.25 135.71 4779.59 213.9 4696.19 156.56 4492.89 193.05 4404.28 245.17 4456.4 266.02 4565.87 354.64 4503.32 458.89 4492.89 516.23 4701.4 662.19 4685.76 683.04 4868.2 422.4 4883.84 354.64 4977.67 344.21 5061.07" style="fill:none;stroke:#dbdbdb;stroke-miterlimit:10;stroke-width:9px;fill-rule:evenodd"/><polyline points="221.72 4427.73 302.51 4333.91 281.66 4247.9" style="fill:none;stroke:#dbdbdb;stroke-miterlimit:10;stroke-width:9px;fill-rule:evenodd"/><polyline points="458.89 4495.5 438.04 4422.52 542.29 4375.61" style="fill:none;stroke:#dbdbdb;stroke-miterlimit:10;stroke-width:9px;fill-rule:evenodd"/><polyline points="659.58 4685.76 737.77 4638.85 719.52 4534.59" style="fill:none;stroke:#dbdbdb;stroke-miterlimit:10;stroke-width:9px;fill-rule:evenodd"/><polyline points="358.55 4978.97 475.83 5010.25 557.93 4978.97" style="fill:none;stroke:#dbdbdb;stroke-miterlimit:10;stroke-width:9px;fill-rule:evenodd"/></g></g></svg>