<svg xmlns="http://www.w3.org/2000/svg" viewBox="0 0 320.77 1008.78"><g id="e2d0f1da-7006-4a3b-aedd-ffa6560c2388" data-name="Layer 2"><g id="a483c932-940c-41bc-857a-f41410fc2c18" data-name="Layer 1"><line x1="162.01" y1="13" x2="162.01" y2="364.18" style="fill:#704f62;stroke:#704f62;stroke-linecap:round;stroke-linejoin:round;stroke-width:26px"/><rect x="91.64" y="746.34" width="140.74" height="261.94" rx="70.37" style="fill:#fff8d9;stroke:#fff8d9;stroke-miterlimit:10"/><path d="M88.23,784.14c4.15,6.22,129.34,5.86,135.53-.66,6.52-8.68,21.5-40.83,25.41-53.43-37.55,1.89-176.58,2.61-192.87,2C61.52,749,86.49,781.53,88.23,784.14Z" style="fill:#704f62"/><path d="M151.44,776.32c32.58,0,43.33,1.3,80.79-9.78,3.22,1,48.38,53.68,86,92.31,6.47,6.64-1,18.25-5.22,23.69-8.76,11.28-20.91,16.8-33.81,22a286,286,0,0,1-45.78,14,317.4,317.4,0,0,1-95.35,5.83,326.49,326.49,0,0,1-68.45-13.55c-15.21-4.73-30.61-9.59-44.5-17.55-7.34-4.21-32.56-18.63-23-29.53C22.07,841,58.62,794.15,76.5,768.5,106.41,775.71,124.94,776.32,151.44,776.32Z" style="fill:#704f62"/><path d="M111,372.12c51.69-4.78,136.4,3,149.86,21.28-1.33,113-4,215-9.45,327.86-.17,3.61-.31,8.28-2.6,11.08s-6.78,3.74-10.52,4.51c-30.8,6.33-59.53,7.76-89.5,6.45-27.47-1.19-35.62-.87-68.2-4.34-3.24-.35-23.39-3.24-24.95-6.09-1.19-2.17-1.21-4.75-1.2-7.22q.32-133.68.64-267.36c.05-24.32-1.33-50.37,6-73.57C71.94,375.59,111,372.12,111,372.12Z" style="fill:#704f62"/></g></g></svg>