<svg xmlns="http://www.w3.org/2000/svg" viewBox="0 0 748.18 1622.39"><g id="ab2946b5-163d-48c4-8045-f86220fbf97a" data-name="Layer 2"><g id="f2bb6610-fab2-4a9f-a720-953a950ec212" data-name="Layer 1"><circle cx="374.09" cy="1531.21" r="91.18" style="fill:#6b6b6b"/><path d="M702.84,1452.62c-79.28-25.23-194.6-68.85-220-149-1.69-5.31-5.22-12.6-7.82-19.55-6.88-22.52-15.75-37.38-31.56-54.6-18.54-20.18-73.76-29.48-98.31-17.29-19.75,9.79-31.74,28.23-40.88,48.42-3.11,6.86-6.89,14.3-9.53,21.31-16.44,43.59-65.13,69.78-104.59,88.95-51.93,25.24-106.42,42.59-162.66,55.37C5,1431.34,5,1454.62,5,1470.22c0,13.61,60.47,31.3,72.32,35.18,159.93,52.44,356.53,61.75,521.92,31.28C655,1526.42,718.89,1521.81,740,1501.8c7-6.67,0-14.43,2-25.41C743.89,1465.63,727.13,1460.36,702.84,1452.62Z" style="fill:#704f62;stroke:#704f62;stroke-linecap:round;stroke-linejoin:round;stroke-width:10px"/><path d="M402.24,1192l-2.1-29c-.53-7.35.91-16.61-4.58-21.53-5.74-5.15-13.37-3.82-21.06-3.26-7,.51-17.19-1.62-22.38,3-7.09,6.4-5.67,18.91-6.08,28.46-.32,7.51-.41,16.4-.52,23.92-.07,4.95-2.45,15.23,2.23,18.71,3.83,2.84,11.15,2.58,15.73,2.81,4.8.24,19.45.72,24.26.6,9.13-.22,12.17-1.3,14.12-5.43C404.63,1204.48,402.7,1198.49,402.24,1192Z" style="fill:#704f62;stroke:#704f62;stroke-linecap:round;stroke-linejoin:round;stroke-width:10px"/><line x1="374.09" y1="13" x2="374.09" y2="1141.5" style="fill:#704f62;stroke:#704f62;stroke-linecap:round;stroke-linejoin:round;stroke-width:26px"/></g></g></svg>