<svg xmlns="http://www.w3.org/2000/svg" viewBox="0 0 161.35 284.28"><g id="e394c50c-291d-4b78-a636-f7d5d0a3783e" data-name="Layer 2"><g id="b808639f-3d90-4641-a4be-cd56fb97ca57" data-name="Layer 1"><path d="M110.08,99C93.26,71.62,100,30.31,89.23,0L88.08,6.3l.14-3.55c-5.45,9.3-30.28,21.64-29,32.36,0,0-5.2,28.72-5.2,28.75l3.2,59.22C52,97,35.91,83.5,29.17,86.07c7.42,26.79-10.6,50.25-19.51,74C-.33,186.66-5,214.24,7.8,241,20,266.39,46.89,284.73,75,284.27c35.62-.57,77-22.23,84.56-54.91C169.76,185.2,133.29,136.87,110.08,99Z" style="fill:#e2ad29"/></g></g></svg>