<svg xmlns="http://www.w3.org/2000/svg" viewBox="0 0 852.46 1330.48"><g id="b6821dbe-6c0c-493a-b953-4bd6660cab65" data-name="Layer 2"><g id="e80c3709-9eb9-4207-891b-0c71736b1c13" data-name="Layer 1"><path d="M260.08,1161.12a168.87,168.87,0,1,0,288.27-119.41c-30.55-30.56-70.16,38.61-116.79,38.61-54.51,0-105.59-62.24-136.46-22.17A168.12,168.12,0,0,0,260.08,1161.12Z" style="fill:#7f7f7f;stroke:#7f7f7f;stroke-miterlimit:10"/><path d="M379.83,16c.2,35.06,64.2,37.33,82.61,17.59C443.79,5.37,390.29,28,383.84,55.1c-10.8,45.47,54.84,64.26,81.73,42.12-51.92-48.69-148.93,72.83,7.6,64.81-4-37.56-82.79-24-92.62,9.26-15.7,53.16,97.67,60.35,97.72,38.23.09-39.89-84.79,5.48-91.64,27.35-15.85,50.64,62.27,58,87.72,31.19-21-21.7-76.79-.92-80.88,28.94-5.5,40.17,56.77,55.52,80.77,33.71-24.51-23.55-79.79-2.39-82.76,33.24-3.93,47.07,66.19,58.72,94.76,37-82-55.75-163.44,117.08-24.71,81.54-11-27.43-94.45-9.3-99.54,24.27-6.54,43.08,76.64,57.82,96,27.23-24.68-18.63-95.15-.07-97.65,37.46s75.84,56.78,93.74,25.95c-29.16-18.45-100.29-6.34-93.74,40.29,4.49,31.95,79.4,61,85.63,18.28-20.53-10.06-60.76,1.74-71.77,24.25-12.54,25.63,15.72,63.14,40.93,37.5" style="fill:none;stroke:#86bab3;stroke-linecap:round;stroke-linejoin:round;stroke-width:32px"/><path d="M505.18,762.35C512,820,524.73,881.59,520.82,937.3c-31.27,7.82-188.36,20.24-201.34,2.28-6.75-9.35-2-89.27,10.75-178.21C349.78,746.71,503.64,749.36,505.18,762.35Z" style="fill:#f28fc3;stroke:#f28fc3;stroke-linecap:round;stroke-linejoin:round;stroke-width:10px"/><path d="M422.11,1020.37c45.93-2.93,75-11.4,83.07-14.66,10.6,6.19,217.18,57.94,318.21,82.81,10,2.45,15.33,5.19,18.85,7.67a12.36,12.36,0,0,1,1.86,18.57c-4.54,4.82-12,10.59-27.38,17.65-78.28,36-225.52,85-380,84.42-121-.49-244.22-15.53-358.49-56.8-24.39-8.81-49.63-17.17-69.53-33.74a10.49,10.49,0,0,1,3.56-18c1.6-.51,3.27-1,5-1.41,74.58-17.48,243.43-51.52,315.82-95.27C342.72,1014.18,370.41,1023.67,422.11,1020.37Z" style="fill:#f28fc3;stroke:#f28fc3;stroke-linecap:round;stroke-linejoin:round;stroke-width:10px"/><path d="M427.83,788.16a25.27,25.27,0,0,0-1,10c.85,7.76,7.08,13.33,13,17.73s12.52,7.45,18.53,11.58A63.64,63.64,0,0,1,483,899.11c-1.08,3.4-2.46,6.79-2.55,10.35s2.3,5.85,5.55,7.31c3.66,1.65,9.08,2,11.4-1.3s2.38-11.67,2.94-15.64c4-28.47,3.21-53.34,2.93-82.1-.1-10.26-1.13-25-6.84-33.55-6.4-9.57-17.23-10.8-28.74-11.15C455.14,772.66,432.3,773.78,427.83,788.16Z" style="fill:#edabd1"/><path d="M335.12,962.71c0,2.5-.32,26.59,0,33.23,42,8.8,130.21,4.89,169.3-4.89-1.52-7.6-3-27.58-6.08-34.2C442.24,966.42,391.75,965.28,335.12,962.71Z" style="fill:#c981aa;stroke:#c981aa;stroke-linecap:round;stroke-linejoin:round;stroke-width:10px"/><path d="M488.46,965.42c-5.13,2.54-10.06,8.1-11.51,9.13-3.39,2.39-8.91,4.08-12.85,5.34-3.39,1.09-7,1.28-9.52,4a5.92,5.92,0,0,0,.8,8.62c4.17,3,8.81,1.78,13.45,1,6.31-1,18.29-1.27,24.41-2.94a6.7,6.7,0,0,0,5.21-7.6c-.48-5.49-1.62-8.36-2.39-13.69C495.49,965.34,491.72,963.81,488.46,965.42Z" style="fill:#d195ba"/><path d="M487.7,964.13c-3.95,2-7.2,5.11-10.4,8.12-2.69,2.52-6.73,4-10.5,5.2-2.15.71-4.31,1.34-6.51,1.91a14.44,14.44,0,0,0-6.34,3,7.48,7.48,0,0,0,.12,11c4,3.38,9.37,2.58,14.14,1.78,4.08-.68,8.22-.92,12.33-1.28A82.75,82.75,0,0,0,493,992.23c3.35-.81,6.21-3,6.84-6.56.47-2.64-.14-5.51-.64-8.1s-1.18-5.43-1.61-8.17a7,7,0,0,0-3.43-5.36,7.18,7.18,0,0,0-6.45.09c-1.75.81-.22,3.4,1.52,2.59a3.82,3.82,0,0,1,4.06.33c1.52,1.23,1.44,3.55,1.77,5.3.38,2,.86,4,1.25,6a20.78,20.78,0,0,1,.64,6.51c-.44,3-2.94,4.1-5.58,4.66a89.1,89.1,0,0,1-10.82,1.36c-3.67.32-7.36.56-11,1.06-4,.55-8.48,2-12.27,0a4.56,4.56,0,0,1-2.67-3.87,4.8,4.8,0,0,1,2.76-4.43,24.24,24.24,0,0,1,5.83-1.89c1.93-.51,3.83-1.17,5.72-1.82,3.66-1.26,7.47-2.68,10.35-5.36,3.1-2.89,6.16-5.88,10-7.82C490.94,965.85,489.42,963.26,487.7,964.13Z" style="fill:#d195ba"/><path d="M602.44,1042.49c-9-2.64-18.14,6.93-18,16.34s6.84,17.53,14.37,23.17,16.25,9.66,23.45,15.72,13,15.1,11.58,24.41c-1.68,11.1-12.62,18.29-23.16,22.16-14.55,5.35-30.12,7.16-45.28,10.4-2,.44-4.25,1-5.5,2.68-1.88,2.5-.53,6.33,2,8.16s5.81,2.16,8.92,2.36c63.45,4.13,124.82-21.14,182.41-48.07,4.08-1.91,8.69-4.54,9.23-9,.37-3-1.36-5.91-3.23-8.33-8.74-11.24-21.95-18.22-35.51-22.55s-27.75-6.32-41.6-9.6A229.87,229.87,0,0,1,635.9,1054c-11.41-5.46-23-12-35.68-11.69" style="fill:#edabd1"/></g></g></svg>