<svg xmlns="http://www.w3.org/2000/svg" viewBox="0 0 320.77 942.69"><g id="e64a7eff-ea9d-4590-a070-948a2bedcf48" data-name="Layer 2"><g id="f0c47c50-f684-45e5-8773-ca18b351f0cf" data-name="Layer 1"><rect x="88.88" y="680.25" width="140.74" height="261.94" rx="70.37" style="fill:#fff8d9;stroke:#fff8d9;stroke-miterlimit:10"/><path d="M88.23,718c4.15,6.22,129.34,5.87,135.53-.65,6.52-8.69,21.5-40.83,25.41-53.43-37.55,1.89-176.58,2.61-192.87,2C61.52,682.86,86.49,715.44,88.23,718Z" style="fill:#bfa090"/><path d="M151.44,710.22c32.58,0,43.33,1.31,80.79-9.77,3.22,1,48.38,53.68,86,92.31,6.47,6.64-1,18.25-5.22,23.69-8.76,11.28-20.91,16.8-33.81,22a286,286,0,0,1-45.78,14,317.72,317.72,0,0,1-95.35,5.83,327.13,327.13,0,0,1-68.45-13.55C54.42,840,39,835.13,25.13,827.17c-7.34-4.2-32.56-18.63-23-29.52,19.94-22.72,56.49-69.59,74.37-95.24C106.41,709.62,124.94,710.22,151.44,710.22Z" style="fill:#e5bca5"/><path d="M161.86,0c0,105.44-7.82,202.15-7.82,307.67V297.12" style="fill:#bfa090;stroke:#bfa090;stroke-miterlimit:10;stroke-width:32px"/><path d="M111,306c51.69-4.78,136.4,3,149.86,21.28-1.33,113-4,215-9.45,327.86-.17,3.61-.31,8.28-2.6,11.07-2.42,3-6.78,3.75-10.52,4.52-30.8,6.33-59.53,7.75-89.5,6.45-27.47-1.19-35.62-.87-68.2-4.34-3.24-.35-23.39-3.24-24.95-6.1-1.19-2.16-1.21-4.74-1.2-7.21q.32-133.68.64-267.36c.05-24.33-1.33-50.37,6-73.58C71.94,309.5,111,306,111,306Z" style="fill:#e5bca5"/><path d="M85.55,815.83c-2.74-1.93-5.2-3.66-6.28-5-7.14-9-9.88-20.8-9-32.15a71,71,0,0,1,4.68-19.85c1.67-4.35,6.67-11.42,4.88-16.17-5.14-13.74-25.55,13.9-29.55,18.77C42,771.43,21.4,792,28.94,805.79c5.95,10.87,17.73,17.19,29,21.15,9.43,3.3,20.06,7.29,30.22,6.06C103.52,831.13,92.7,820.88,85.55,815.83Z" style="fill:#eacec1"/><path d="M86.31,814.53c-2.31-1.63-4.8-3.18-6.5-5.48a40.48,40.48,0,0,1-4.44-7.64,45.86,45.86,0,0,1-3.74-17.21,60.74,60.74,0,0,1,2.8-19.29,50.82,50.82,0,0,1,2.92-7.83,78.61,78.61,0,0,0,3.31-7.16c1.33-3.62,1.64-8-1.33-10.94a6.38,6.38,0,0,0-6.8-1.13,24.73,24.73,0,0,0-7.79,5.06,81,81,0,0,0-7.56,7.72c-3.81,4.34-7.27,9-11,13.33-6,6.93-12.19,13.95-16.47,22.1a30.25,30.25,0,0,0-3.83,12.13c-.27,4.48,1.45,8.32,4,11.88,6.51,8.93,16.62,14.33,26.81,18a128.77,128.77,0,0,0,18.6,5.69c5.6,1.11,12.18,1.78,17.65-.29,3.14-1.19,5.34-3.78,4.22-7.26s-3.92-6.05-6.5-8.29c-1.39-1.2-2.85-2.32-4.35-3.39s-3.08,1.49-1.52,2.6a36.47,36.47,0,0,1,7.78,7,8.41,8.41,0,0,1,1.86,3.51,2.05,2.05,0,0,1-.9,2.2c-1.57,1.2-3.9,1.51-5.79,1.72a36.25,36.25,0,0,1-9.19-.25c-6.08-.91-11.93-2.91-17.71-4.94-9.83-3.44-19.72-7.72-26.72-15.75-2.69-3.09-5.18-6.73-5.3-11a23.62,23.62,0,0,1,2.86-10.94c3.89-7.92,9.75-14.72,15.47-21.35,3.56-4.13,6.89-8.42,10.4-12.58,4.06-4.8,8.5-10.11,14.06-13.23a9,9,0,0,1,3.12-1.19,3.14,3.14,0,0,1,2,.35A4.89,4.89,0,0,1,78.38,743c.74,2,.09,4.19-.62,6.09a68.47,68.47,0,0,1-3,6.44,54,54,0,0,0-3,7.67,66.21,66.21,0,0,0-3.18,18.09,50.9,50.9,0,0,0,2.2,16.45c1.58,5.1,4.07,10.52,7.72,14.49a38.76,38.76,0,0,0,6.24,4.87C86.38,818.24,87.88,815.64,86.31,814.53Z" style="fill:#eacec1"/><path d="M265.79,762.79c4,.08,7.78,3.74,10.63,6.3,5.9,5.29,18.43,19.6,19.67,27.63,1.9,12.39-10.1,21.18-20.53,27.69-10.62,6.65-21.59,11-34.05,12.35-3.29.35-8,.18-10.2-2.7-4.72-6.11,5.08-10.1,9.06-11.75A35.14,35.14,0,0,0,261.17,782c-1.13-5.07-4.39-11.39-.92-16.25A6.42,6.42,0,0,1,265.79,762.79Z" style="fill:#eacec1"/><path d="M265.79,764.29c3.76.18,6.81,3.37,9.43,5.74,1.92,1.73,3.73,3.58,5.47,5.48A80.54,80.54,0,0,1,292.28,791a17.56,17.56,0,0,1,2.48,7.33,16.34,16.34,0,0,1-2.26,9.13c-3.48,6.07-9.52,10.4-15.27,14.13A90.1,90.1,0,0,1,255,832.43a71.81,71.81,0,0,1-12.2,2.68c-3,.38-6.87.79-9.47-1.13-5.47-4.05,2.8-8.22,6-9.63a47.64,47.64,0,0,0,8.43-4.41,37.55,37.55,0,0,0,8.1-7.72,36.58,36.58,0,0,0,7.65-22.69,42.89,42.89,0,0,0-2-11.89c-1-3.46-2.34-7.67-.08-10.93a5.17,5.17,0,0,1,4.36-2.42,1.5,1.5,0,0,0,0-3,8.81,8.81,0,0,0-8.35,7.24c-.83,4.07.68,8.09,1.78,12a34,34,0,0,1-3.15,26.14c-4,6.89-10.13,11.7-17.39,14.78-4.26,1.8-11.85,5.39-9.82,11.29,2.73,7.93,13.81,5.7,19.93,4.44a82.47,82.47,0,0,0,25.09-9.94c6.61-3.89,13.49-8.31,18.43-14.29,4.36-5.28,7-12.3,4.57-19-2.23-6.29-6.68-11.87-10.94-16.91-2.1-2.49-4.29-4.89-6.6-7.17a45.48,45.48,0,0,0-8-6.71,11.77,11.77,0,0,0-5.53-1.78C263.86,761.2,263.86,764.2,265.79,764.29Z" style="fill:#eacec1"/></g></g></svg>