<svg xmlns="http://www.w3.org/2000/svg" viewBox="0 0 181.58 185.04"><g id="a08d2ad2-b33d-494a-968c-2c0d1b9cc52e" data-name="Layer 2"><g id="ad6cc0bc-c05b-4169-ba10-eb5b497d767d" data-name="Layer 1"><path d="M120.41,48.92c-5.45,3.12-17.36.31-27.14,2.92-18.53,4.94-27.36-3.26-27.36-3.26-13,24.58-29.16,64.34-28,91.22,12.81.87,19.06.93,43.65,1.09,16.73-.44,23.9-1.74,39.32-3,15.16-1.28,37.53-5.23,50,2.39,9.56,5.86,12,13,10.21,22.8-1.74,9.34-11.77,16.78-21.94,18.68-14.72,2.76-33,2.82-48.65,3.26-15.94.44-79.49-1.52-110-12.6-2.52-31.21,6.6-62.56,18.65-91C24.65,68.18,30.59,55,38.56,43.11A109.15,109.15,0,0,1,67.25,14.27c3.13-2.2,6.33-4.29,9.35-6.63A39,39,0,0,1,91.66.25c8-1.69,13,5.47,18,10.39,4.53,4,10.37,8,10.78,14.56.25,4-1.72,7.46-3.61,10.85,0,0,4.72,1.79,6.35,4.4S125,46.32,120.41,48.92Z" style="fill:#bdefea"/><path d="M170.33,147.87a20.34,20.34,0,0,0-4.68-2.74,33.06,33.06,0,0,0-15.31-2.89c-1.78.14-3.55.5-4.41,1.51s-.45,2.84,1.43,3.89c2.3,1.29,5.42,1.05,7.82,1.58a37.79,37.79,0,0,1,9.06,3.26,15.69,15.69,0,0,0,5.06,2c1.95.21,3.43-.74,3.63-2.06s-.73-2.89-2.14-4.17Z" style="fill:#e4f4f2"/></g></g></svg>