<svg xmlns="http://www.w3.org/2000/svg" viewBox="0 0 539.01 672"><g id="be6cfe51-0e1e-4aad-8d15-4633d219903d" data-name="Layer 2"><g id="bbe1f25c-6592-4450-8f04-aa5be3bd32ca" data-name="Layer 1"><path d="M529.83,233.81a56.79,56.79,0,0,0-80.39-47.28,56.79,56.79,0,0,0-82.06-31.62,56.79,56.79,0,0,0-84.7-23.67A56.79,56.79,0,0,0,190,121.12" style="fill:#86bab3;stroke:#86bab3;stroke-linecap:round;stroke-linejoin:round;stroke-width:14px"/><path d="M189.93,121.24a56.77,56.77,0,0,0,80.39,47.27,56.77,56.77,0,0,0,82.06,31.62,56.79,56.79,0,0,0,84.7,23.67,56.77,56.77,0,0,0,92.71,10.12" style="fill:#86bab3;stroke:#86bab3;stroke-linecap:round;stroke-linejoin:round;stroke-width:3px"/><path d="M386.85,130.56c-.43-4.86-7.2-6.86-11.49-4.53s-6.52,7.12-8.44,11.61A1008.75,1008.75,0,0,0,305,338.36c.42-2.12,14-4.23,16.45-7.34,4.69-5.89,5.51-20.16,7.51-27.47q8-29.34,17.13-58.37Q364.32,187.13,386.85,130.56Z" style="fill:#c981aa"/><path d="M238.91,321a72.46,72.46,0,0,1-114.57.6,180,180,0,1,0,114.57-.6Z" style="fill:#bdefea"/><path d="M181.39,349.41A72.35,72.35,0,0,0,238.91,321a180.76,180.76,0,0,0-114.57.6A72.35,72.35,0,0,0,181.39,349.41Z" style="fill:#86bab3"/><polygon points="143.08 168.14 266.9 200 272.9 157 196.91 147.65 160.18 131.37 143.08 168.14" style="fill:#f28fc3"/><path d="M117.27,203.57l155.58,39.76-.85-8.1q-.39-3.69-.79-7.36-.78-7.16-1.57-14.32-.93-8.52-1.86-17L144.13,165Z" style="fill:#c981aa"/><path d="M136.2,213.84A72.51,72.51,0,1,0,250.11,243c-14.52-2.31-34.82-6.61-57.12-12.3C170.29,224.88,150.08,218.82,136.2,213.84Z" style="fill:#bdefea"/><path d="M116.91,204c-.45,1.77,6.9,5.36,19.29,9.8a72.61,72.61,0,0,1,11.16-7.67C129.31,202.89,117.45,201.9,116.91,204Z" style="fill:#6b495c"/><path d="M243.89,230.71A72.28,72.28,0,0,1,250.11,243c13.47,2.13,22,2.56,22.42.75C273.09,241.54,261.83,236.61,243.89,230.71Z" style="fill:#6b495c"/><path d="M196.45,217.09c-18.44-4.7-35.52-8.46-49.09-10.92a72.61,72.61,0,0,0-11.16,7.67c13.88,5,34.09,11,56.79,16.82,22.3,5.69,42.6,10,57.12,12.3a72.28,72.28,0,0,0-6.22-12.25C230.92,226.45,214.48,221.69,196.45,217.09Z" style="fill:#bdefea"/><path d="M136.38,204.26c-1.65,9.49-3.39,19.07-7.25,27.9s-10,17-18.65,21.32-19.76,4.26-27.29-1.75" style="fill:none;stroke:#c981aa;stroke-linecap:round;stroke-miterlimit:10;stroke-width:9px"/><path d="M257.51,232.54c.24,10.91,8,20.09,15.89,27.62s16.74,14.9,20.37,25.19" style="fill:none;stroke:#c981aa;stroke-linecap:round;stroke-miterlimit:10;stroke-width:9px"/><path d="M170.09,375.93,185.83,398" style="fill:none;stroke:#6b495c;stroke-linecap:round;stroke-linejoin:round;stroke-width:4px"/><path d="M164.08,395.13,191,376.22" style="fill:none;stroke:#6b495c;stroke-linecap:round;stroke-linejoin:round;stroke-width:4px"/><path d="M148.8,280.46a2.68,2.68,0,0,0,2.07,4.3l20.55.54c5.05.13,10.59.11,14.48-3.12,4.37-3.64,5-10.5,2.57-15.61-1.73-3.56-6.29-8.83-10.43-9.65-4.88-1-8.85,3.16-12.4,5.89C159,267.91,153.83,273.84,148.8,280.46Z" style="fill:#e0a57e"/><path d="M150.82,304.05a82.72,82.72,0,0,0,67.47-15.66" style="fill:none;stroke:#6b495c;stroke-linecap:round;stroke-linejoin:round;stroke-width:4px"/><circle cx="42.51" cy="361.01" r="42.51" style="fill:#bdefea"/><circle cx="316.62" cy="356.99" r="42.51" style="fill:#bdefea"/><path d="M358.61,369.08a37.1,37.1,0,0,0,29.64-12.15c3.31-3.71,7.2-8.62,12-7.35s5.81,8.07,4.4,13C401,375.27,388.94,384.44,376,387.21s-26.54,0-38.76-5.12c-7-2.9-24.11-16.88-10.56-23.57,4.68-2.31,9.09,1.35,12.83,3.58C345.63,365.74,351.33,368.6,358.61,369.08Z" style="fill:#c981aa"/><path d="M300.52,99.23A56.75,56.75,0,0,1,376.29,128a56.77,56.77,0,0,1,78,22.18A56.8,56.8,0,0,1,524.39,154,181.49,181.49,0,0,0,242,60.34a56.77,56.77,0,0,1,58.48,38.89Z" style="fill:#bdefea;stroke:#bdefea;stroke-linecap:round;stroke-linejoin:round;stroke-width:14px"/><path d="M250.69,104.5a56.6,56.6,0,0,1,32,26.74,56.79,56.79,0,0,1,84.7,23.67,56.79,56.79,0,0,1,82.06,31.62,56.79,56.79,0,0,1,80.39,47.28A180.5,180.5,0,0,0,524.39,154a56.8,56.8,0,0,0-70.13-3.75,56.77,56.77,0,0,0-78-22.18,56.75,56.75,0,0,0-75.77-28.79A56.77,56.77,0,0,0,242,60.34,180.54,180.54,0,0,0,190,121.12,56.79,56.79,0,0,1,250.69,104.5Z" style="fill:#bdefea;stroke:#bdefea;stroke-linecap:round;stroke-linejoin:round;stroke-width:14px"/><circle cx="410.25" cy="21.23" r="21.23" style="fill:#bdefea"/><path d="M127.17,479.9l4.12,51.27c.7,8.63,1.28,17.83-2.9,25.42-4,7.34-11.75,11.76-19.08,15.8-6,3.32-13.59,6.63-19.35,2.88-5.36-3.48-5.86-11-5.8-17.38l.28-28c.08-8.42-1.87-19.83.25-27.93,1.83-7,10.59-8.3,17.07-11.1C104.18,489.83,127.28,481.27,127.17,479.9Z" style="fill:#e0a57e"/><path d="M231.31,481.9l-4.12,51.27c-.7,8.63-1.28,17.83,2.89,25.42,4,7.34,11.75,11.76,19.09,15.8,6,3.32,13.58,6.63,19.35,2.88,5.36-3.48,5.86-11,5.8-17.38l-.28-28c-.08-8.42,1.87-19.83-.25-27.93-1.83-7-10.59-8.3-17.07-11.1C254.3,491.83,231.2,483.27,231.31,481.9Z" style="fill:#e0a57e"/><circle cx="156.4" cy="244.5" r="7.5" style="fill:#6b495c"/><circle cx="202.4" cy="251.5" r="7.5" style="fill:#6b495c"/><path d="M168.58,419.1l16.93,21.18" style="fill:none;stroke:#6b495c;stroke-linecap:round;stroke-linejoin:round;stroke-width:4px"/><path d="M163.64,438.6l25.82-20.36" style="fill:none;stroke:#6b495c;stroke-linecap:round;stroke-linejoin:round;stroke-width:4px"/><path d="M84.25,509.77l43-10.68" style="fill:none;stroke:#b77149;stroke-linecap:round;stroke-linejoin:round;stroke-width:3px"/><path d="M229.68,499.86a272.06,272.06,0,0,1,44.11,15.38" style="fill:none;stroke:#b77149;stroke-linecap:round;stroke-linejoin:round;stroke-width:3px"/><path d="M89.59,508l1.06-11.72" style="fill:none;stroke:#b77149;stroke-linecap:round;stroke-linejoin:round;stroke-width:3px"/><path d="M101.22,505.71,101,492" style="fill:none;stroke:#b77149;stroke-linecap:round;stroke-linejoin:round;stroke-width:3px"/><path d="M113,503.08l-2.24-14.61" style="fill:none;stroke:#b77149;stroke-linecap:round;stroke-linejoin:round;stroke-width:3px"/><path d="M123.13,499.84l-1.06-16.61" style="fill:none;stroke:#b77149;stroke-linecap:round;stroke-linejoin:round;stroke-width:3px"/><path d="M127.87,498.54V480.3" style="fill:none;stroke:#b77149;stroke-linecap:round;stroke-linejoin:round;stroke-width:3px"/><path d="M228,498.84l2.55-16.58" style="fill:none;stroke:#b77149;stroke-linecap:round;stroke-linejoin:round;stroke-width:3px"/><path d="M238.64,502.13V485.84" style="fill:none;stroke:#b77149;stroke-linecap:round;stroke-linejoin:round;stroke-width:3px"/><path d="M248.93,506l.56-16" style="fill:none;stroke:#b77149;stroke-linecap:round;stroke-linejoin:round;stroke-width:3px"/><path d="M259.73,509.61l1.17-14" style="fill:none;stroke:#b77149;stroke-linecap:round;stroke-linejoin:round;stroke-width:3px"/><path d="M230.6,481.68l43.57,18" style="fill:none;stroke:#b77149;stroke-linecap:round;stroke-linejoin:round;stroke-width:3px"/><path d="M84.62,502.8a7.75,7.75,0,0,1,3-6.17,23.22,23.22,0,0,1,6.24-3.37l31.94-13.15" style="fill:none;stroke:#b77149;stroke-linecap:round;stroke-linejoin:round;stroke-width:3px"/><path d="M92.9,530.79l-.27,19.41c0,3.21.09,6.86,2.49,9a5.78,5.78,0,0,0,7.37,0" style="fill:none;stroke:#b77149;stroke-linecap:round;stroke-linejoin:round;stroke-width:3px"/><path d="M267.14,528.52l-1,27.24a16.08,16.08,0,0,1-1,6,5.46,5.46,0,0,1-4.66,3.45" style="fill:none;stroke:#b77149;stroke-linecap:round;stroke-linejoin:round;stroke-width:3px"/><path d="M161.78,269.67a7.81,7.81,0,0,1,6.08,6.05" style="fill:none;stroke:#b77149;stroke-linecap:round;stroke-linejoin:round;stroke-width:3px"/><path d="M169.25,262.88a10.62,10.62,0,0,1,9.72,7.95" style="fill:none;stroke:#b77149;stroke-linecap:round;stroke-linejoin:round;stroke-width:3px"/><path d="M13.44,345.55a30.21,30.21,0,0,1,21.09-16.12,30.22,30.22,0,0,1,25.57,7.14" style="fill:none;stroke:#d9f4f1;stroke-linecap:round;stroke-linejoin:round;stroke-width:4px"/><path d="M233.11,640.69c54.12-20,95.25-71.49,102.72-128.69" style="fill:none;stroke:#d9f4f1;stroke-linecap:round;stroke-linejoin:round;stroke-width:4px"/><path d="M289.4,103.5c19.17-47.09,60-65,89-69" style="fill:none;stroke:#86bab3;stroke-linecap:round;stroke-linejoin:round;stroke-width:3px"/><path d="M372.4,142.5c13-37,17-47,28-88" style="fill:none;stroke:#86bab3;stroke-linecap:round;stroke-linejoin:round;stroke-width:3px"/><path d="M455.4,169.5c11.34-41.07,3.34-76.72-19-113" style="fill:none;stroke:#86bab3;stroke-linecap:round;stroke-linejoin:round;stroke-width:3px"/></g></g></svg>