<svg xmlns="http://www.w3.org/2000/svg" viewBox="0 0 3431.8 610.3"><g id="a1ffed68-5f70-485f-83c0-e1e4f1c06f91" data-name="Layer 2"><g id="b39816fb-86cb-480d-be70-23c6ab595d7d" data-name="Layer 1"><path d="M2777.4,189.65a72.46,72.46,0,0,1-114.57.6,180,180,0,1,0,114.57-.6Z" style="fill:#bdefea"/><path d="M2719.88,218a72.38,72.38,0,0,0,57.52-28.39,180.76,180.76,0,0,0-114.57.6A72.35,72.35,0,0,0,2719.88,218Z" style="fill:#86bab3"/><polygon points="2681.57 36.77 2805.39 68.63 2811.39 25.63 2735.4 16.27 2698.67 0 2681.57 36.77" style="fill:#f28fc3"/><path d="M2655.77,72.19,2811.34,112l-.85-8.11q-.39-3.67-.79-7.35-.78-7.17-1.57-14.32-.93-8.52-1.86-17L2682.62,33.63Z" style="fill:#c981aa"/><path d="M2655.4,72.67c-.45,1.77,6.9,5.35,19.29,9.8a72.61,72.61,0,0,1,11.16-7.67C2667.8,71.52,2655.94,70.53,2655.4,72.67Z" style="fill:#6b495c"/><path d="M2782.38,99.34a73,73,0,0,1,6.23,12.24c13.46,2.14,21.95,2.56,22.41.76C2811.58,110.16,2800.32,105.23,2782.38,99.34Z" style="fill:#6b495c"/><path d="M2788.61,111.58a73,73,0,0,0-6.23-12.24c-13-4.26-29.41-9-47.44-13.62-18.44-4.7-35.51-8.46-49.09-10.92a72.49,72.49,0,1,0,102.76,36.78Z" style="fill:#bdefea"/><path d="M2674.87,72.89c-1.65,9.49-3.39,19.07-7.25,27.9s-10,17-18.65,21.31-19.76,4.27-27.29-1.74" style="fill:none;stroke:#c981aa;stroke-linecap:round;stroke-miterlimit:10;stroke-width:9px"/><path d="M2796,101.16c.24,10.91,8,20.1,15.89,27.62s16.74,14.91,20.37,25.2" style="fill:none;stroke:#c981aa;stroke-linecap:round;stroke-miterlimit:10;stroke-width:9px"/><path d="M2708.58,244.56l15.74,22.08" style="fill:none;stroke:#6b495c;stroke-linecap:round;stroke-linejoin:round;stroke-width:4px"/><path d="M2702.58,263.76l26.89-18.92" style="fill:none;stroke:#6b495c;stroke-linecap:round;stroke-linejoin:round;stroke-width:4px"/><path d="M2687.29,149.09a2.68,2.68,0,0,0,2.07,4.3l20.55.54c5.05.13,10.6.1,14.48-3.13,4.37-3.63,5.05-10.49,2.57-15.61-1.73-3.55-6.29-8.83-10.43-9.65-4.88-1-8.85,3.17-12.39,5.89C2697.49,136.53,2692.32,142.47,2687.29,149.09Z" style="fill:#e0a57e"/><path d="M2689.37,179.2c14.33-9.77,43.65-16.94,71.67-3.91" style="fill:none;stroke:#6b495c;stroke-linecap:round;stroke-linejoin:round;stroke-width:4px"/><circle cx="2581.01" cy="229.63" r="42.51" style="fill:#bdefea"/><circle cx="2855.11" cy="225.61" r="42.51" style="fill:#bdefea"/><path d="M2665.66,348.52l4.12,51.28c.7,8.63,1.28,17.83-2.89,25.42-4,7.34-11.75,11.75-19.09,15.8-6,3.32-13.59,6.62-19.35,2.88-5.36-3.48-5.86-11-5.8-17.38l.28-28c.08-8.42-1.87-19.84.25-27.93,1.83-7,10.59-8.3,17.07-11.1C2642.67,358.46,2665.77,349.9,2665.66,348.52Z" style="fill:#e0a57e"/><path d="M2769.8,350.52l-4.12,51.28c-.7,8.63-1.28,17.83,2.89,25.42,4,7.34,11.75,11.75,19.09,15.8,6,3.32,13.58,6.62,19.35,2.88,5.36-3.48,5.86-11,5.8-17.38l-.28-28c-.08-8.42,1.87-19.84-.25-27.93-1.83-7-10.59-8.3-17.07-11.1C2792.79,360.46,2769.69,351.9,2769.8,350.52Z" style="fill:#e0a57e"/><circle cx="2694.89" cy="113.13" r="7.5" style="fill:#6b495c"/><circle cx="2740.89" cy="120.13" r="7.5" style="fill:#6b495c"/><path d="M2707.07,287.72,2724,308.91" style="fill:none;stroke:#6b495c;stroke-linecap:round;stroke-linejoin:round;stroke-width:4px"/><path d="M2702.13,307.22,2728,286.86" style="fill:none;stroke:#6b495c;stroke-linecap:round;stroke-linejoin:round;stroke-width:4px"/><path d="M2622.74,378.4l43-10.68" style="fill:none;stroke:#b77149;stroke-linecap:round;stroke-linejoin:round;stroke-width:3px"/><path d="M2768.17,368.49a272.06,272.06,0,0,1,44.11,15.38" style="fill:none;stroke:#b77149;stroke-linecap:round;stroke-linejoin:round;stroke-width:3px"/><path d="M2628.08,376.63l1.07-11.72" style="fill:none;stroke:#b77149;stroke-linecap:round;stroke-linejoin:round;stroke-width:3px"/><path d="M2639.71,374.34l-.22-13.69" style="fill:none;stroke:#b77149;stroke-linecap:round;stroke-linejoin:round;stroke-width:3px"/><path d="M2651.51,371.71l-2.24-14.62" style="fill:none;stroke:#b77149;stroke-linecap:round;stroke-linejoin:round;stroke-width:3px"/><path d="M2661.62,368.46l-1.06-16.61" style="fill:none;stroke:#b77149;stroke-linecap:round;stroke-linejoin:round;stroke-width:3px"/><path d="M2666.36,367.17V348.93" style="fill:none;stroke:#b77149;stroke-linecap:round;stroke-linejoin:round;stroke-width:3px"/><path d="M2766.5,367.46l2.55-16.57" style="fill:none;stroke:#b77149;stroke-linecap:round;stroke-linejoin:round;stroke-width:3px"/><path d="M2777.13,370.75V354.46" style="fill:none;stroke:#b77149;stroke-linecap:round;stroke-linejoin:round;stroke-width:3px"/><path d="M2787.42,374.66l.56-16" style="fill:none;stroke:#b77149;stroke-linecap:round;stroke-linejoin:round;stroke-width:3px"/><path d="M2798.22,378.24l1.17-14" style="fill:none;stroke:#b77149;stroke-linecap:round;stroke-linejoin:round;stroke-width:3px"/><path d="M2769.09,350.3l43.58,18" style="fill:none;stroke:#b77149;stroke-linecap:round;stroke-linejoin:round;stroke-width:3px"/><path d="M2623.11,371.42a7.74,7.74,0,0,1,3-6.16,22.68,22.68,0,0,1,6.24-3.37l31.94-13.15" style="fill:none;stroke:#b77149;stroke-linecap:round;stroke-linejoin:round;stroke-width:3px"/><path d="M2631.39,399.42l-.27,19.41c0,3.21.09,6.85,2.49,9a5.78,5.78,0,0,0,7.37,0" style="fill:none;stroke:#b77149;stroke-linecap:round;stroke-linejoin:round;stroke-width:3px"/><path d="M2805.63,397.14l-1,27.25a16.06,16.06,0,0,1-1,6,5.45,5.45,0,0,1-4.66,3.46" style="fill:none;stroke:#b77149;stroke-linecap:round;stroke-linejoin:round;stroke-width:3px"/><path d="M2700.27,138.3a7.78,7.78,0,0,1,6.08,6" style="fill:none;stroke:#b77149;stroke-linecap:round;stroke-linejoin:round;stroke-width:3px"/><path d="M2707.74,131.51a10.62,10.62,0,0,1,9.72,7.94" style="fill:none;stroke:#b77149;stroke-linecap:round;stroke-linejoin:round;stroke-width:3px"/><path d="M2551.93,214.18a29.75,29.75,0,0,1,46.66-9" style="fill:none;stroke:#d9f4f1;stroke-linecap:round;stroke-linejoin:round;stroke-width:4px"/><path d="M2549.31,381.2c-2.53.15-5.38.4-6.88,1.62-1.29,1.05-1.14,2.47-.93,3.77A2.43,2.43,0,0,0,2542,388c.81.9,2.74,1.23,4.46,1.24a13.5,13.5,0,0,0,5.85-1.12c1.6-.8,2.55-2.1,2.11-3.32s-2.44-2.21-4.52-2.09" style="fill:#bdefea"/><path d="M2549.31,379.7c-2.6.15-5.68.26-7.81,2a4.49,4.49,0,0,0-1.64,3.55A5.73,5.73,0,0,0,2541,389a5.81,5.81,0,0,0,3.45,1.51,16.55,16.55,0,0,0,4.39,0c2.66-.33,6.16-1.29,7.09-4.18,1.12-3.48-3.22-5.32-6-5.21a1.54,1.54,0,0,0-1.5,1.5,1.5,1.5,0,0,0,1.5,1.5,4.55,4.55,0,0,1,2.53.56,1.28,1.28,0,0,1,.33.24s.3.32.17.17c.14.16.09.13.05,0s.07.25,0,.11a.69.69,0,0,1,0,.24c-.09.24.09-.16,0,.09l-.13.22s-.23.24-.31.32a4.37,4.37,0,0,1-1.16.73,9.73,9.73,0,0,1-2.59.69,14.81,14.81,0,0,1-3.26.1,4.93,4.93,0,0,1-2.29-.6c.14.09-.14-.13-.17-.17s-.07-.29-.08-.35a4.82,4.82,0,0,1-.14-1,1.66,1.66,0,0,1,.6-1.66A6.5,6.5,0,0,1,2546,383a28.66,28.66,0,0,1,3.33-.33,1.54,1.54,0,0,0,1.5-1.5,1.51,1.51,0,0,0-1.5-1.5Z" style="fill:#bdefea"/><path d="M2897,376.63c1.9,2.68,5.5,4.39,6.95,7.38,2.13,4.39-1.32,9-5.94,7.34a6.82,6.82,0,0,1-3-10.63" style="fill:#bdefea"/><path d="M3213.93,438.54c-80.88,34.67-124.42-4.3-229.45,8.21a13.1,13.1,0,0,0-5-10.39c-4.26-3.17-9.71-3.09-15.2-3,.25-.66.47-1.34.67-2,3.07-10.94-3-24.34-14-27.2-3.54-.92-7.94-1.16-9.7-4.38-1.43-2.63-.26-5.83,0-8.82A14.73,14.73,0,0,0,2929,375.56c-3.24-.44-7.26-.08-9-2.84-.88-1.39-.84-3.14-.83-4.78,0-5.26-.79-11-4.71-14.54-2.2-2-5.12-2.95-7.34-4.87-4.8-4.16-5.16-11.29-6.44-17.51s-5.52-13.27-11.84-12.68l.39,10.93c-3.81,7.58-3.58,16.48-3.27,25a268.08,268.08,0,0,0,2.07,28.48,136.39,136.39,0,0,0,5.14,22.22h0l-3.9,8.12a7,7,0,0,0-3.83,1.46,18.71,18.71,0,0,0-4.05,4.91A278,278,0,0,1,2860.69,447c-5.33,6.25-11,12.3-15.15,19.37-3.71,6.28-6.2,13.55-5.77,20.78-100.9,38.17-179.48,10.11-235.7-4.07,1.19-18.25,1.38-36.6-3.37-54.16-4.45-16.47-14.16-32.31-28-41.78.56-1.09,1.11-2.19,1.66-3.29,3.13-6.25,6.16-12.73,6.89-19.68s-1.2-14.55-6.58-19c-6.59-5.49-16.15-4.92-24.69-4.06v-2.62a19.18,19.18,0,0,0-14.24,17.73c-.05,2.62.43,5.39-.69,7.76-1.32,2.77-4.42,4.18-6.4,6.52-5.29,6.24-1.68,17.6-8.21,22.52-3.71,2.8-8.87,2-13.48,2.54a21.88,21.88,0,0,0-18.06,15.67c-1,3.62-1.12,7.76-3.71,10.47-2,2.11-5.05,2.83-7.92,3.3-6.58,1.06-13.32,1.32-19.67,3.31s-12.5,6.17-14.69,12.45c-1.39,4-1.18,8.65-3.76,12-3.79,4.87-11.59,4.45-16.14,8.63a9.87,9.87,0,0,0-1.48,1.76c-131.21-2.33-221.6,24-388.28,39.94-185.33,17.73-466-29.76-731.73-21.58-166.75,5.13-462.68,24.42-742.15,41.13C271,539.84,1.5,500.44,1.5,500.44V608.16H3430.3V401.44S3361.76,375.19,3213.93,438.54Z" style="fill:#bdefea"/><path d="M3213.53,437.1c-38.9,16.12-76.64,15.86-117.71,10.88-20.82-2.53-41.63-4.92-62.63-5.25-12.17-.19-24.29,1.32-36.39,1.26-12.91-.06-8.71-3.07-16.54-8.93-3.43-2.56-7.2-1.1-10.12-3.11-6.72-4.63-.25,4.79-2.94-4.79-1.63-5.81-.85-11.47-4.88-16.79-4.65-6.13-9.41-4.45-14.67-8.49-6.64-5.11-3.55-14-7.27-20.24-3-5-7.32-4.6-11.34-7.58-8.69-6.42-8.13-14.09-13.49-21.72-3.52-5-9.76-7.72-12-14.57-1.21-3.68-1.06-7.66-2.66-11.27-2.42-5.47-5.54-8.76-11.61-9.61a1.53,1.53,0,0,0-1.9,1.45c.26,7.41-1.24,12.87-2.45,20.15-1.73,10.51-.42,22.28.42,32.86.78,9.7,3.76,18.95,4.78,28.5,1,9.1-4.3,11.44-9.09,17.49-8.68,10.94-16.42,22.52-25.43,33.27-5.89,7-11.85,14.07-15,22.82-4.61,12.87-9.24,15.52-23,19.58a288.86,288.86,0,0,1-43.91,9.38c-44.26,5.87-88.21,0-131.23-10.81-7.87-2-15.7-4.08-23.53-6.16-5.07-1.34-9.55-1.28-12-5.65-2.93-5.18-.58-15.11-.75-21-.58-19.83-4.59-39.76-16.18-56.23-3.06-4.34-7.06-7.69-10.35-11.75-3.7-4.56-3.44-5-1.71-10.91,2-6.89,5.35-12.85,4.86-20.32-.46-7.07-3.47-13.24-9.52-17-4-2.48-21.82-4.23-21.82-4.08a1.51,1.51,0,0,0-1.9-1.45c-5.15,2.06-9.34,4.26-12.33,9.21-3.54,5.84-1,3.27-2.95,9.57-3.57,11.44-3.59,6.91-6.71,13.62-2.41,5.17-2.3,11.79-4.74,16.54-5,9.78-20.2,6.84-28,13.43-4.08,3.45-4.86,7.09-7.39,11.42-5.79,9.91-8.79,12.1-20.1,14-3.4.57-6.87.92-10.15,2.07-17.3,6-17.69,27.31-34.94,33.21-16.29,5.56-39.6,1.53-56.92,2.28-20.91.92-41.78,2.56-62.59,4.72-37.54,3.89-74.89,9.44-112.24,14.84-91,13.17-181.66,24.71-273.78,23.51C1822,504.17,1727.47,496.24,1633,490c-106-7-212.36-12.91-318.68-10.34-79.17,1.91-158.32,6.35-237.39,10.67-99.18,5.42-198.33,11.44-297.47,17.47-108.82,6.62-217.8,15.55-326.83,17.34C302.69,527.56,150.45,520.63,1.9,499A1.52,1.52,0,0,0,0,500.44V608.16a1.52,1.52,0,0,0,1.5,1.5H3291.12c44.36,0,89,1.44,133.35,0,1.94-.06,3.89,0,5.83,0a1.52,1.52,0,0,0,1.5-1.5V401.44a1.54,1.54,0,0,0-1.1-1.44c-16.76-6.29-37.17-6-54.66-5.2-56.38,2.44-111.32,20.63-162.86,42.45-1.78.75-.25,3.33,1.51,2.59,61.48-26,139-54,207.14-39.12,1.58.34,8.25,2.46,7.5,1.48-.44-.59-.53,10.36-.53,12.42v160.6c0,8.84-.48,17.82,0,26.64.19,3.49-1.39,6.45,1.39,4.8-2.86,1.7-11.94,0-15.13,0H8.51c-1.52,0-4.9.67-6.3,0-1.82-.86,1.57,2.33.79,1-2.84-5,0-20.4,0-25.91,0-25.38,2.42-52.05,0-77.32-.4-4.16-3.21-3.18,2-1.95,5.83,1.38,12.2,1.64,18.12,2.39,179.52,22.65,362.1,29.65,542.71,18.88,215.09-12.82,430.13-27.47,645.39-37.22,100.74-4.56,201.09-5.43,301.86-.58,109.36,5.25,218.45,15.08,327.82,20.12a1613.83,1613.83,0,0,0,291-12.88c89.34-11.94,178.32-28.2,268.74-28.67,14.15-.07,27.25,1.21,38.27-9.52,1.79-1.74,2.13-3.53,3.55-5.54,5.58-7.95,10.1-17.54,20.41-20.89,7.13-2.32,17.35.06,23.28-5.67,6.67-6.45,4.61-16.89,13.69-23.33,6.77-4.8,16.94-.48,23-6.94,2-2.14,1.83-2.56,3-5.83,2.4-6.8,3.79-11.53,7.42-18.32.81-1.52,2.46-2.57,3.33-4.08,3-5.3,12-23.37,12-23.27a1.51,1.51,0,0,0,1.5,1.5c14-1.17,28.07,4,29.13,19.94.58,8.74-3.89,16.33-7.71,23.85a1.55,1.55,0,0,0,.54,2.05c30.18,22.73,32.63,59.88,30.6,94.65a1.52,1.52,0,0,0,1.1,1.45c33.59,8.56,66.87,18.21,101.49,21.72,46.16,4.67,91.5-1.71,135-17.65a1.58,1.58,0,0,0,1.11-1.45c.81-21.76,19.24-36.54,31.5-52.86,2.86-3.81,5.28-8.09,8.33-11.73,2.55-3.06,6.33-5.12,8.77-8.14,1.55-1.92,4.43-6.21,4.62-8.74.76-10.19-5.26-23.68-6.15-34.33-1.29-15.6,1-29.47,2.33-44.57.12-1.31-.93-4.92-.21-5.95,1.77-2.52,8.52,11.91,9.67,15.36,1.4,4.21,1.67,8.1,4.53,11.59s.65.15,3.57,3.25c6.5,6.9,7.61,8.8,9.47,16.91.8,3.45.87,4.31,2.47,6.77,1.32,2,3.84.75,5.48,2,1.23,1,12.91,17.66,13.47,18.76s-.1,4,.76,4.85a27.29,27.29,0,0,0,3.48,3.23c2,1.43,5.06,1,7.2,2,11.11,5.38,15.87,16.47,12.3,27.37a1.51,1.51,0,0,0,1.44,1.9L2983,447.15a1.49,1.49,0,0,0,1.44,1.1c42.62-4.72,83.5-.13,125.82,4.43,36.34,3.92,70,1.42,104-12.69C3216.09,439.26,3215.32,436.36,3213.53,437.1Z" style="fill:#bdefea"/><path d="M2556.88,272.38c-.38,5-3.48,9.54-3.71,14.56a13,13,0,0,0,19.23,12c4.73-2.59,7.35-7.78,9.45-12.76,3.92-9.33,7-19.23,6.79-29.35a7.76,7.76,0,0,0-.91-4.09,8.26,8.26,0,0,0-3.67-2.67,95.28,95.28,0,0,0-25.58-7.64l-11.25,10.72C2552.17,258.64,2557.44,265,2556.88,272.38Z" style="fill:#bdefea"/><path d="M2555.38,272.38c-.51,5.58-4.19,10.48-3.68,16.23a14.49,14.49,0,0,0,23,10.62c4.13-3,6.48-7.7,8.42-12.29a94.63,94.63,0,0,0,5.77-17.65,58.72,58.72,0,0,0,1.2-9.24c.11-2.59.37-5.78-1.08-8.06s-4.34-3.31-6.75-4.33c-2.81-1.2-5.67-2.28-8.58-3.21s-5.91-1.73-8.92-2.38q-2.25-.49-4.53-.87c-1-.16-2-.5-2.86.21-2.08,1.67-3.93,3.74-5.86,5.58l-5.36,5.1a1.53,1.53,0,0,0,0,2.12c4.53,5,9.65,10.94,9.21,18.17-.12,1.92,2.88,1.92,3,0,.49-8.05-5-14.67-10.09-20.29v2.12l11.25-10.71-1.46.38a94.14,94.14,0,0,1,24.38,7.11c1.52.68,3.53,1.37,4.24,3s.49,3.83.42,5.59a57.31,57.31,0,0,1-1.94,12.48,98.14,98.14,0,0,1-4.08,12,41.69,41.69,0,0,1-4.93,9.54,12.77,12.77,0,0,1-8.62,5.31,11.56,11.56,0,0,1-9.53-3.28,11.88,11.88,0,0,1-3.08-10.79c.9-4.25,3-8.1,3.44-12.48C2558.55,270.45,2555.55,270.47,2555.38,272.38Z" style="fill:#bdefea"/><path d="M2854.56,285.34a36.3,36.3,0,0,0,19.7,11.86c3.32.73-.46,43.4,2.76,42.29,4.47-1.55,8.67-11.51,10.86-15.22,4.57-7.75,9.9-15.36,7-24.73-1.37-4.47-3.95-8.46-6.67-12.26a9.77,9.77,0,0,1-2.13-4.37c-.16-1.54.44-3,.74-4.57,1.25-6.4-3.53-10.94-3.84-16.9-.25-4.68,3.33-8.06,5.74-11.65,3.83-5.71,5.7-9.64,6.37-16.47l-6.43-3.19c-1.21-3-4.75-4.46-7.94-4.18s-6.08,2-8.69,3.81a60.92,60.92,0,0,0-21.57,27.82c-1.66,4.35-2.83,9-2.39,13.63A26.18,26.18,0,0,0,2854.56,285.34Z" style="fill:#bdefea"/><path d="M2853.5,286.41a38.19,38.19,0,0,0,9.71,8.06,39.16,39.16,0,0,0,5.63,2.67c.94.36,1.9.68,2.87,1l1.56.41c.1,0,.5.17.59.13s-.27-.14-.21-.08c-.11-.11-.27-.23-.25-.23s-.17,0,0,0,.14.35,0,0c0,.12.09.24.12.36s.12.48.17.73l.09.45c0,.1.08.55,0,.24a50,50,0,0,1,.35,5.33c.27,9.45-.38,18.92,0,28.37a29.89,29.89,0,0,0,.46,4.63c.21,1,.65,2.22,1.77,2.51s2.16-.49,2.95-1.07a15.75,15.75,0,0,0,3.15-3.32,63.51,63.51,0,0,0,5.12-8.73c3.55-6.83,8.63-13.17,9.46-21.07.47-4.5-.87-8.85-2.91-12.82a51.84,51.84,0,0,0-3.53-5.8c-1.15-1.67-3-3.56-3.1-5.69a16.91,16.91,0,0,1,.72-3.71,14,14,0,0,0,.25-3.09,18,18,0,0,0-1.26-5.49c-1.29-3.39-3.51-7.15-2.58-10.91s4-6.64,6-9.75a36,36,0,0,0,4.87-10.26,37.18,37.18,0,0,0,1-5.92,1.45,1.45,0,0,0-.74-1.3l-4.09-2c-.69-.34-1.37-.7-2.07-1a.81.81,0,0,0-.21-.1c.12,0,.39.43.18-.11a5.78,5.78,0,0,0-1.36-1.75c-5.43-5.18-13-1.56-18,2.16a62.93,62.93,0,0,0-14.3,14.74,54.88,54.88,0,0,0-8.88,19.52,24.81,24.81,0,0,0,.37,12.43,30.63,30.63,0,0,0,6,10.55c1.25,1.48,3.36-.66,2.13-2.13-4.43-5.27-6.93-11.75-5.84-18.68,1-6.51,4.06-12.83,7.6-18.34a59.8,59.8,0,0,1,12.54-14c4-3.26,11.13-8.68,16.15-4.23.83.72,1.07,1.93,2,2.48.63.37,1.33.66,2,1l4.29,2.12-.74-1.29a29,29,0,0,1-3,10.58c-1.81,3.45-4.2,6.42-6.38,9.62a12.92,12.92,0,0,0-2.29,10.67c.84,3.57,3,6.76,3.53,10.4.34,2.15-.29,4-.67,6.09a8,8,0,0,0,1.24,6c2.43,3.84,5.26,7.32,6.89,11.61a18.14,18.14,0,0,1,.42,12.14c-1.22,4-3.44,7.58-5.57,11.13-1.58,2.64-2.95,5.37-4.43,8.07s-3,5.71-5.45,7.66c-.27.22-1.11.52-1.25.76.14-.25,1,.22,1.06.27-.16-.09.3.3.1.12s0-.1,0,.11c0-.21-.13-.41-.18-.61s-.1-.47-.14-.7c0-.07-.08-.56,0-.18l-.06-.52c-.08-.79-.13-1.58-.17-2.38-.45-9.18.16-18.39,0-27.58,0-1.85-.1-3.7-.28-5.54a11.62,11.62,0,0,0-.81-3.92,2.49,2.49,0,0,0-1-1.14,5.14,5.14,0,0,0-1.49-.45c-1-.26-2.07-.57-3.08-.93a34.51,34.51,0,0,1-10.67-6,36.73,36.73,0,0,1-4.29-4.26C2854.36,282.82,2852.25,285,2853.5,286.41Z" style="fill:#bdefea"/><path d="M2647.06,474.86a6.11,6.11,0,0,0-3.26.16c-1.93.44-3.78,1.15-5.72,1.5a41.59,41.59,0,0,1-5.89.53c-14.39.49-27.26-2.22-41.51-6.86a128.92,128.92,0,0,1-26.35-12.14,68.69,68.69,0,0,0-17.62-7.78c-2.5-.67-14.6-3.8-14.38,1.59.08,2,1.86,3.68,3.79,4.36a23.18,23.18,0,0,0,6.07.79c8.85.65,17,5.07,24.35,10s14.36,10.61,22.46,14.25c16.63,7.49,38.71,5.73,53.13.52,2-.74,5.57-2.24,6-4.75a2.32,2.32,0,0,0-.1-1.25A1.67,1.67,0,0,0,2647.06,474.86Z" style="fill:#86bab3"/><path d="M2774,484.1a4,4,0,0,0,1.57,2c1.15.79,5,.3,6.43.38,5,.28,9.92.4,14.92.27,8.51-.23,17-.37,25.5-1.37,3.43-.4,24.67-2.8,25.11-7.05.34-3.27-13.16.65-15,1-8,1.66-16.16,3.28-24.37,3.46a192.82,192.82,0,0,1-28.62-1.89,8.17,8.17,0,0,0-3.65.08C2774,481.61,2773.59,482.89,2774,484.1Z" style="fill:#86bab3"/><path d="M2894.45,319l-.61-1.2a27.09,27.09,0,0,0-9.89,5.8,11.32,11.32,0,0,1-3.65,2.72c-2.12.76-5,.18-6.2,2.1-1,1.73.48,4,2.37,4.76s4,.51,6,.84c2.15.35,4.19,1.36,6.37,1.4a7.5,7.5,0,0,0,6.47-3.56C2897.59,328,2896.05,323.11,2894.45,319Z" style="fill:#86bab3"/><path d="M2530.5,388c3.21.9,5,4.28,6,7.46s1.67,6.65,4,9.05,5.95,3.36,7.64,6.21a6.56,6.56,0,0,1-1.36,8,7.35,7.35,0,0,1-8.19.81,39.24,39.24,0,0,1-3.81-2.88c-3.57-2.57-8.24-3.05-12.63-2.8-2.47.14-5.23.39-7.13-1.18s-2.17-4.25-1.62-6.56c1.18-4.94,5.48-8.43,9.51-11.52l7.76-6" style="fill:#86bab3"/></g></g></svg>