<svg xmlns="http://www.w3.org/2000/svg" viewBox="0 0 418.7 496.87"><g id="e2048571-1b67-4068-a482-f13444677356" data-name="Layer 2"><g id="ece0678d-608d-4c02-bd19-ef83a9abdd63" data-name="Layer 1"><path d="M265.77,189.65a72.46,72.46,0,0,1-114.57.6A180.1,180.1,0,0,0,55.28,453.69c-10.37,1.94-14.19,10.55-25.69,12.42-31.92,5.22-33.15,17.77-26.06,22.81,8.3,5.9,66.8,6.46,104.91,7.82,33.42,1.19,65.55-6.24,93.57-6.24,19.5-.05,37.62,3.63,56.94,3.63,25,0,25.64-2.18,63.21-5.21,29.13-2.35,41.18,3.18,70.37,1.3,4.41-.28,21.5,1.31,25.41-8.47,4.88-12.2-14.94-15-22.16-15-11.33,0-19.54-10.76-34.78-9.5a128.72,128.72,0,0,0,9.13-15.54A180.13,180.13,0,0,0,265.77,189.65Z" style="fill:#bdefea"/><path d="M208.25,218a72.38,72.38,0,0,0,57.52-28.39,180.76,180.76,0,0,0-114.57.6A72.36,72.36,0,0,0,208.25,218Z" style="fill:#86bab3"/><polygon points="169.94 36.77 293.76 68.63 299.76 25.63 223.78 16.27 187.05 0 169.94 36.77" style="fill:#f28fc3"/><path d="M144.14,72.19,299.71,112l-.85-8.11c-.26-2.45-.51-4.9-.78-7.35q-.79-7.17-1.57-14.32c-.62-5.68-1.26-11.35-1.87-17L171,33.63Z" style="fill:#c981aa"/><path d="M163.07,82.47A72.5,72.5,0,1,0,277,111.58c-14.52-2.3-34.83-6.61-57.13-12.29C197.15,93.5,177,87.45,163.07,82.47Z" style="fill:#bdefea"/><path d="M143.77,72.67c-.45,1.77,6.9,5.35,19.3,9.8a72.13,72.13,0,0,1,11.16-7.67C156.17,71.52,144.32,70.53,143.77,72.67Z" style="fill:#6b495c"/><path d="M270.75,99.34A71.5,71.5,0,0,1,277,111.58c13.46,2.14,22,2.56,22.42.76C300,110.16,288.69,105.23,270.75,99.34Z" style="fill:#6b495c"/><path d="M223.31,85.72C204.87,81,187.8,77.26,174.23,74.8a72.13,72.13,0,0,0-11.16,7.67c13.88,5,34.08,11,56.78,16.82,22.3,5.68,42.61,10,57.13,12.29a71.5,71.5,0,0,0-6.23-12.24C257.79,95.08,241.34,90.31,223.31,85.72Z" style="fill:#bdefea"/><path d="M163.24,72.89c-1.65,9.49-3.39,19.07-7.24,27.9s-10.06,17-18.65,21.31-19.77,4.27-27.3-1.74" style="fill:none;stroke:#c981aa;stroke-linecap:round;stroke-miterlimit:10;stroke-width:9px"/><path d="M284.37,101.16c.25,10.91,8,20.1,15.89,27.62S317,143.69,320.63,154" style="fill:none;stroke:#c981aa;stroke-linecap:round;stroke-miterlimit:10;stroke-width:9px"/><path d="M197,244.56l15.74,22.08" style="fill:none;stroke:#6b495c;stroke-linecap:round;stroke-linejoin:round;stroke-width:4px"/><path d="M191,263.76l26.9-18.92" style="fill:none;stroke:#6b495c;stroke-linecap:round;stroke-linejoin:round;stroke-width:4px"/><path d="M175.66,149.09a2.68,2.68,0,0,0,2.07,4.3l20.56.54c5.05.13,10.59.1,14.48-3.13,4.37-3.63,5-10.49,2.56-15.61-1.72-3.55-6.29-8.83-10.43-9.65-4.88-1-8.84,3.17-12.39,5.89C185.86,136.53,180.7,142.47,175.66,149.09Z" style="fill:#e0a57e"/><path d="M177.68,172.68A82.71,82.71,0,0,0,245.15,157" style="fill:none;stroke:#6b495c;stroke-linecap:round;stroke-linejoin:round;stroke-width:4px"/><circle cx="69.38" cy="229.63" r="42.51" style="fill:#bdefea"/><circle cx="343.48" cy="225.61" r="42.51" style="fill:#bdefea"/><path d="M154,348.52l4.13,51.28c.69,8.63,1.27,17.83-2.9,25.42-4,7.34-11.75,11.75-19.09,15.8-6,3.32-13.58,6.62-19.34,2.88-5.36-3.48-5.87-11-5.81-17.38l.28-28c.08-8.42-1.87-19.84.26-27.93,1.82-7,10.58-8.3,17.07-11.1C131,358.46,154.14,349.9,154,348.52Z" style="fill:#e0a57e"/><path d="M258.18,350.52l-4.13,51.28c-.69,8.63-1.27,17.83,2.9,25.42C261,434.56,268.7,439,276,443c6,3.32,13.59,6.62,19.35,2.88,5.36-3.48,5.87-11,5.8-17.38l-.27-28c-.09-8.42,1.86-19.84-.26-27.93-1.82-7-10.59-8.3-17.07-11.1C281.17,360.46,258.07,351.9,258.18,350.52Z" style="fill:#e0a57e"/><circle cx="183.27" cy="113.13" r="7.5" style="fill:#6b495c"/><circle cx="229.27" cy="120.13" r="7.5" style="fill:#6b495c"/><path d="M195.45,287.72l16.93,21.19" style="fill:none;stroke:#6b495c;stroke-linecap:round;stroke-linejoin:round;stroke-width:4px"/><path d="M190.5,307.22l25.82-20.36" style="fill:none;stroke:#6b495c;stroke-linecap:round;stroke-linejoin:round;stroke-width:4px"/><path d="M111.12,378.4l43-10.68" style="fill:none;stroke:#b77149;stroke-linecap:round;stroke-linejoin:round;stroke-width:3px"/><path d="M256.55,368.49a272,272,0,0,1,44.1,15.38" style="fill:none;stroke:#b77149;stroke-linecap:round;stroke-linejoin:round;stroke-width:3px"/><path d="M116.46,376.63l1.06-11.72" style="fill:none;stroke:#b77149;stroke-linecap:round;stroke-linejoin:round;stroke-width:3px"/><path d="M128.08,374.34l-.22-13.69" style="fill:none;stroke:#b77149;stroke-linecap:round;stroke-linejoin:round;stroke-width:3px"/><path d="M139.88,371.71l-2.24-14.62" style="fill:none;stroke:#b77149;stroke-linecap:round;stroke-linejoin:round;stroke-width:3px"/><path d="M150,368.46l-1.06-16.61" style="fill:none;stroke:#b77149;stroke-linecap:round;stroke-linejoin:round;stroke-width:3px"/><path d="M154.74,367.17V348.93" style="fill:none;stroke:#b77149;stroke-linecap:round;stroke-linejoin:round;stroke-width:3px"/><path d="M254.87,367.46l2.55-16.57" style="fill:none;stroke:#b77149;stroke-linecap:round;stroke-linejoin:round;stroke-width:3px"/><path d="M265.5,370.75V354.46" style="fill:none;stroke:#b77149;stroke-linecap:round;stroke-linejoin:round;stroke-width:3px"/><path d="M275.8,374.66l.55-16" style="fill:none;stroke:#b77149;stroke-linecap:round;stroke-linejoin:round;stroke-width:3px"/><path d="M286.59,378.24l1.17-14" style="fill:none;stroke:#b77149;stroke-linecap:round;stroke-linejoin:round;stroke-width:3px"/><path d="M257.46,350.3l43.58,18" style="fill:none;stroke:#b77149;stroke-linecap:round;stroke-linejoin:round;stroke-width:3px"/><path d="M111.48,371.42a7.77,7.77,0,0,1,3-6.16,22.6,22.6,0,0,1,6.25-3.37l31.93-13.15" style="fill:none;stroke:#b77149;stroke-linecap:round;stroke-linejoin:round;stroke-width:3px"/><path d="M119.77,399.42l-.28,19.41c0,3.21.09,6.85,2.49,9a5.79,5.79,0,0,0,7.38,0" style="fill:none;stroke:#b77149;stroke-linecap:round;stroke-linejoin:round;stroke-width:3px"/><path d="M294,397.14l-1,27.25a15.86,15.86,0,0,1-1,6,5.44,5.44,0,0,1-4.65,3.46" style="fill:none;stroke:#b77149;stroke-linecap:round;stroke-linejoin:round;stroke-width:3px"/><path d="M188.65,138.3a7.77,7.77,0,0,1,6.07,6" style="fill:none;stroke:#b77149;stroke-linecap:round;stroke-linejoin:round;stroke-width:3px"/><path d="M196.11,131.51a10.62,10.62,0,0,1,9.72,7.94" style="fill:none;stroke:#b77149;stroke-linecap:round;stroke-linejoin:round;stroke-width:3px"/><path d="M40.3,214.18a29.75,29.75,0,0,1,46.66-9" style="fill:none;stroke:#d9f4f1;stroke-linecap:round;stroke-linejoin:round;stroke-width:4px"/><path d="M330.28,457.09c17.19-22.16,28.78-48.64,32.42-76.46" style="fill:none;stroke:#d9f4f1;stroke-linecap:round;stroke-linejoin:round;stroke-width:4px"/><path d="M168.42,464.47c-4-1.05-7.81-2.25-12.42-1.61-15.48,2.14-30,4.17-45.61,3-7.43-.57-14.79-1.76-22.14-2.94-4.06-.66-24.81-8.6-24.66.6.08,5.15,6,8.46,10.31,8.49a48.33,48.33,0,0,0,11-1.63,39,39,0,0,1,8.54-1.2c46.4-2.69,45.9,6.08,68,3.48,6.38-.75,13.38.62,19.5-1.74,1.13-.43,2.37-1.23,2.37-2.44a2.26,2.26,0,0,0-1.7-2c-2.75-.86-6-.62-8.91-1.08C171.21,465.16,169.8,464.82,168.42,464.47Z" style="fill:#86bab3"/><path d="M274.79,470a3.86,3.86,0,0,0,1.56,2c1.16.79,5,.3,6.43.38,5,.28,9.93.4,14.92.26,8.51-.23,17-.37,25.51-1.36,3.42-.4,24.66-2.8,25.11-7,.34-3.27-13.16.65-15.05,1-8,1.65-16.15,3.28-24.37,3.46a193,193,0,0,1-28.62-1.9,8.27,8.27,0,0,0-3.64.09C274.86,467.5,274.41,468.77,274.79,470Z" style="fill:#86bab3"/></g></g></svg>