<svg xmlns="http://www.w3.org/2000/svg" viewBox="0 0 665.93 683.9"><g id="fa3fca46-fb85-46d8-8308-a7dddb16cf19" data-name="Layer 2"><g id="a37a9914-71cc-439f-9d60-e20a7163c12d" data-name="Layer 1"><path d="M656.75,233.81a56.79,56.79,0,0,0-80.39-47.28,56.79,56.79,0,0,0-82.06-31.62,56.79,56.79,0,0,0-84.7-23.67,56.79,56.79,0,0,0-92.71-10.12l1.53.51-1.57-.39a56.77,56.77,0,0,0,80.39,47.27,56.77,56.77,0,0,0,82.06,31.62A56.79,56.79,0,0,0,564,223.8a56.77,56.77,0,0,0,92.71,10.12l-1.23-.53Z" style="fill:#86bab3;stroke:#86bab3;stroke-linecap:round;stroke-linejoin:round;stroke-width:3px"/><path d="M513.77,130.56c-.43-4.86-7.2-6.86-11.49-4.53s-6.52,7.12-8.44,11.61a1008.75,1008.75,0,0,0-61.92,200.72c.42-2.12,14-4.23,16.45-7.34,4.69-5.89,5.51-20.16,7.51-27.47q8-29.34,17.13-58.37Q491.24,187.13,513.77,130.56Z" style="fill:#c981aa"/><path d="M308.31,349.41A72.35,72.35,0,0,0,365.83,321a180.76,180.76,0,0,0-114.57.6A72.35,72.35,0,0,0,308.31,349.41Z" style="fill:#86bab3"/><polygon points="270 168.14 393.82 200 399.82 157 323.83 147.65 287.1 131.37 270 168.14" style="fill:#f28fc3"/><path d="M244.2,203.57l155.57,39.76-.85-8.1q-.39-3.69-.79-7.36-.78-7.16-1.57-14.32-.93-8.52-1.86-17L271.05,165Z" style="fill:#c981aa"/><path d="M243.83,204c-.45,1.77,6.9,5.36,19.29,9.8a72.61,72.61,0,0,1,11.16-7.67C256.23,202.89,244.37,201.9,243.83,204Z" style="fill:#6b495c"/><path d="M370.81,230.71A72.28,72.28,0,0,1,377,243c13.47,2.13,22,2.56,22.42.75C400,241.54,388.75,236.61,370.81,230.71Z" style="fill:#6b495c"/><path d="M377,243a72.28,72.28,0,0,0-6.22-12.25c-13-4.26-29.41-9-47.44-13.62-18.44-4.7-35.51-8.46-49.09-10.92A72.51,72.51,0,1,0,377,243Z" style="fill:#bdefea"/><path d="M263.3,204.26c-1.65,9.49-3.39,19.07-7.25,27.9s-10.05,17-18.65,21.32-19.76,4.26-27.29-1.75" style="fill:none;stroke:#c981aa;stroke-linecap:round;stroke-miterlimit:10;stroke-width:9px"/><path d="M384.43,232.54c.24,10.91,8,20.09,15.89,27.62s16.74,14.9,20.37,25.19" style="fill:none;stroke:#c981aa;stroke-linecap:round;stroke-miterlimit:10;stroke-width:9px"/><path d="M297,375.93,312.75,398" style="fill:none;stroke:#6b495c;stroke-linecap:round;stroke-linejoin:round;stroke-width:4px"/><path d="M291,395.13l26.9-18.91" style="fill:none;stroke:#6b495c;stroke-linecap:round;stroke-linejoin:round;stroke-width:4px"/><path d="M275.72,280.46a2.68,2.68,0,0,0,2.07,4.3l20.55.54c5.05.13,10.6.11,14.48-3.12,4.37-3.64,5.05-10.5,2.57-15.61-1.73-3.56-6.29-8.83-10.43-9.65-4.88-1-8.85,3.16-12.39,5.89C285.92,267.91,280.75,273.84,275.72,280.46Z" style="fill:#e0a57e"/><path d="M277.74,304.05a82.72,82.72,0,0,0,67.47-15.66" style="fill:none;stroke:#6b495c;stroke-linecap:round;stroke-linejoin:round;stroke-width:4px"/><path d="M511.13,613.53c-9.67,2.66-17.19-19.43-40.46-24.33-3.05-.65-8.52-2.06-3.81-10.93.95-1.79,2-3.63,2.95-5.57a180.21,180.21,0,0,0-8.47-177.11,42.51,42.51,0,1,0-56.43-56.36,179.37,179.37,0,0,0-39.46-18.61,72.46,72.46,0,0,1-114.57.6,179.5,179.5,0,0,0-43,21.53,42.52,42.52,0,1,0-54.06,57.78,180.23,180.23,0,0,0-3.33,176.23c1.44,2.67,2.25,6.59-.9,9.4-6.57,5.87-1.57,13.9-22,12.17-58.31-5-31.27,38.66-73,28.23s-89,22.15-18.24,41.7c56.6,15.63,97.74,19.55,165.5,11.73,36.27-4.18,73.13-8.64,109.47-5.21,62,5.85,95.78,11.23,156.38,1.3,31.87-5.22,85.15,11.77,110.12-13.8C622.53,616.47,541.38,605.2,511.13,613.53Z" style="fill:#bdefea"/><path d="M527.18,349.58c-4.81-1.27-8.7,3.64-12,7.35a40.69,40.69,0,0,1-15.07,10.3c-6.22,2.24-13.84,1.9-14.57,1.85-7.28-.48-13-3.34-19.09-7-3.75-2.23-8.16-5.89-12.84-3.58-13.54,6.69,3.6,20.67,10.56,23.57,12.22,5.09,25.82,7.9,38.76,5.12s25-11.94,28.66-24.66C533,357.65,532.11,350.88,527.18,349.58Z" style="fill:#c981aa"/><path d="M427.44,99.23A56.75,56.75,0,0,1,503.21,128a56.77,56.77,0,0,1,78,22.18A56.8,56.8,0,0,1,651.31,154,181.49,181.49,0,0,0,369,60.34a56.77,56.77,0,0,1,58.48,38.89Z" style="fill:#bdefea;stroke:#bdefea;stroke-linecap:round;stroke-linejoin:round;stroke-width:14px"/><path d="M377.61,104.5a56.6,56.6,0,0,1,32,26.74,56.79,56.79,0,0,1,84.7,23.67,56.79,56.79,0,0,1,82.06,31.62,56.79,56.79,0,0,1,80.39,47.28A180.5,180.5,0,0,0,651.31,154a56.8,56.8,0,0,0-70.13-3.75,56.77,56.77,0,0,0-78-22.18,56.75,56.75,0,0,0-75.77-28.79A56.77,56.77,0,0,0,369,60.34a180.54,180.54,0,0,0-52.07,60.78A56.79,56.79,0,0,1,377.61,104.5Z" style="fill:#bdefea;stroke:#bdefea;stroke-linecap:round;stroke-linejoin:round;stroke-width:14px"/><circle cx="537.17" cy="21.23" r="21.23" style="fill:#bdefea"/><path d="M254.09,479.9l4.12,51.27c.7,8.63,1.28,17.83-2.9,25.42-4,7.34-11.75,11.76-19.08,15.8-6,3.32-13.59,6.63-19.35,2.88-5.36-3.48-5.86-11-5.8-17.38l.28-28c.08-8.42-1.87-19.83.25-27.93,1.83-7,10.59-8.3,17.07-11.1C231.1,489.83,254.2,481.27,254.09,479.9Z" style="fill:#e0a57e"/><path d="M358.23,481.9l-4.12,51.27c-.7,8.63-1.28,17.83,2.89,25.42,4,7.34,11.75,11.76,19.09,15.8,6,3.32,13.58,6.63,19.35,2.88,5.36-3.48,5.86-11,5.8-17.38l-.28-28c-.08-8.42,1.87-19.83-.25-27.93-1.83-7-10.59-8.3-17.07-11.1C381.22,491.83,358.12,483.27,358.23,481.9Z" style="fill:#e0a57e"/><circle cx="283.32" cy="244.5" r="7.5" style="fill:#6b495c"/><circle cx="329.32" cy="251.5" r="7.5" style="fill:#6b495c"/><path d="M295.5,419.1l16.93,21.18" style="fill:none;stroke:#6b495c;stroke-linecap:round;stroke-linejoin:round;stroke-width:4px"/><path d="M290.56,438.6l25.82-20.36" style="fill:none;stroke:#6b495c;stroke-linecap:round;stroke-linejoin:round;stroke-width:4px"/><path d="M211.17,509.77l43-10.68" style="fill:none;stroke:#b77149;stroke-linecap:round;stroke-linejoin:round;stroke-width:3px"/><path d="M356.6,499.86a272.06,272.06,0,0,1,44.11,15.38" style="fill:none;stroke:#b77149;stroke-linecap:round;stroke-linejoin:round;stroke-width:3px"/><path d="M216.51,508l1.07-11.72" style="fill:none;stroke:#b77149;stroke-linecap:round;stroke-linejoin:round;stroke-width:3px"/><path d="M228.14,505.71,227.91,492" style="fill:none;stroke:#b77149;stroke-linecap:round;stroke-linejoin:round;stroke-width:3px"/><path d="M239.94,503.08l-2.24-14.61" style="fill:none;stroke:#b77149;stroke-linecap:round;stroke-linejoin:round;stroke-width:3px"/><path d="M250.05,499.84,249,483.23" style="fill:none;stroke:#b77149;stroke-linecap:round;stroke-linejoin:round;stroke-width:3px"/><path d="M254.79,498.54V480.3" style="fill:none;stroke:#b77149;stroke-linecap:round;stroke-linejoin:round;stroke-width:3px"/><path d="M354.93,498.84l2.55-16.58" style="fill:none;stroke:#b77149;stroke-linecap:round;stroke-linejoin:round;stroke-width:3px"/><path d="M365.56,502.13V485.84" style="fill:none;stroke:#b77149;stroke-linecap:round;stroke-linejoin:round;stroke-width:3px"/><path d="M375.85,506l.56-16" style="fill:none;stroke:#b77149;stroke-linecap:round;stroke-linejoin:round;stroke-width:3px"/><path d="M386.65,509.61l1.17-14" style="fill:none;stroke:#b77149;stroke-linecap:round;stroke-linejoin:round;stroke-width:3px"/><path d="M357.52,481.68l43.58,18" style="fill:none;stroke:#b77149;stroke-linecap:round;stroke-linejoin:round;stroke-width:3px"/><path d="M211.54,502.8a7.75,7.75,0,0,1,3-6.17,23.22,23.22,0,0,1,6.24-3.37l31.94-13.15" style="fill:none;stroke:#b77149;stroke-linecap:round;stroke-linejoin:round;stroke-width:3px"/><path d="M219.82,530.79l-.27,19.41c-.05,3.21.09,6.86,2.49,9a5.78,5.78,0,0,0,7.37,0" style="fill:none;stroke:#b77149;stroke-linecap:round;stroke-linejoin:round;stroke-width:3px"/><path d="M394.06,528.52l-1,27.24a16.08,16.08,0,0,1-1,6,5.46,5.46,0,0,1-4.66,3.45" style="fill:none;stroke:#b77149;stroke-linecap:round;stroke-linejoin:round;stroke-width:3px"/><path d="M288.7,269.67a7.81,7.81,0,0,1,6.08,6.05" style="fill:none;stroke:#b77149;stroke-linecap:round;stroke-linejoin:round;stroke-width:3px"/><path d="M296.17,262.88a10.62,10.62,0,0,1,9.72,7.95" style="fill:none;stroke:#b77149;stroke-linecap:round;stroke-linejoin:round;stroke-width:3px"/><path d="M140.36,345.55a29.75,29.75,0,0,1,46.66-9" style="fill:none;stroke:#d9f4f1;stroke-linecap:round;stroke-linejoin:round;stroke-width:4px"/><path d="M435.24,581.81A158.24,158.24,0,0,0,462.75,512" style="fill:none;stroke:#d9f4f1;stroke-linecap:round;stroke-linejoin:round;stroke-width:4px"/><path d="M416.32,103.5c19.17-47.09,60-65,89-69" style="fill:none;stroke:#86bab3;stroke-linecap:round;stroke-linejoin:round;stroke-width:3px"/><path d="M499.32,142.5c13-37,17-47,28-88" style="fill:none;stroke:#86bab3;stroke-linecap:round;stroke-linejoin:round;stroke-width:3px"/><path d="M582.32,169.5c11.34-41.07,3.34-76.72-19-113" style="fill:none;stroke:#86bab3;stroke-linecap:round;stroke-linejoin:round;stroke-width:3px"/><path d="M269.6,593c-4-1.05-7.81-2.25-12.42-1.61-15.48,2.14-30,4.17-45.62,3-7.42-.57-14.79-1.76-22.14-2.94-4-.66-24.8-8.6-24.66.6.09,5.15,6,8.46,10.32,8.49a47.32,47.32,0,0,0,11-1.63,38.3,38.3,0,0,1,8.53-1.19c46.41-2.7,45.91,6.07,68,3.47,6.38-.75,13.37.62,19.49-1.74,1.13-.43,2.38-1.23,2.37-2.44a2.25,2.25,0,0,0-1.69-2c-2.76-.86-6.06-.62-8.92-1.08C272.38,593.67,271,593.33,269.6,593Z" style="fill:#86bab3"/><path d="M338.79,598.08a4,4,0,0,0,1.56,2c1.16.79,5,.3,6.44.38,5,.28,9.92.4,14.91.27,8.51-.23,17.05-.37,25.51-1.37,3.43-.4,24.67-2.8,25.11-7.05.34-3.27-13.16.65-15.05,1-8,1.66-16.15,3.28-24.36,3.46a192.82,192.82,0,0,1-28.62-1.89,8.16,8.16,0,0,0-3.65.08C338.87,595.59,338.41,596.87,338.79,598.08Z" style="fill:#86bab3"/><path d="M297.63,374.13l15.75,22.08" style="fill:none;stroke:#6b495c;stroke-linecap:round;stroke-linejoin:round;stroke-width:4px"/><path d="M291.63,393.33l26.89-18.91" style="fill:none;stroke:#6b495c;stroke-linecap:round;stroke-linejoin:round;stroke-width:4px"/></g></g></svg>