<svg xmlns="http://www.w3.org/2000/svg" viewBox="0 0 452 178"><g id="aaa74fc1-b5c2-4267-8aa3-3a57b63bde14" data-name="Layer 2"><g id="b8d41f05-6f31-434f-91b4-866ecb762dd0" data-name="Layer 1"><path d="M402.93,178H49.07A49.12,49.12,0,0,1,0,128.93V49.07A49.12,49.12,0,0,1,49.07,0H402.93A49.12,49.12,0,0,1,452,49.07v79.86A49.12,49.12,0,0,1,402.93,178ZM49.07,14A35.11,35.11,0,0,0,14,49.07v79.86A35.11,35.11,0,0,0,49.07,164H402.93A35.11,35.11,0,0,0,438,128.93V49.07A35.11,35.11,0,0,0,402.93,14Z" style="fill:#86bab3"/><path d="M136.75,114.31V59.65a1.67,1.67,0,0,1,1.73-1.72h26.83c10.15,0,18.77,5.8,18.77,19.31,0,13.32-8.62,19.31-18.23,19.31h-7.61v17.76a1.67,1.67,0,0,1-1.72,1.73h-18A1.68,1.68,0,0,1,136.75,114.31Zm21.49-29.55h1.36c2.54,0,3-.9,3-7.52s-.45-7.53-3-7.53h-1.36Z" style="fill:#86bab3"/><path d="M188.15,114.31V59.65a1.67,1.67,0,0,1,1.73-1.72h18a1.67,1.67,0,0,1,1.72,1.72v40.43h12a1.67,1.67,0,0,1,1.73,1.72v12.51A1.68,1.68,0,0,1,221.6,116H189.88A1.68,1.68,0,0,1,188.15,114.31Z" style="fill:#86bab3"/><path d="M245.9,114.5a1.93,1.93,0,0,1-2.09,1.54h-17.4a1.62,1.62,0,0,1-1.63-1.63,18,18,0,0,1,.9-3.63l13.69-51.22c.36-1.27,1-1.63,2-1.63h17.77c1,0,1.63.36,2,1.63l13.69,51.22a18,18,0,0,1,.9,3.63,1.62,1.62,0,0,1-1.63,1.63H256.68a1.92,1.92,0,0,1-2.08-1.54l-1.27-6.26h-6.16Zm5.71-26.38c-.36-2.45-.82-5-.82-5.9s-.18-1.08-.54-1.08-.54.27-.54,1.08-.46,3.54-.82,5.9L247.71,96h5.08Z" style="fill:#86bab3"/><path d="M282.61,114.31V95.1L269,62.82a9.13,9.13,0,0,1-1.08-3.26,1.56,1.56,0,0,1,1.63-1.63h16.95c1.36,0,2.27.36,2.54,1.54l2.54,10.06a37.5,37.5,0,0,1,1.26,6c0,.81.19,1.08.55,1.08s.54-.27.54-1.08a37.91,37.91,0,0,1,1.27-6l2.54-10.06c.27-1.27,1.18-1.54,2.54-1.54h16.95a1.56,1.56,0,0,1,1.63,1.63,9,9,0,0,1-1.09,3.26L304.19,95.1v19.21a1.68,1.68,0,0,1-1.73,1.73H284.33A1.67,1.67,0,0,1,282.61,114.31Z" style="fill:#86bab3"/></g></g></svg>