<svg xmlns="http://www.w3.org/2000/svg" viewBox="0 0 566.25 627.84"><g id="e7c4b23d-8e47-49f0-a871-cbbc7ceeea92" data-name="Layer 2"><g id="fb8aa495-9f56-4532-9eb8-2d10d298eb42" data-name="Layer 1"><path d="M557.07,233.81a56.79,56.79,0,0,0-80.39-47.28,56.79,56.79,0,0,0-82.06-31.62,56.79,56.79,0,0,0-84.7-23.67,56.79,56.79,0,0,0-92.71-10.12l1.53.51-1.57-.39a56.77,56.77,0,0,0,80.39,47.27,56.77,56.77,0,0,0,82.06,31.62,56.79,56.79,0,0,0,84.7,23.67A56.77,56.77,0,0,0,557,233.92l-1.23-.53Z" style="fill:#86bab3;stroke:#86bab3;stroke-linecap:round;stroke-linejoin:round;stroke-width:3px"/><path d="M414.09,130.56c-.43-4.86-7.2-6.86-11.49-4.53s-6.52,7.12-8.44,11.61a1008.75,1008.75,0,0,0-61.92,200.72c.42-2.12,14-4.23,16.45-7.34,4.69-5.89,5.51-20.16,7.51-27.47q8-29.34,17.13-58.37Q391.56,187.13,414.09,130.56Z" style="fill:#c981aa"/><path d="M208.63,349.41A72.35,72.35,0,0,0,266.15,321a180.76,180.76,0,0,0-114.57.6A72.35,72.35,0,0,0,208.63,349.41Z" style="fill:#86bab3"/><polygon points="170.32 168.14 294.14 200 300.14 157 224.15 147.65 187.42 131.37 170.32 168.14" style="fill:#f28fc3"/><path d="M144.51,203.57l155.58,39.76-.85-8.1q-.39-3.69-.79-7.36-.78-7.16-1.57-14.32-.93-8.52-1.86-17L171.37,165Z" style="fill:#c981aa"/><path d="M144.15,204c-.45,1.77,6.9,5.36,19.29,9.8a72.61,72.61,0,0,1,11.16-7.67C156.55,202.89,144.69,201.9,144.15,204Z" style="fill:#6b495c"/><path d="M271.13,230.71A72.28,72.28,0,0,1,277.35,243c13.47,2.13,22,2.56,22.42.75C300.33,241.54,289.07,236.61,271.13,230.71Z" style="fill:#6b495c"/><path d="M277.35,243a72.28,72.28,0,0,0-6.22-12.25c-13-4.26-29.41-9-47.44-13.62-18.44-4.7-35.52-8.46-49.09-10.92A72.51,72.51,0,1,0,277.35,243Z" style="fill:#bdefea"/><path d="M163.62,204.26c-1.65,9.49-3.39,19.07-7.25,27.9s-10.05,17-18.65,21.32-19.76,4.26-27.29-1.75" style="fill:none;stroke:#c981aa;stroke-linecap:round;stroke-miterlimit:10;stroke-width:9px"/><path d="M284.75,232.54c.24,10.91,8,20.09,15.89,27.62s16.74,14.9,20.37,25.19" style="fill:none;stroke:#c981aa;stroke-linecap:round;stroke-miterlimit:10;stroke-width:9px"/><path d="M197.33,375.93,213.07,398" style="fill:none;stroke:#6b495c;stroke-linecap:round;stroke-linejoin:round;stroke-width:4px"/><path d="M191.32,395.13l26.9-18.91" style="fill:none;stroke:#6b495c;stroke-linecap:round;stroke-linejoin:round;stroke-width:4px"/><path d="M176,280.46a2.68,2.68,0,0,0,2.07,4.3l20.55.54c5.05.13,10.59.11,14.48-3.12,4.37-3.64,5.05-10.5,2.57-15.61-1.73-3.56-6.29-8.83-10.43-9.65-4.88-1-8.85,3.16-12.4,5.89C186.24,267.91,181.07,273.84,176,280.46Z" style="fill:#e0a57e"/><path d="M178.06,304.05a82.72,82.72,0,0,0,67.47-15.66" style="fill:none;stroke:#6b495c;stroke-linecap:round;stroke-linejoin:round;stroke-width:4px"/><path d="M395.78,597.74c-11.33,0-19.54-10.75-34.78-9.49a128.9,128.9,0,0,0,9.13-15.55,180.21,180.21,0,0,0-8.47-177.11,42.51,42.51,0,1,0-56.43-56.36,179.37,179.37,0,0,0-39.46-18.61,72.46,72.46,0,0,1-114.57.6,179.5,179.5,0,0,0-43,21.53A42.52,42.52,0,1,0,54.1,400.53a180.19,180.19,0,0,0,1.18,184.13c-10.37,1.94-14.19,10.55-25.69,12.43-31.92,5.21-33.15,17.76-26.06,22.8,8.3,5.91,66.8,6.46,104.91,7.82,33.42,1.2,65.55-6.24,93.57-6.24,19.5,0,37.62,3.64,56.94,3.64,25,0,25.64-2.19,63.21-5.22,29.13-2.35,41.18,3.19,70.37,1.31,4.41-.29,21.5,1.3,25.41-8.47C422.82,600.52,403,597.74,395.78,597.74Z" style="fill:#bdefea"/><path d="M427.5,349.58c-4.81-1.27-8.7,3.64-12,7.35A36.69,36.69,0,0,1,400,367.14c.73,2.87-.83,6.41-4.66,6.41a4.67,4.67,0,0,1-4.81-4.49,36.38,36.38,0,0,1-4.67,0c-7.28-.48-13-3.34-19.1-7-3.74-2.23-8.15-5.89-12.83-3.58-13.55,6.69,3.6,20.67,10.56,23.57,12.22,5.09,25.82,7.9,38.76,5.12s25-11.94,28.66-24.66C433.31,357.65,432.43,350.88,427.5,349.58Z" style="fill:#c981aa"/><path d="M327.76,99.23A56.75,56.75,0,0,1,403.53,128a56.77,56.77,0,0,1,78,22.18A56.8,56.8,0,0,1,551.63,154,181.49,181.49,0,0,0,269.28,60.34a56.77,56.77,0,0,1,58.48,38.89Z" style="fill:#bdefea;stroke:#bdefea;stroke-linecap:round;stroke-linejoin:round;stroke-width:14px"/><path d="M277.93,104.5a56.6,56.6,0,0,1,32,26.74,56.79,56.79,0,0,1,84.7,23.67,56.79,56.79,0,0,1,82.06,31.62,56.79,56.79,0,0,1,80.39,47.28A180.5,180.5,0,0,0,551.63,154a56.8,56.8,0,0,0-70.13-3.75,56.77,56.77,0,0,0-78-22.18,56.75,56.75,0,0,0-75.77-28.79,56.77,56.77,0,0,0-58.48-38.89,180.54,180.54,0,0,0-52.07,60.78A56.79,56.79,0,0,1,277.93,104.5Z" style="fill:#bdefea;stroke:#bdefea;stroke-linecap:round;stroke-linejoin:round;stroke-width:14px"/><circle cx="437.49" cy="21.23" r="21.23" style="fill:#bdefea"/><path d="M154.41,479.9l4.12,51.27c.69,8.63,1.28,17.83-2.9,25.42-4,7.34-11.75,11.76-19.08,15.8-6,3.32-13.59,6.63-19.35,2.88-5.36-3.48-5.86-11-5.8-17.38l.28-28c.08-8.42-1.87-19.83.25-27.93,1.83-7,10.59-8.3,17.07-11.1C131.42,489.83,154.52,481.27,154.41,479.9Z" style="fill:#e0a57e"/><path d="M258.55,481.9l-4.12,51.27c-.7,8.63-1.28,17.83,2.89,25.42,4,7.34,11.75,11.76,19.09,15.8,6,3.32,13.58,6.63,19.35,2.88,5.36-3.48,5.86-11,5.8-17.38l-.28-28c-.08-8.42,1.87-19.83-.25-27.93-1.83-7-10.59-8.3-17.07-11.1C281.54,491.83,258.44,483.27,258.55,481.9Z" style="fill:#e0a57e"/><circle cx="183.64" cy="244.5" r="7.5" style="fill:#6b495c"/><circle cx="229.64" cy="251.5" r="7.5" style="fill:#6b495c"/><path d="M195.82,419.1l16.93,21.18" style="fill:none;stroke:#6b495c;stroke-linecap:round;stroke-linejoin:round;stroke-width:4px"/><path d="M190.88,438.6l25.82-20.36" style="fill:none;stroke:#6b495c;stroke-linecap:round;stroke-linejoin:round;stroke-width:4px"/><path d="M111.49,509.77l43-10.68" style="fill:none;stroke:#b77149;stroke-linecap:round;stroke-linejoin:round;stroke-width:3px"/><path d="M256.92,499.86A272.06,272.06,0,0,1,301,515.24" style="fill:none;stroke:#b77149;stroke-linecap:round;stroke-linejoin:round;stroke-width:3px"/><path d="M116.83,508l1.06-11.72" style="fill:none;stroke:#b77149;stroke-linecap:round;stroke-linejoin:round;stroke-width:3px"/><path d="M128.46,505.71,128.23,492" style="fill:none;stroke:#b77149;stroke-linecap:round;stroke-linejoin:round;stroke-width:3px"/><path d="M140.26,503.08,138,488.47" style="fill:none;stroke:#b77149;stroke-linecap:round;stroke-linejoin:round;stroke-width:3px"/><path d="M150.37,499.84l-1.06-16.61" style="fill:none;stroke:#b77149;stroke-linecap:round;stroke-linejoin:round;stroke-width:3px"/><path d="M155.11,498.54V480.3" style="fill:none;stroke:#b77149;stroke-linecap:round;stroke-linejoin:round;stroke-width:3px"/><path d="M255.25,498.84l2.55-16.58" style="fill:none;stroke:#b77149;stroke-linecap:round;stroke-linejoin:round;stroke-width:3px"/><path d="M265.88,502.13V485.84" style="fill:none;stroke:#b77149;stroke-linecap:round;stroke-linejoin:round;stroke-width:3px"/><path d="M276.17,506l.56-16" style="fill:none;stroke:#b77149;stroke-linecap:round;stroke-linejoin:round;stroke-width:3px"/><path d="M287,509.61l1.17-14" style="fill:none;stroke:#b77149;stroke-linecap:round;stroke-linejoin:round;stroke-width:3px"/><path d="M257.84,481.68l43.57,18" style="fill:none;stroke:#b77149;stroke-linecap:round;stroke-linejoin:round;stroke-width:3px"/><path d="M111.86,502.8a7.75,7.75,0,0,1,3-6.17,23.22,23.22,0,0,1,6.24-3.37l31.94-13.15" style="fill:none;stroke:#b77149;stroke-linecap:round;stroke-linejoin:round;stroke-width:3px"/><path d="M120.14,530.79l-.27,19.41c-.05,3.21.08,6.86,2.49,9a5.78,5.78,0,0,0,7.37,0" style="fill:none;stroke:#b77149;stroke-linecap:round;stroke-linejoin:round;stroke-width:3px"/><path d="M294.38,528.52l-1,27.24a16.08,16.08,0,0,1-1,6,5.46,5.46,0,0,1-4.66,3.45" style="fill:none;stroke:#b77149;stroke-linecap:round;stroke-linejoin:round;stroke-width:3px"/><path d="M189,269.67a7.81,7.81,0,0,1,6.08,6.05" style="fill:none;stroke:#b77149;stroke-linecap:round;stroke-linejoin:round;stroke-width:3px"/><path d="M196.49,262.88a10.62,10.62,0,0,1,9.72,7.95" style="fill:none;stroke:#b77149;stroke-linecap:round;stroke-linejoin:round;stroke-width:3px"/><path d="M40.68,345.55a29.75,29.75,0,0,1,46.66-9" style="fill:none;stroke:#d9f4f1;stroke-linecap:round;stroke-linejoin:round;stroke-width:4px"/><path d="M335.56,581.81A158.24,158.24,0,0,0,363.07,512" style="fill:none;stroke:#d9f4f1;stroke-linecap:round;stroke-linejoin:round;stroke-width:4px"/><path d="M316.64,103.5c19.17-47.09,60-65,89-69" style="fill:none;stroke:#86bab3;stroke-linecap:round;stroke-linejoin:round;stroke-width:3px"/><path d="M399.64,142.5c13-37,17-47,28-88" style="fill:none;stroke:#86bab3;stroke-linecap:round;stroke-linejoin:round;stroke-width:3px"/><path d="M482.64,169.5c11.34-41.07,3.34-76.72-19-113" style="fill:none;stroke:#86bab3;stroke-linecap:round;stroke-linejoin:round;stroke-width:3px"/><path d="M169.92,593c-4-1.05-7.81-2.25-12.42-1.61-15.48,2.14-30,4.17-45.62,3-7.42-.57-14.79-1.76-22.14-2.94-4-.66-24.81-8.6-24.66.6.09,5.15,6,8.46,10.32,8.49a47.32,47.32,0,0,0,11-1.63,38.3,38.3,0,0,1,8.53-1.19c46.41-2.7,45.91,6.07,68,3.47,6.38-.75,13.37.62,19.49-1.74,1.13-.43,2.38-1.23,2.37-2.44a2.25,2.25,0,0,0-1.69-2c-2.76-.86-6.06-.62-8.92-1.08C172.7,593.67,171.29,593.33,169.92,593Z" style="fill:#86bab3"/><path d="M239.11,598.08a3.93,3.93,0,0,0,1.56,2c1.16.79,5,.3,6.44.38,5,.28,9.92.4,14.91.27,8.51-.23,17.05-.37,25.51-1.37,3.43-.4,24.66-2.8,25.11-7.05.34-3.27-13.16.65-15.05,1-8,1.66-16.15,3.28-24.36,3.46a192.82,192.82,0,0,1-28.62-1.89A8.16,8.16,0,0,0,241,595C239.19,595.59,238.73,596.87,239.11,598.08Z" style="fill:#86bab3"/><path d="M198,374.13l15.75,22.08" style="fill:none;stroke:#6b495c;stroke-linecap:round;stroke-linejoin:round;stroke-width:4px"/><path d="M192,393.33l26.89-18.91" style="fill:none;stroke:#6b495c;stroke-linecap:round;stroke-linejoin:round;stroke-width:4px"/></g></g></svg>